<?xml version="1.0" encoding="UTF-8" standalone="no"?>
<svg
   xmlns:dc="http://purl.org/dc/elements/1.1/"
   xmlns:cc="http://creativecommons.org/ns#"
   xmlns:rdf="http://www.w3.org/1999/02/22-rdf-syntax-ns#"
   xmlns:svg="http://www.w3.org/2000/svg"
   xmlns="http://www.w3.org/2000/svg"
   id="svg93"
   xml:space="preserve"
   enable-background="new 0 0 1400 980"
   viewBox="0 0 1400 980"
   height="980px"
   width="1400px"
   y="0px"
   x="0px"
   version="1.1"><metadata
   id="metadata99"><rdf:RDF><cc:Work
       rdf:about=""><dc:format>image/svg+xml</dc:format><dc:type
         rdf:resource="http://purl.org/dc/dcmitype/StillImage" /><dc:title></dc:title></cc:Work></rdf:RDF></metadata><defs
   id="defs97">
	
	
	
	
	
</defs>


<g
   id="g1136"><g
     id="browser_window"
     style="stroke:#000000;stroke-opacity:0.2701422"
     transform="matrix(0.71903967,0,0,0.71903967,206.94313,101.70099)">
		<rect
   style="fill:#f0f1f4;stroke:#000000;stroke-opacity:0.2701422"
   id="rect4"
   height="735.70001"
   width="1221.8"
   y="184.89999"
   x="89.099998" />
		<rect
   style="fill:#ffffff;stroke:#000000;stroke-opacity:0.2701422"
   id="rect6"
   height="677.79999"
   width="1221.8"
   y="210.5"
   x="89.099998" />
		<g
   id="g50"
   style="stroke:#000000;stroke-opacity:0.2701422">
			<path
   style="fill:#d1d4d9;stroke:#000000;stroke-opacity:0.2701422"
   id="path8"
   d="m 1310.9,124.3 c 0,3.6 -2.9,6.5 -6.5,6.5 H 95.6 c -3.6,0 -6.5,-2.9 -6.5,-6.5 V 65.9 c 0,-3.6 2.9,-6.5 6.5,-6.5 h 1208.8 c 3.6,0 6.5,2.9 6.5,6.5 z" />
			<g
   id="g14"
   style="stroke:#000000;stroke-opacity:0.2701422">
				<path
   style="fill:#656d78;stroke:#000000;stroke-opacity:0.2701422"
   id="path10"
   d="m 1291,83.5 c -0.4,0 -0.8,-0.2 -1.1,-0.5 -0.3,-0.3 -0.5,-0.7 -0.5,-1.2 0,-0.4 0.2,-0.8 0.5,-1.1 l 2.6,-2.6 -2.8,-2.8 h 8 v 8 l -2.8,-2.8 -2.6,2.6 c -0.5,0.2 -0.9,0.4 -1.3,0.4 z" />
				<path
   style="fill:#656d78;stroke:#000000;stroke-opacity:0.2701422"
   id="path12"
   d="m 1280,92.8 v -8 l 3,3 2.7,-2.7 c 0.3,-0.3 0.7,-0.5 1.1,-0.5 0.4,0 0.8,0.2 1.1,0.5 0.3,0.3 0.5,0.7 0.5,1.1 0,0.4 -0.2,0.8 -0.5,1.1 l -2.7,2.7 2.7,2.7 h -7.9 z" />
			</g>
			<g
   id="g22"
   style="stroke:#000000;stroke-opacity:0.2701422">
				<circle
   style="fill:#dc4b3e;stroke:#000000;stroke-opacity:0.2701422"
   id="circle16"
   r="7.8000002"
   cy="85.400002"
   cx="116.4" />
				<circle
   style="fill:#f4c20d;stroke:#000000;stroke-opacity:0.2701422"
   id="circle18"
   r="7.8000002"
   cy="85.400002"
   cx="143.7" />
				<circle
   style="fill:#3cba54;stroke:#000000;stroke-opacity:0.2701422"
   id="circle20"
   r="7.8000002"
   cy="85.400002"
   cx="171" />
			</g>
			<path
   style="fill:#e0e3e8;stroke:#000000;stroke-opacity:0.2701422"
   id="path24"
   d="m 473.2,110.1 c -7.8,0 -10.4,-32.5 -20.8,-32.5 -7.8,0 -234,0 -241.8,0 -10.4,0 -13,32.5 -20.8,32.5 H 89.1 v 74.6 0.2 h 1221.8 v -0.2 -74.6 z" />
			<path
   style="fill:#ffffff;stroke:#000000;stroke-opacity:0.2701422"
   id="path26"
   d="M 1222.8,172.8 H 227 c -1.8,0 -3.2,-1.4 -3.2,-3.2 v -41.9 c 0,-1.7 1.4,-3.2 3.2,-3.2 h 995.9 c 1.8,0 3.2,1.4 3.2,3.2 v 41.9 c -0.1,1.8 -1.5,3.2 -3.3,3.2 z" />
			<g
   id="g48"
   style="stroke:#000000;stroke-opacity:0.2701422">
				<g
   id="g34"
   style="stroke:#000000;stroke-opacity:0.2701422">
					<path
   style="fill:#aab2bc;stroke:#000000;stroke-opacity:0.2701422"
   id="path28"
   d="m 130.9,146.9 h -10.6 l 4.3,-3.9 c 0.6,-0.6 0.6,-1.6 0,-2.1 -0.6,-0.6 -1.6,-0.6 -2.1,0 l -7.4,6.8 c -0.6,0.6 -0.6,1.6 0,2.1 l 7.4,7.1 c 0.3,0.3 0.7,0.4 1.1,0.4 0.4,0 0.8,-0.1 1.1,-0.4 0.6,-0.6 0.6,-1.6 0,-2.1 l -4.1,-3.9 H 131 c 1.1,0 1.9,-0.9 1.9,-1.9 -0.1,-1.2 -0.9,-2.1 -2,-2.1 z" />
					<path
   style="fill:#aab2bc;stroke:#000000;stroke-opacity:0.2701422"
   id="path30"
   d="m 164.9,148 -7.4,-7.1 c -0.3,-0.3 -0.7,-0.4 -1.1,-0.4 -0.4,0 -0.8,0.1 -1.1,0.4 -0.6,0.6 -0.6,1.6 0,2.1 l 4.1,3.9 H 149 c -1.1,0 -1.9,0.9 -1.9,1.9 0,1.1 0.9,1.9 1.9,1.9 h 10.6 l -4.3,3.9 c -0.6,0.6 -0.6,1.6 0,2.1 0.6,0.6 1.6,0.6 2.1,0 l 7.4,-6.8 c 0.7,-0.4 0.7,-1.3 0.1,-1.9 z" />
					<path
   style="fill:#aab2bc;stroke:#000000;stroke-opacity:0.2701422"
   id="path32"
   d="m 199.1,148.1 v -7.7 l -2.6,2.6 c -1.4,-1.2 -3.2,-1.9 -5.1,-1.9 -4.4,0 -8,3.6 -8,8 0,4.4 3.6,8 8,8 2.6,0 4.9,-1.2 6.4,-3.1 0.5,-0.6 0.4,-1.5 -0.3,-2 -0.3,-0.2 -0.6,-0.3 -0.9,-0.3 -0.4,0 -0.9,0.2 -1.1,0.6 -1,1.2 -2.4,2 -4.1,2 -1.4,0 -2.7,-0.6 -3.7,-1.5 -0.9,-0.9 -1.5,-2.2 -1.5,-3.7 0,-1.4 0.6,-2.7 1.5,-3.7 0.9,-0.9 2.2,-1.5 3.7,-1.5 1.2,0 2.2,0.4 3.1,1 l -3,3 h 7.6 z" />
				</g>
				<g
   id="g42"
   style="stroke:#000000;stroke-opacity:0.2701422">
					<path
   style="fill:#aab2bc;stroke:#000000;stroke-opacity:0.2701422"
   id="path36"
   d="m 1282.4,142 h -26.5 c -1.6,0 -3,-1.3 -3,-3 0,-1.6 1.3,-2.9 3,-2.9 h 26.5 c 1.6,0 2.9,1.3 2.9,2.9 0,1.7 -1.3,3 -2.9,3 z" />
					<path
   style="fill:#aab2bc;stroke:#000000;stroke-opacity:0.2701422"
   id="path38"
   d="m 1282.4,151.8 h -26.5 c -1.6,0 -3,-1.3 -3,-3 0,-1.6 1.3,-2.9 3,-2.9 h 26.5 c 1.6,0 2.9,1.3 2.9,2.9 0,1.7 -1.3,3 -2.9,3 z" />
					<path
   style="fill:#aab2bc;stroke:#000000;stroke-opacity:0.2701422"
   id="path40"
   d="m 1282.4,161.7 h -26.5 c -1.6,0 -3,-1.3 -3,-2.9 0,-1.6 1.3,-2.9 3,-2.9 h 26.5 c 1.6,0 2.9,1.3 2.9,2.9 0,1.5 -1.3,2.9 -2.9,2.9 z" />
				</g>
				<path
   style="fill:#f4c20d;stroke:#000000;stroke-opacity:0.2701422"
   id="path44"
   d="m 1210.3,146.3 c -0.3,-0.8 -1,-1.3 -1.8,-1.3 h -5.2 l -1.6,-4.9 c -0.3,-0.8 -1,-1.3 -1.8,-1.3 -0.8,0 -1.6,0.5 -1.8,1.3 l -1.6,4.9 h -5.2 c -0.8,0 -1.6,0.5 -1.8,1.3 -0.3,0.8 0,1.7 0.7,2.2 l 4.2,3 -1.6,4.9 c -0.3,0.8 0,1.7 0.7,2.2 0.3,0.2 0.7,0.4 1.1,0.4 0.4,0 0.8,-0.1 1.1,-0.4 l 4.2,-3 4.2,3 c 0.3,0.2 0.7,0.4 1.1,0.4 0.4,0 0.8,-0.1 1.1,-0.4 0.7,-0.5 1,-1.4 0.7,-2.2 l -1.6,-4.9 4.2,-3 c 0.7,-0.5 1,-1.4 0.7,-2.2 z" />
				<path
   style="fill:#ccd1d9;stroke:#000000;stroke-opacity:0.2701422"
   id="path46"
   d="m 251.1,136.1 c -7,0 -12.7,5.7 -12.7,12.8 0,7.1 5.7,12.8 12.7,12.8 7,0 12.7,-5.7 12.7,-12.8 0,-7.1 -5.7,-12.8 -12.7,-12.8 z m -1.1,23.8 v 0 c -5.6,-0.6 -9.9,-5.3 -9.9,-11.1 0,-3.8 1.9,-7.1 4.7,-9.1 l -0.9,1.2 0.3,1.6 -0.5,0.8 v 0.8 l -0.3,1.7 0.1,1 0.6,0.7 0.8,1.5 0.7,1.3 h 1 l 1.5,1.5 0.8,0.5 0.6,0.7 v 0.7 l -0.5,0.8 v 1 l 0.5,1 1.4,0.7 0.3,1.5 -0.5,1.1 c -0.2,0 -0.4,0 -0.6,0 z m 4.3,-0.5 0.1,-0.2 1.3,-0.8 1,-1.7 0.7,-1.2 0.1,-0.8 -1.3,-0.7 -1.9,-1.2 -0.4,-0.7 -1.6,-0.3 h -1.7 l -1.2,-0.1 -1,-0.9 -0.8,-0.6 -0.9,-1.2 -0.5,-0.1 v -0.9 -0.9 h 0.6 1.2 l 0.7,0.1 v 0.8 l 0.9,0.1 -0.4,-1.4 v -0.6 l 0.7,-0.4 0.5,-0.3 0.9,-0.7 0.9,-1.4 0.5,-0.5 -1,-0.8 -1,-0.5 -0.5,0.5 h -0.5 l -0.7,0.7 v 0.6 l -0.9,-0.5 1,-1.3 -0.9,-0.7 0.7,-0.4 0.8,-0.6 0.6,-0.6 -0.9,-0.1 h -0.8 l -0.8,0.5 -0.8,-0.6 -0.6,-0.5 h -0.1 c 1.2,-0.6 2.5,-1 4,-1.1 l -0.5,0.1 1,0.9 1.2,0.6 0.6,1 1,-0.1 0.5,-0.9 -0.5,-0.9 -0.9,-0.6 c 1.9,0.2 3.6,1 5.1,2 l 0.6,1.9 0.7,0.8 -1.5,2.4 c 0,0 0.5,0.6 1.1,0.7 0,0 0,0 0,0 0.2,0 0.3,-0.2 0.4,-0.3 0.1,-0.2 0.2,-0.3 0.4,-0.3 0,0 0,0 0.1,0 0.6,0.1 1.4,0.7 1.5,0.8 0.1,0.3 -2.6,2.6 -2.6,2.6 l 0.9,1.7 1.4,1.4 0.8,-0.8 0.4,0.6 c -1.2,4.2 -4,7.3 -7.7,8.4 z" />
			</g>
		</g>
	</g><text
     id="text76"
     x="402.95169"
     y="213.70479"
     style="font-size:8.62847614px;stroke-width:0.71903968"><tspan
       style="font-size:14.64223576px;font-family:ArialMT;fill:#333333;stroke-width:0.71903968"
       id="tspan66"
       font-size="20.3636px"
       y="213.70479"
       x="402.95169">http://www.myapp.com</tspan></text>
</g><text
   id="text950"
   y="337.10071"
   x="316.32947"
   style="font-style:normal;font-weight:normal;font-size:57.98322678px;line-height:1.25;font-family:sans-serif;letter-spacing:0px;word-spacing:0px;fill:#000000;fill-opacity:1;stroke:none;stroke-width:1.44958079"
   xml:space="preserve"><tspan
     style="font-style:normal;font-variant:normal;font-weight:normal;font-stretch:normal;font-size:57.98322678px;font-family:Ubuntu;-inkscape-font-specification:'Ubuntu, Normal';font-variant-ligatures:normal;font-variant-caps:normal;font-variant-numeric:normal;font-feature-settings:normal;text-align:start;writing-mode:lr-tb;text-anchor:start;stroke-width:1.44958079"
     y="337.10071"
     x="316.32947"
     id="tspan948">Hello, World!</tspan></text>
</svg>