<?xml version="1.0" encoding="UTF-8" standalone="no"?>
<svg
   xmlns:dc="http://purl.org/dc/elements/1.1/"
   xmlns:cc="http://creativecommons.org/ns#"
   xmlns:rdf="http://www.w3.org/1999/02/22-rdf-syntax-ns#"
   xmlns:svg="http://www.w3.org/2000/svg"
   xmlns="http://www.w3.org/2000/svg"
   id="svg2380"
   version="1.1"
   viewBox="0 0 419.23969 176.63924"
   height="176.63924mm"
   width="419.23969mm">
  <defs
     id="defs2374" />
  <metadata
     id="metadata2377">
    <rdf:RDF>
      <cc:Work
         rdf:about="">
        <dc:format>image/svg+xml</dc:format>
        <dc:type
           rdf:resource="http://purl.org/dc/dcmitype/StillImage" />
        <dc:title></dc:title>
      </cc:Work>
    </rdf:RDF>
  </metadata>
  <g
     transform="translate(-131.31468,-65.805383)"
     id="layer1">
    <path
       d="m 233.76497,233.64209 c -1.05551,1.29554 -8.16652,4.45845 -10.02368,4.45845 -0.64636,0 -2.55185,-0.55083 -4.23444,-1.22406 -3.26958,-1.30823 -3.82129,-2.76959 -1.99073,-5.27302 1.04349,-1.42706 1.10141,-1.42063 2.47389,0.27432 1.21114,1.49569 1.84747,1.66489 4.60371,1.22416 1.75907,-0.2813 3.76976,-1.14289 4.46821,-1.91466 1.1999,-1.32587 1.09306,-1.61448 -1.93826,-5.23504 -1.7645,-2.10751 -3.48956,-3.83183 -3.83346,-3.83183 -1.10426,0 -6.08162,-7.37695 -6.08162,-9.01357 0,-1.92551 2.98341,-4.86969 4.38832,-4.33057 0.55958,0.21462 0.82884,0.0852 0.59832,-0.28769 -0.45965,-0.74375 3.51577,-2.34829 5.81812,-2.34829 2.09594,0 5.6709,2.01552 6.24953,3.52341 0.81739,2.13008 -0.7516,2.88682 -2.45459,1.18383 -1.22659,-1.22659 -2.04312,-1.41751 -4.08903,-0.95607 -3.63843,0.82058 -5.94494,2.20198 -5.94494,3.56044 0,0.64373 2.73948,4.0309 6.08769,7.52707 3.34821,3.49616 6.11581,6.63857 6.15024,6.98314 0.0343,0.34454 0.20816,1.49928 0.38603,2.56607 0.17795,1.06679 -0.10699,2.46805 -0.63331,3.11391 z m 3.08856,-102.07573 c -6.17591,0 -29.50945,-6.51306 -37.28565,-10.40748 -1.38858,-0.69543 -3.14375,-1.56417 -3.90035,-1.93054 -8.94278,-4.33025 -20.26843,-10.92556 -27.55347,-16.04526 -1.66714,-1.17161 -7.16653,-4.822194 -12.22088,-8.112404 -5.05436,-3.290231 -9.72268,-6.783251 -10.37405,-7.762271 -1.4112,-2.12111 -8.21121,-9.35626 -8.21121,-8.73669 0,1.61938 3.49992,8.84286 5.09993,10.52575 2.06082,2.16757 1.95634,4.42095 -0.20492,4.42095 -1.7081,0 -5.10101,-3.79513 -6.55829,-7.33575 -3.11383,-7.56537 -3.63508,-9.35922 -4.09459,-14.09113 -0.44453,-4.57754 -0.34392,-5.14553 1.04289,-5.88773 1.14994,-0.61543 2.36104,-0.52997 4.82889,0.34075 3.02822,1.06841 16.76437,3.45171 21.15939,3.67127 1.31734,0.0658 2.01145,0.65471 2.35229,1.99575 0.64912,2.55422 -0.46239,3.8939 -2.56786,3.09499 -0.90928,-0.34499 -3.53659,-0.84696 -5.83848,-1.11549 -2.30192,-0.26851 -6.06866,-0.78922 -8.37056,-1.15711 -2.30189,-0.3679 -4.31424,-0.54595 -4.47186,-0.39564 -0.47651,0.45436 5.53613,7.2936 10.32862,11.74857 5.40334,5.02284 5.68971,5.24472 14.2416,11.033909 10.7898,7.304126 12.88916,8.668946 14.90574,9.690096 1.04632,0.52982 3.61455,2.09779 5.70719,3.48436 4.91257,3.25501 17.74032,9.55581 23.58971,11.58691 5.50209,1.91052 20.78366,5.85742 24.63015,6.36146 5.37884,0.70483 5.80112,0.91413 6.04899,2.99819 0.21808,1.83353 0.002,2.02454 -2.28315,2.02454 z m 15.63024,83.32425 c -0.8521,-0.8521 -1.88254,-1.09226 -3.23251,-0.75343 -1.08994,0.27353 -2.01033,0.55513 -2.04534,0.62574 -0.0349,0.0705 -0.63497,0.97505 -1.33323,2.00987 -1.54725,2.29294 -1.6922,7.30551 -0.22752,7.86755 1.1661,0.44748 5.65408,-2.04786 7.10057,-3.94792 1.32551,-1.74114 1.20855,-4.33128 -0.26197,-5.80181 z m 5.22612,18.8869 c -4.76805,2.13977 -8.18917,2.18339 -11.30156,0.14409 -0.99289,-0.65054 -1.80523,-1.67833 -1.80523,-2.28395 0,-0.60561 -1.01235,-1.84958 -2.24967,-2.76436 -2.18024,-1.61192 -2.23749,-1.81611 -1.85444,-6.61528 0.45628,-5.71672 2.82681,-11.15196 4.57178,-10.48235 0.64485,0.24744 0.93119,0.10785 0.66439,-0.32379 -0.60072,-0.97199 2.38902,-2.0896 4.8633,-1.81798 4.25709,0.4673 7.7019,4.01003 7.7019,7.92078 0,3.52449 -4.32355,8.64381 -8.56079,10.13653 -3.42815,1.20769 0.43385,3.9539 4.67545,3.32464 1.50913,-0.22388 3.8568,-0.64759 5.21701,-0.94157 4.25607,-0.91983 3.00393,1.49257 -1.92214,3.70326 z m 24.80335,-2.15381 c -1.65534,4.18553 -2.75632,5.26555 -4.17095,4.09149 -0.63064,-0.52337 -0.7189,-1.34598 -0.27091,-2.52435 0.36554,-0.96138 0.75793,-4.48591 0.87199,-7.83229 0.16135,-4.73299 -0.0839,-6.52878 -1.10383,-8.08554 -1.56515,-2.3887 -2.4064,-2.46635 -5.60312,-0.51718 -2.81633,1.71723 -3.71524,3.17626 -4.72456,7.66848 -0.56666,2.52204 -0.46299,3.93664 0.45699,6.23594 0.76664,1.91598 0.92803,3.23581 0.45371,3.71012 -1.47404,1.47407 -3.18087,-0.23035 -3.98486,-3.97921 -2.08468,-9.72059 0.23913,-15.02988 8.08664,-18.47579 3.11178,-1.36642 3.25123,-1.36511 5.68026,0.0535 3.48241,2.03381 5.04527,5.15946 5.45645,10.91246 0.26907,3.76455 -0.004,5.85315 -1.14781,8.74235 z m 13.63222,-10.88106 c -2.31531,-0.27526 -5.12389,2.13213 -5.12389,4.39197 0,1.33929 2.68403,4.61304 3.75805,4.58375 1.39283,-0.038 2.61473,-1.72394 3.10531,-4.28461 0.75479,-3.93985 0.57841,-4.41555 -1.73947,-4.69111 z m 10.85625,1.37777 c -0.41853,0 -0.76096,0.151 -0.76096,0.33557 0,0.18465 0.34243,0.5472 0.76096,0.80588 0.41854,0.25865 0.76097,0.10763 0.76097,-0.33557 0,-0.44324 -0.34243,-0.80588 -0.76097,-0.80588 z m 3.59789,12.28607 c -1.26681,0.67796 -1.76412,0.5843 -2.54136,-0.47865 -1.72446,-2.35832 -4.03036,-15.84095 -4.07687,-23.83743 -0.0151,-2.53757 -0.31109,-3.86219 -0.79688,-3.56197 -0.42535,0.26288 -0.59739,0.76269 -0.38233,1.11068 0.34025,0.55052 -0.60635,14.10026 -1.39488,19.96685 -0.95971,7.14011 -8.44428,8.42616 -12.18497,2.09374 -1.35049,-2.28622 -1.74954,-8.74215 -0.49233,-7.96516 0.41776,0.2582 0.56636,-0.0194 0.33422,-0.62442 -0.58036,-1.5124 3.20494,-4.31641 5.82698,-4.31641 1.23532,0 2.4527,0.55441 2.87522,1.30939 1.17037,2.09133 1.56873,-2.16308 1.85616,-19.82376 0.26415,-16.2289 0.57032,-17.77166 3.31782,-16.71734 2.42398,0.93016 4.72219,13.163 5.3324,28.38308 0.27034,6.7424 0.93751,13.26169 1.55754,15.21916 2.41052,7.61041 2.47055,8.33175 0.76928,9.24224 z m -8.9135,-71.77708 c -0.86329,-1.81973 -4.90204,-4.4145 -8.57189,-5.50716 -2.13803,-0.63659 -1.59956,-3.19249 0.8898,-4.22363 3.45704,-1.43193 6.79591,-5.48384 6.0904,-7.39101 -1.61554,-4.36723 -9.30764,-6.21414 -14.87595,-3.57177 -3.21745,1.52678 -5.83369,4.71315 -5.18912,6.31991 0.43154,1.07574 2.61175,13.31399 2.61878,14.70015 0.002,0.3139 0.46886,0.57071 1.03836,0.57071 0.67578,0 1.1927,1.32784 1.48821,3.82291 0.24901,2.10263 0.68431,4.19757 0.96729,4.65545 0.64474,1.04319 6.50095,0.3157 9.31786,-1.15752 2.85453,-1.49293 6.52078,-3.03496 6.99881,-2.94374 0.71051,0.13568 0.22657,-3.16826 -0.77255,-5.2743 z m 16.96039,-7.25208 c -0.33598,0.19845 -1.70012,0.59422 -3.03142,0.8796 -2.86653,0.6145 -3.53569,1.35081 -4.80461,5.28675 -0.72499,2.24873 -0.75601,3.90021 -0.12878,6.84862 1.41733,6.66146 1.63409,8.83156 0.88213,8.83156 -0.87367,0 -3.80124,-5.54422 -3.80124,-7.19878 0,-0.64446 -0.34243,-1.17175 -0.76096,-1.17175 -0.41854,0 -0.76097,0.28643 -0.76097,0.63652 0,1.72698 -13.56274,6.97305 -18.02753,6.97305 -3.71489,0 -7.53448,-2.9472 -8.1009,-6.2507 -1.55018,-9.04076 -2.86585,-15.7036 -3.89134,-19.70643 l -1.18223,-4.61473 2.00739,-2.78685 c 4.64048,-6.4423 15.3722,-8.99166 21.51837,-5.11176 6.42207,4.05406 7.7344,8.81234 3.76019,13.63373 l -2.39416,2.90451 3.10564,3.10563 3.10563,3.10563 1.30365,-2.73382 c 1.58019,-3.31366 5.10049,-5.35778 8.62917,-5.01065 2.45761,0.24174 3.91264,1.58815 2.57189,2.37987 z m 11.93597,82.49315 c -1.34833,3.34812 -9.86945,5.67191 -14.81424,4.03997 -3.84958,-1.27048 -2.63894,-2.75677 2.70002,-3.3148 5.4471,-0.56933 8.31839,-2.23019 8.31839,-4.81168 0,-2.17763 -2.55153,-6.96468 -6.39834,-12.00428 -3.21172,-4.20758 -3.57117,-7.35654 -1.04192,-9.12811 2.36708,-1.65797 5.68822,-1.51452 6.65253,0.28732 1.13525,2.12122 0.98553,2.49823 -0.77071,1.94083 -1.50098,-0.47641 -3.76826,0.69388 -3.76826,1.94503 0,0.33309 1.54052,2.41042 3.42339,4.61626 3.26089,3.82021 6.52431,10.65829 6.42082,13.454 -0.0265,0.71672 -0.35128,2.05567 -0.72168,2.97546 z m -2.4261,-77.2355 c -1.64963,-1.64964 -4.48519,-0.99373 -7.12764,1.64874 -1.40905,1.40903 -2.76586,2.35794 -3.01515,2.10865 -0.24929,-0.24929 -0.0979,0.48121 0.33627,1.62336 0.43425,1.14214 0.58061,2.07663 0.32528,2.07663 -0.25535,0 0.40755,0.68579 1.47315,1.52398 2.42972,1.91123 3.74227,1.41371 6.63006,-2.51309 2.46477,-3.35155 2.82129,-5.02501 1.37803,-6.46827 z m 3.51914,6.31426 c -0.65421,1.25464 -1.6794,2.82254 -2.27819,3.48421 -0.59882,0.66168 -1.08875,1.5921 -1.08875,2.06757 0,2.65613 -6.67609,3.20831 -10.01809,0.82861 -3.21521,-2.28942 -3.8085,-4.40706 -2.57115,-9.1771 1.44957,-5.58829 4.4887,-8.23551 9.45479,-8.23551 6.85113,0 9.71754,4.86406 6.50139,11.03222 z m 28.64611,1.90409 c -1.37691,6.89364 -4.35989,7.92415 -9.0245,3.1176 l -2.88236,-2.97006 -1.66356,3.74761 c -1.91058,4.30413 -3.26607,5.12111 -5.77224,3.47902 -1.81914,-1.19199 -5.25554,-9.71345 -6.04236,-14.98375 -0.21871,-1.46486 -0.51537,-3.16888 -0.65924,-3.78672 -0.33208,-1.42596 3.03952,-2.04501 3.49739,-0.64219 0.18033,0.55254 1.23054,4.04491 2.3338,7.76086 1.10324,3.71593 2.28252,6.45538 2.62062,6.08765 0.72447,-0.78797 2.23811,-5.35674 2.78635,-8.41041 0.858,-4.77887 3.96586,-4.45387 5.64238,0.59004 2.75725,8.29531 5.30612,8.81479 5.30612,1.08144 0,-5.4956 0.47285,-7.24643 1.95705,-7.24643 2.21369,0 3.14312,5.95416 1.90055,12.17534 z m 14.23609,7.94691 c -4.49171,3.14612 -13.23507,-0.81476 -11.5414,-5.22845 0.63651,-1.65868 1.44283,-1.50282 3.65148,0.70585 4.02192,4.0219 5.51829,1.56526 2.31753,-3.80479 -4.56274,-7.65516 -5.33641,-10.41366 -3.40973,-12.15729 1.5979,-1.44606 5.78669,-1.78481 7.00499,-0.56648 1.31742,1.31741 0.0902,3.44855 -1.71412,2.97672 -2.50783,-0.65583 -2.55472,1.3858 -0.11368,4.9492 2.86398,4.18082 5.49621,9.3589 5.49621,10.81204 0,0.62073 -0.76108,1.66168 -1.69126,2.3132 z m 0.50065,51.3275 c -5.30103,6.29994 -11.83126,8.02465 -16.60299,4.38506 -2.44881,-1.86781 -2.75229,-2.47959 -2.75229,-5.54827 0,-3.84611 1.71375,-4.42653 2.1492,-0.72792 0.40524,3.44213 6.5464,5.36952 9.17306,2.87892 0.57712,-0.54724 1.50137,-0.82149 2.05388,-0.60947 0.67276,0.25816 0.84897,-0.0194 0.53352,-0.84202 -0.33904,-0.88353 -0.18853,-1.05297 0.5368,-0.60465 0.63146,0.39026 0.82497,0.32699 0.51817,-0.16932 -0.26931,-0.43579 0.0194,-1.21548 0.6434,-1.73268 3.03331,-2.51744 0.0647,-9.18417 -8.06794,-18.1186 -3.0189,-3.31652 -3.9793,-3.89532 -7.06573,-4.25831 -5.57513,-0.6557 -8.46793,-2.78125 -5.19773,-3.81918 1.79324,-0.56916 16.88886,0.0216 18.64302,0.72863 2.03906,0.82274 1.13087,2.23269 -1.61268,2.50364 -1.32798,0.13115 -2.41451,0.41896 -2.41451,0.63958 0,0.22063 1.49078,2.16792 3.31286,4.3273 4.73968,5.61713 7.17363,10.20655 7.75286,14.61875 0.45548,3.46957 0.29938,4.08789 -1.6029,6.34862 z m 27.23647,-2.96349 c -0.517,4.49408 -0.94901,5.32673 -2.76381,5.32673 -1.41859,0 -2.49595,-1.15083 -5.07788,-5.42407 -3.40629,-5.63753 -4.31615,-5.74713 -4.45343,-0.53646 -0.0766,2.90248 -2.85069,9.00436 -4.09379,9.00436 -2.95285,0 -8.36946,-11.88553 -10.05696,-22.06781 -0.24278,-1.46485 -0.76573,-2.7775 -1.16215,-2.917 -0.94736,-0.33341 -0.92926,-2.95198 0.0246,-3.54142 1.9534,-1.20726 3.62398,1.3339 5.99723,9.12248 1.35613,4.45053 2.80361,8.98065 3.21659,10.06692 1.34057,3.52596 2.27175,0.76748 2.31847,-6.8681 0.0455,-7.42985 0.82728,-9.58888 3.14962,-8.69774 0.54356,0.20859 2.51687,3.22552 4.38519,6.7043 3.90385,7.26893 4.4281,6.7054 3.08005,-3.31107 -1.04464,-7.76218 -1.05027,-12.50438 -0.0151,-13.14382 0.89056,-0.55037 3.91628,1.81945 3.39661,2.66029 -0.17838,0.28865 0.16695,4.43767 0.76742,9.22002 1.51599,12.07295 1.5335,12.26858 1.28802,14.40239 z m -17.48905,-64.53848 c -1.89266,0.36073 -2.25511,3.60842 -0.387,3.4677 0.90469,-0.0682 1.46956,-0.75881 1.56514,-1.91369 0.11152,-1.34874 -0.18724,-1.74288 -1.17814,-1.55401 z m 22.50179,1.09112 c -0.55041,0.34334 -1.63653,0.7232 -2.41361,0.84412 -2.09097,0.32541 -3.77391,1.41802 -3.99277,2.59223 -1.32832,7.12639 -1.881,8.75498 -3.38442,9.97235 -0.93226,0.7549 -2.2465,1.21291 -2.92064,1.0178 -0.67406,-0.19521 -2.83738,-0.58214 -4.80729,-0.86005 -2.63147,-0.37125 -4.28707,-1.19031 -6.24021,-3.08719 -1.57795,-1.53246 -3.4288,-2.58188 -4.5537,-2.58188 -2.43783,0 -3.39043,-1.49587 -1.30061,-2.04236 1.08943,-0.2849 1.61815,-1.05613 1.6603,-2.42188 0.16221,-5.25575 0.49485,-6.46629 2.14421,-7.80187 2.38876,-1.93431 4.08614,-1.80109 6.86707,0.53892 3.18694,2.68162 3.04021,4.94602 -0.51232,7.90776 l -2.8536,2.37904 1.71431,1.41463 c 1.97325,1.62832 7.61566,2.79504 8.62691,1.78382 0.37575,-0.37578 0.91099,-2.86292 1.18952,-5.52696 0.61317,-5.86684 2.06341,-7.64546 6.23385,-7.64546 3.31031,0 6.37622,2.37349 4.543,3.51698 z m 14.75079,40.39885 c -0.32211,0.50693 -1.88185,1.46324 -3.46594,2.12513 -2.5292,1.05676 -2.83228,1.45456 -2.48637,3.26359 0.21667,1.13307 0.61831,4.62838 0.89263,7.76733 0.27424,3.13896 0.97708,7.57689 1.56178,9.86211 1.34765,5.2668 1.3371,6.61105 -0.0563,7.14572 -1.92887,0.74019 -3.61035,-1.74429 -3.31031,-4.89106 0.14991,-1.57148 0.009,-2.69463 -0.31221,-2.49586 -0.3216,0.19867 -0.58473,0.12835 -0.58473,-0.1566 0,-0.28488 -0.5234,-4.04267 -1.16303,-8.35064 -0.63968,-4.30797 -1.11278,-8.11866 -1.05137,-8.46821 0.26596,-1.51282 -0.16696,-1.77777 -1.62769,-0.99606 -1.13959,0.60993 -2.2764,0.59774 -4.22471,-0.0453 -2.67764,-0.88372 -3.05803,-2.03992 -1.01944,-3.09851 1.52625,-0.7925 8.38639,-2.96797 10.2349,-3.24564 0.84101,-0.12641 2.27156,-0.62704 3.17892,-1.11267 2.82048,-1.50944 5.01279,0.21225 3.43387,2.69663 z m 44.55443,21.28879 c -1.32125,-1.79138 -5.29389,-2.82379 -7.06086,-1.83493 -0.77883,0.43583 -2.15389,1.58856 -3.0557,2.56164 -0.9018,0.97307 -1.79062,1.61826 -1.97506,1.43377 -0.74385,-0.74383 -0.57505,3.16366 0.2222,5.14489 0.79822,1.98347 2.77537,2.51783 2.35746,0.63714 -0.26895,-1.21029 0.60389,-1.06195 2.18829,0.3719 1.09416,0.99026 1.80552,1.07158 3.67443,0.42006 1.7417,-0.60714 2.32357,-0.58138 2.34177,0.10376 0.013,0.50138 0.52697,0.24689 1.14144,-0.56551 1.36623,-1.8063 1.46074,-6.51727 0.16608,-8.27267 z m 16.71928,-2.86943 c -0.0623,-0.66267 -0.46868,-1.2562 -0.90223,-1.31899 -0.43341,-0.0628 -1.81541,-0.3161 -3.07096,-0.56295 -1.86984,-0.36765 -2.68264,-0.0306 -4.4921,1.86274 -3.50417,3.6666 -2.75423,8.23363 1.89569,11.54467 l 2.35289,1.67543 1.64367,-1.64201 c 2.15336,-2.15121 3.5829,-6.06795 3.08467,-8.45164 -0.21868,-1.04632 -0.44895,-2.44458 -0.51163,-3.10725 z m 2.27336,12.23875 c -1.13843,2.31921 -2.61605,3.91547 -4.5787,4.94624 l -2.89795,1.5219 -1.90302,-2.28287 c -1.04664,-1.25559 -2.62781,-3.07854 -3.51372,-4.051 l -1.61073,-1.76813 -0.81743,2.38854 c -0.44963,1.31371 -1.84478,3.01663 -3.10036,3.78431 -2.21623,1.35501 -2.41186,1.35423 -6.69941,-0.0272 -2.42914,-0.78258 -5.36178,-2.09592 -6.517,-2.91851 l -2.1004,-1.49561 -2.23401,1.82613 c -3.93525,3.21664 -7.62201,2.05474 -11.13467,-3.50904 -1.26722,-2.00711 -1.69114,-4.52275 -1.48714,-8.82388 0.20105,-4.24028 7.70062,-10.56321 7.73599,-6.52231 0.009,0.97943 0.17558,1.07324 0.63159,0.35471 0.34091,-0.53735 1.18978,-0.75829 1.88634,-0.49099 1.57618,0.60481 0.91353,1.84844 -0.98491,1.84844 -2.24118,0 -5.34945,4.27673 -5.34945,7.3603 0,3.13674 2.01189,6.90935 4.02556,7.54844 0.77729,0.24672 2.41543,0.0334 3.64011,-0.47378 1.7763,-0.73577 2.22678,-1.39386 2.22678,-3.25315 0,-3.29679 2.63338,-8.33022 5.12035,-9.78696 4.56163,-2.672 9.76575,-2.19082 12.26437,1.13396 0.97798,1.30135 1.15247,1.22577 2.81371,-1.21901 2.85625,-4.20331 7.91747,-5.29641 12.69203,-2.74115 3.73357,1.99813 4.73935,10.8496 1.89207,16.65051 z m 25.29972,4.20596 c -0.99761,0.61659 -4.53104,-1.63614 -4.53575,-2.89183 0,-0.5135 -0.80394,-2.89851 -1.78226,-5.29999 l -1.77872,-4.36632 -2.93055,4.25499 c -1.61176,2.34025 -3.63479,4.52145 -4.49564,4.84713 -2.17612,0.82328 -4.4667,-0.518 -3.99103,-2.33701 0.20966,-0.80122 0.0647,-1.45677 -0.32255,-1.45677 -0.73165,0 -0.31412,-20.04525 0.44302,-21.27035 0.22823,-0.36928 0.45709,-3.35362 0.50871,-6.63186 0.0518,-3.27826 0.24085,-6.21821 0.42066,-6.53323 0.17989,-0.31501 1.02828,-0.19737 1.88534,0.26127 1.45556,0.77895 1.5226,1.26897 1.01611,7.42141 -0.29821,3.62304 -0.66524,8.12829 -0.81553,10.01168 -0.15033,1.88336 -0.47056,5.19447 -0.7117,7.35799 -0.24117,2.16352 -0.21659,4.81783 0.0548,5.89847 0.49278,1.96347 0.49474,1.96261 2.92168,-1.27033 2.88132,-3.83812 6.06219,-9.20872 5.103,-8.61592 -1.33464,0.82486 -2.53826,-1.63463 -1.63029,-3.33126 0.71806,-1.34168 1.09387,-1.44742 2.48955,-0.70048 0.90411,0.48387 1.75112,0.57384 1.88232,0.19996 0.87845,-2.50399 2.32746,-4.48463 3.28102,-4.48463 1.46513,0 1.23489,4.82292 -0.37925,7.94428 -0.6408,1.2392 -1.16253,3.04057 -1.15933,4.00302 0.009,2.7571 2.75908,11.0917 4.10303,12.43565 1.38271,1.38271 1.60949,3.82116 0.42346,4.55417 z m 7.51919,-2.227 c -0.78417,0.48464 -2.0243,-0.81899 -2.24446,-2.35945 -0.0602,-0.41853 -0.22111,-1.44582 -0.35848,-2.28287 -1.14906,-7.0044 -1.18907,-7.83157 -0.40254,-8.31768 0.90427,-0.55885 2.33797,2.38218 2.75651,5.65433 0.13372,1.0463 0.42619,3.00587 0.64976,4.35457 0.22524,1.35883 0.0464,2.67463 -0.40079,2.9511 z m 3.14884,-25.56868 c -0.42887,0 -1.10856,0.86485 -1.51041,1.92189 -0.94665,2.48973 -2.51848,3.04305 -5.33304,1.87723 -2.82422,-1.16985 -2.85306,-2.19406 -0.13481,-4.7982 2.43864,-2.33636 6.54106,-2.80927 7.29631,-0.84108 0.62503,1.62892 0.58859,1.84016 -0.31795,1.84016 z M 538.1187,91.301485 c -0.50983,0.66405 -1.78308,1.662139 -2.8294,2.217949 -1.04632,0.555821 -4.64183,3.2932 -7.99005,6.083041 -7.94882,6.623245 -14.06752,10.655715 -20.1654,13.289695 -2.72042,1.17509 -5.28868,2.40395 -5.7072,2.73084 -2.45316,1.91598 -26.28077,9.85566 -29.57756,9.85566 -2.63511,0 -6.11552,-2.53506 -5.57768,-4.06271 0.18854,-0.53553 1.63029,-0.80124 3.66051,-0.67462 2.16464,0.13503 5.90513,-0.62343 10.57355,-2.1439 3.97311,-1.294 7.84013,-2.48453 8.59335,-2.64557 2.7864,-0.59577 23.08725,-10.58938 26.11792,-12.85721 3.62976,-2.71607 13.7646,-10.881795 15.64753,-12.607365 0.70517,-0.64623 1.63841,-2.11197 2.07383,-3.25721 0.97349,-2.56053 3.3224,-2.74526 4.97142,-0.39099 1.40801,2.01026 1.44735,2.84968 0.20923,4.46239 z m 9.31598,-6.91459 c -0.86485,1.40737 -5.29675,16.905095 -5.29675,18.521915 0,1.89926 -1.4233,2.24939 -5.0342,1.23839 -3.60434,-1.00915 -4.09075,-2.48849 -0.94237,-2.86621 1.74633,-0.20946 2.06174,-0.90009 3.99206,-8.740144 1.15271,-4.681961 2.44277,-8.930611 2.86671,-9.441401 2.31474,-2.78913 -3.78214,-3.07936 -7.73083,-0.36802 -1.04632,0.71845 -3.81339,2.25242 -6.14908,3.40883 -4.40457,2.18071 -6.78722,2.11852 -6.78722,-0.17709 0,-2.42213 16.57855,-10.70772 21.42495,-10.70772 3.42014,0 5.72744,5.76178 3.65673,9.1315 z M 534.48422,212.63128 c -2.36262,1.22173 -4.13247,3.7209 -4.67161,6.59666 l -0.38505,2.05377 2.36011,-1.2152 c 3.36169,-1.73085 5.05439,-3.94681 4.86939,-6.37476 -0.1538,-2.01766 -0.24024,-2.05988 -2.17284,-1.06047 z m 13.53191,22.02611 c -1.90821,1.90826 -3.41366,2.61907 -6.42388,3.03307 -6.2661,0.86181 -10.22963,-1.11528 -13.53182,-6.74996 -2.85049,-4.86402 -3.08393,-10.69711 -0.63336,-15.82653 1.05828,-2.21509 2.63507,-4.79792 3.5039,-5.73962 3.69989,-4.00987 9.68505,-0.43234 9.68505,5.78902 0,3.85594 -5.71913,9.23991 -9.81509,9.23991 -1.35982,0 -1.43592,0.24165 -0.72138,2.29124 1.29418,3.71245 5.70912,6.84028 9.65506,6.84028 3.22112,0 9.25195,-2.57146 9.25195,-3.94492 0,-0.34146 0.34243,-0.62084 0.76097,-0.62084 1.64367,0 0.63151,3.32546 -1.7314,5.68835 z"
       style="fill:#333333;fill-opacity:1;stroke-width:0.76095861"
       id="path1072" />
  </g>
</svg>
