<?xml version="1.0" encoding="UTF-8" standalone="no"?>
<svg
   xmlns:dc="http://purl.org/dc/elements/1.1/"
   xmlns:cc="http://creativecommons.org/ns#"
   xmlns:rdf="http://www.w3.org/1999/02/22-rdf-syntax-ns#"
   xmlns:svg="http://www.w3.org/2000/svg"
   xmlns="http://www.w3.org/2000/svg"
   id="svg2965"
   version="1.1"
   viewBox="0 0 263.72806 209.92274"
   height="209.92274mm"
   width="263.72806mm">
  <defs
     id="defs2959" />
  <metadata
     id="metadata2962">
    <rdf:RDF>
      <cc:Work
         rdf:about="">
        <dc:format>image/svg+xml</dc:format>
        <dc:type
           rdf:resource="http://purl.org/dc/dcmitype/StillImage" />
        <dc:title></dc:title>
      </cc:Work>
    </rdf:RDF>
  </metadata>
  <g
     transform="translate(-34.445499,30.211377)"
     id="layer1">
    <path
       d="m 58.521219,-20.912193 c -1.73386,0.615481 -0.19629,10.4194 1.6334,10.41483 0.29919,-7.41e-4 1.071,-0.94243 1.715159,-2.09264 1.094291,-1.95394 1.051261,-2.30595 -0.655439,-5.36052 -1.00465,-1.79809 -2.21654,-3.13084 -2.69312,-2.96167 z m 43.138271,82.326781 c -1.20554,9.746365 -1.724459,13.069365 -2.554809,16.360615 -0.36957,1.46485 -0.865862,3.79217 -1.10286,5.17184 -0.237011,1.37967 -0.951971,4.63278 -1.588791,7.22911 -0.63685,2.59633 -1.276371,5.40548 -1.42117,6.24253 -0.14474,0.83705 -1.328211,4.051637 -2.62981,7.143517 -1.30161,3.0919 -2.366561,6.03815 -2.366561,6.54723 0,0.50911 -1.603549,4.31435 -3.563469,8.45614 -1.95989,4.14178 -3.58689,7.87293 -3.61551,8.29147 -0.0287,0.41853 -0.99332,2.20948 -2.143741,3.9799 -1.150419,1.77042 -2.09691,3.6538 -2.103319,4.18528 -0.009,0.6643 -0.242191,0.60957 -0.749292,-0.17516 -0.606668,-0.93872 -0.739738,-0.86133 -0.749318,0.43588 -0.0403,5.45212 -18.025161,31.60602 -20.959711,30.47993 -0.51183,-0.19651 -0.88754,0.17623 -0.83493,0.82805 0.12748,1.58062 -12.345409,11.41587 -15.17621,11.9668 -1.22659,0.23875 -1.80213,0.23225 -1.27898,-0.0151 0.52317,-0.24665 0.93982,-0.84795 0.925891,-1.33622 -0.0129,-0.48829 -0.668061,-0.11735 -1.45366,0.82436 -1.601451,1.91966 -3.847741,2.28509 -3.847741,0.62593 0,-1.1414 3.476411,-4.2405 4.756771,-4.2405 1.070299,0 10.072119,-7.14578 15.270709,-12.12211 6.16916,-5.90541 13.3097,-15.95741 17.262731,-24.30148 1.262129,-2.66408 3.471788,-6.77326 4.91037,-9.1315 6.326698,-10.37143 15.62572,-36.072827 17.51997,-48.423307 0.25676,-1.67412 0.58637,-3.7287 0.732449,-4.56574 C 97.28661,62.188277 97.72749,57.686328 97.80495,46.194649 97.87875,35.265558 97.647269,32.372837 96.314229,27.551178 94.546299,21.156509 93.81443,19.375379 91.155161,14.995358 90.138759,13.321246 89.057949,11.437879 88.75339,10.810089 86.769988,6.7217283 83.18159,2.4547593 74.834629,-5.7407627 c -5.2217,-5.1269603 -9.68239,-9.3072503 -9.91263,-9.2895403 -0.84373,0.0649 -3.84293,5.4445703 -3.84293,6.8930703 0,1.83256 -1.68828,2.57983 -3.5551,1.57357 -1.41955,-0.76516 -3.13143,-5.0080403 -4.86854,-12.0667403 -1.15613,-4.69793 -0.51489,-5.90588 3.5389,-6.66638 1.83765,-0.34475 2.88263,-1.05857 3.35028,-2.28856 0.37377,-0.98315 1.12878,-2.04226 1.67775,-2.35358 0.802291,-0.45498 0.811511,-0.36497 0.047,0.45876 -0.52317,0.56363 -0.95122,1.5899 -0.95122,2.28061 0,1.00662 0.870221,1.28193 4.385412,1.38741 4.593669,0.13783 8.392469,0.66944 9.448778,1.322271 0.343221,0.212119 0.624031,1.181609 0.624031,2.154419 0,1.90682 -2.07241,2.92925 -3.88696,1.917641 -1.666581,-0.929131 -7.445181,-1.195571 -7.631551,-0.351891 -0.0925,0.41853 0.468169,0.8835 1.24587,1.03327 0.7777,0.14977 1.81257,0.66342 2.299689,1.14144 0.487151,0.47802 2.490452,2.34082 4.451782,4.13956 2.002689,1.83667 3.337859,3.63964 3.04556,4.11261 -0.286282,0.4632003 -0.191759,0.6390003 0.2101,0.3906803 1.394119,-0.8616203 14.744798,12.936762 14.93288,15.43364 0.0587,0.780171 0.45121,1.356571 0.872091,1.280901 1.346599,-0.24211 7.161789,9.4200607 8.799398,14.6205387 3.758781,11.936592 4.526131,24.00931 2.544391,40.030892 z m 62.31209,-34.86146 c -1.03668,1.63037 -4.57337,2.542159 -6.70987,1.729869 -3.23455,-1.22978 -8.74562,-7.530679 -11.06958,-12.656021 -3.46036,-7.6316887 -2.76093,-15.01747973 2.04393,-21.5835587 2.18794,-2.9899 2.91353,-3.46482 5.43421,-3.55686 3.16631,-0.11561 9.82091,2.71777 9.30926,3.96367 -0.17192,0.41853 -2.70729,0.77791 -5.63427,0.79862 -5.13477,0.0364 -5.3802,0.12433 -6.98381,2.503962 -2.1937,3.255208 -3.32731,8.70921 -2.4505,11.789507 0.63211,2.2205607 1.46214,3.7333507 5.58607,10.1809817 1.84119,2.87863 5.92752,5.152649 8.85792,4.929359 2.25437,-0.17178 2.64346,0.285621 1.61664,1.900471 z m 20.9535,-22.7761797 c -0.52315,0.419129 -2.40653,1.495308 -4.18528,2.391518 -3.38922,1.707642 -3.52272,2.037001 -3.24092,7.9968727 0.13978,2.954168 0.32552,4.236249 1.19591,8.250118 0.43307,1.99716 0.26338,2.19438 -2.0625,2.397022 -1.24781,0.10872 -3.63396,-9.043382 -3.66558,-14.059241 -0.0216,-3.4384907 0.29786,-4.5469207 1.68543,-5.8467307 2.19941,-2.060318 5.31266,-3.227171 8.61033,-3.227171 2.70177,0 3.31506,0.773761 1.66261,2.097612 z m 9.09839,77.8030447 c -1.38658,2.74232 -6.9825,5.31088 -11.57151,5.31141 -4.28869,5.3e-4 -10.18064,-2.42143 -13.507,-5.55209 -2.11068,-1.98648 -2.47675,-3.19966 -1.63075,-5.40428 0.45295,-1.18038 1.96634,-1.75392 1.67022,-0.63296 -0.93911,3.555 6.37035,8.0688 12.16672,7.51331 8.22178,-0.78798 10.33891,-3.27199 8.26408,-9.69627 -1.41968,-4.395794 -6.56922,-11.995765 -10.6021,-15.647195 -2.62028,-2.37241 -2.81769,-2.41972 -9.88461,-2.36887 -7.46151,0.0537 -8.92483,-0.28139 -8.92483,-2.043441 0,-2.059678 9.73152,-2.841979 22.06779,-1.774018 9.23708,0.799658 10.1351,0.964459 10.45305,1.918298 0.32419,0.97255 -2.29259,1.718371 -6.07752,1.732161 -1.56949,0.006 -2.85361,0.19413 -2.85361,0.41846 0,0.224451 1.65308,2.564839 3.67352,5.200909 3.89826,5.086101 7.74829,13.572226 7.72965,17.037546 -0.006,1.14654 -0.44407,2.94071 -0.9731,3.98703 z m 4.33286,-75.2720247 c -1.52247,1.263539 -3.58782,5.2782197 -3.01172,5.8542997 0.78849,0.788498 4.55638,-2.5613197 5.02097,-4.4638587 0.52452,-2.148113 -0.35933,-2.759761 -2.00925,-1.390441 z m 10.55745,19.8700387 c -3.62226,3.161271 -8.67085,3.826801 -12.38518,1.632701 -2.41633,-1.427361 -5.3256,-6.108689 -5.3256,-8.56947 0,-0.89942 -0.52356,-2.43435 -1.16345,-3.41094 -1.03174,-1.574641 -1.03595,-2.023822 -0.0373,-3.96826 0.61942,-1.20595 1.83289,-3.7665207 2.69659,-5.6901607 1.71682,-3.823669 3.901,-5.25350103 8.02511,-5.25350103 3.2478,0 4.5125,2.03077203 3.93695,6.32172103 -0.52968,3.9490997 -2.56738,6.6187187 -6.5003,8.5161497 -1.7341,0.836601 -3.15288,1.736471 -3.15288,1.999702 0,0.263239 0.52333,1.7311 1.16293,3.261908 1.42154,3.4022 3.69492,4.40151 7.67713,3.37462 4.21919,-1.087988 5.80391,-1.142098 6.13038,-0.20932 0.15725,0.44908 -0.32184,1.346761 -1.06444,1.99486 z M 221.78273,8.6036383 c -1.81748,-0.97269 -5.3001,1.8322797 -5.5748,4.4900797 -0.26573,2.570959 1.35572,5.326711 3.13415,5.326711 3.3884,0 5.43114,-8.216321 2.44065,-9.8167907 z m 10.04294,14.9532607 c -0.23029,0.523158 -0.82997,0.951198 -1.33265,0.951198 -1.1312,0 -3.51778,-3.92103 -3.54521,-5.824598 -0.0151,-1.110462 -0.2898,-0.969841 -1.30769,0.671639 -2.42819,3.91572 -8.07655,4.317421 -10.86486,0.77266 -4.16453,-5.294331 -3.30861,-11.9231587 1.85763,-14.3867707 2.1795,-1.039329 3.05311,-1.112909 4.6383,-0.39065 1.57298,0.716701 2.29641,0.664861 3.71771,-0.266419 0.97059,-0.63595 2.28822,-0.955382 2.92809,-0.70983 1.21284,0.4654 2.5525,4.649071 3.15766,9.8610287 0.19435,1.674101 0.5371,4.24234 0.76159,5.707182 0.22446,1.464849 0.21972,3.091399 -0.0108,3.61456 z m 4.20562,57.849734 c -0.87809,2.31389 -2.65876,2.88298 -5.03747,1.60991 -2.05286,-1.09865 -4.5133,-4.57876 -7.64414,-10.81215 -1.02488,-2.04049 -2.11887,-3.419585 -2.43108,-3.064615 -0.31221,0.354939 -0.99343,3.128885 -1.51384,6.164285 -0.52041,3.03542 -1.17175,5.37967 -1.44744,5.20949 -0.2757,-0.17019 -0.55111,0.52123 -0.61202,1.53646 -0.25024,4.17018 -4.75649,5.57679 -7.6361,2.38358 -3.84678,-4.26567 -6.06524,-10.54916 -7.05249,-19.975175 -0.59943,-5.723141 0.21376,-7.87881 2.62344,-6.954149 0.86966,0.333719 1.20687,1.248179 1.09069,2.95766 -0.0925,1.361009 0.0718,3.501859 0.36499,4.75746 1.80274,7.718854 2.32478,9.450894 3.72695,12.365584 1.52747,3.17504 2.33539,3.85345 3.1054,2.60754 0.63322,-1.02456 2.63835,-11.254244 3.20237,-16.337855 0.83389,-7.515519 2.91057,-7.873519 6.42932,-1.10839 9.29013,17.861265 8.96551,17.683515 8.91665,4.882171 -0.0321,-8.409141 0.19673,-10.69449 1.2284,-12.26901 0.69729,-1.064202 1.85916,-1.929672 2.58192,-1.923261 1.12669,0.0108 1.15133,0.116911 0.17278,0.74931 -0.62779,0.40572 -0.79526,0.74291 -0.37215,0.749319 0.96318,0.01511 1.23862,24.008656 0.30388,26.471836 z m 20.16602,-57.717884 c -4.20973,5.00299 -11.0226,1.650899 -12.01542,-5.911872 -0.25572,-1.947949 -0.66032,-10.0479187 -0.8991,-17.99993973 -0.23877,-7.95201997 -0.72725,-15.78449027 -1.08549,-17.40550027 -0.79304,-3.58833 -0.32231,-5.04278 1.63208,-5.04278 2.75438,0 3.74209,4.33267 3.73206,16.3709203 -0.004,6.02660997 0.24202,11.112712 0.54899,11.302421 0.30695,0.189719 2.00843,0.0797 3.78103,-0.244412 2.1943,-0.401248 3.63137,-0.29069 4.50264,0.346401 1.11489,0.815231 0.67442,1.207381 -3.41976,3.04474 -4.56365,2.0480497 -4.69945,2.1925197 -4.69945,4.9993707 0,3.74093 1.07626,6.50218 2.91865,7.488211 1.17486,0.628769 1.87946,0.406649 3.51334,-1.10758 3.66342,-3.395142 4.91298,0.0925 1.49043,4.16002 z m 15.45361,32.6889 c -0.47062,0.470638 -2.84089,1.265748 -5.26723,1.766898 -4.94309,1.020972 -4.69115,0.49245 -4.46097,9.357701 0.21737,8.372805 0.1044,13.888815 -0.33555,16.386175 -0.22308,1.26615 -0.0699,2.92956 0.34069,3.6965 1.11711,2.08734 -0.89032,4.57349 -2.76473,3.42406 -1.23675,-0.75838 -1.38166,-2.15112 -1.42952,-13.73851 -0.0293,-7.09204 -0.30195,-13.296975 -0.60592,-13.788785 -0.30395,-0.49181 -0.18054,-1.589469 0.27423,-2.43921 0.7915,-1.47896 0.65473,-1.530339 -3.19888,-1.201719 -5.77546,0.492498 -11.07261,-0.27791 -11.61413,-1.689161 -0.81772,-2.13088 0.96991,-2.699869 10.42115,-3.31693 5.13841,-0.335489 11.45201,-0.77469 14.03022,-0.976001 3.47077,-0.27102 4.78871,-0.102679 5.077,0.648621 0.21419,0.558049 0.004,1.399731 -0.46636,1.870361 z M 269.90928,5.7167993 c -1.68795,1.948629 -2.37187,3.572129 -1.5048,3.572129 1.28217,0 4.19979,-1.947141 4.43478,-2.95963 0.56938,-2.45338 -1.04334,-2.79051 -2.92998,-0.612499 z m 11.65755,18.1661477 c -4.66015,2.58658 -9.19364,3.65968 -12.12559,2.8702 -3.66849,-0.987829 -5.04199,-3.088499 -6.01033,-9.192389 -0.54248,-3.419391 -1.24192,-5.211159 -2.37411,-6.081832 -1.91393,-1.471797 -1.38209,-3.7119187 0.88126,-3.7119187 1.02093,0 1.89063,-0.849788 2.59502,-2.535589 2.28265,-5.46318003 9.57945,-7.93451 12.23462,-4.143722 3.11184,4.442791 -1.26107,11.9221117 -7.00473,11.9807007 l -2.4821,0.02529 0.4938,3.234081 c 0.98605,6.457969 1.67128,6.78312 11.50929,5.461259 4.32568,-0.581199 5.37254,0.379 2.28287,2.0939 z m 14.90242,3.54175 c -3.0904,3.948822 -12.5016,6.004142 -16.06477,3.508401 -2.599,-1.820399 -2.06861,-2.374619 2.68514,-2.80567 5.77957,-0.524071 10.08183,-2.33738 10.08183,-4.24927 0,-0.807701 -1.21222,-3.479022 -2.69385,-5.93626 -1.48161,-2.457241 -2.90052,-5.286261 -3.15313,-6.28672 -0.63223,-2.5037807 0.52071,-5.3522207 2.87599,-7.1054507 1.71032,-1.27313 2.39003,-1.358659 5.06757,-0.63768 2.26456,0.60978 3.03749,1.18624 2.88754,2.15357 -0.15121,0.974641 -0.79971,1.262499 -2.47425,1.09809 -2.42933,-0.238519 -4.04705,1.072121 -4.22408,3.4222607 -0.0587,0.780259 1.17572,3.35094 2.74331,5.712619 4.14844,6.249871 4.54868,8.21282 2.2687,11.12611 z"
       style="fill:#333333;fill-opacity:1;stroke-width:0.76095861"
       id="path998" />
  </g>
</svg>
