<?xml version="1.0" encoding="UTF-8" standalone="no"?>
<svg
   xmlns:dc="http://purl.org/dc/elements/1.1/"
   xmlns:cc="http://creativecommons.org/ns#"
   xmlns:rdf="http://www.w3.org/1999/02/22-rdf-syntax-ns#"
   xmlns:svg="http://www.w3.org/2000/svg"
   xmlns="http://www.w3.org/2000/svg"
   id="svg3550"
   version="1.1"
   viewBox="0 0 170.04822 332.13956"
   height="332.13956mm"
   width="170.04822mm">
  <defs
     id="defs3544" />
  <metadata
     id="metadata3547">
    <rdf:RDF>
      <cc:Work
         rdf:about="">
        <dc:format>image/svg+xml</dc:format>
        <dc:type
           rdf:resource="http://purl.org/dc/dcmitype/StillImage" />
        <dc:title></dc:title>
      </cc:Work>
    </rdf:RDF>
  </metadata>
  <g
     transform="translate(349.60744,365.73049)"
     id="layer1">
    <path
       d="m -307.36862,-327.62069 c -0.89845,2.96603 -7.43692,9.58118 -11.38682,11.52036 -4.08666,2.00629 -6.48562,2.3506 -9.42826,1.35312 -1.45573,-0.49345 -2.57919,-0.45106 -3.51375,0.13266 -2.48332,1.55085 -3.59183,0.12359 -6.11687,-7.87606 -2.06451,-6.54057 -5.20116,-14.01434 -9.32736,-22.22447 -0.46613,-0.92751 -0.43071,-1.70504 0.10203,-2.2377 1.28519,-1.28519 5.14191,3.55669 8.49321,10.6628 1.61927,3.43351 3.18376,7.20025 3.47662,8.37054 1.81114,7.23722 4.69861,10.29438 9.07845,9.61206 4.9261,-0.76743 5.69176,-1.15643 9.11892,-4.63301 5.44718,-5.52571 6.88513,-10.08414 4.58447,-14.53314 -1.54072,-2.9794 -7.07691,-7.87857 -11.09234,-9.81601 -3.53929,-1.70771 -15.52488,-3.98577 -20.99865,-3.99116 -3.5554,-0.004 -6.45508,-2.21626 -4.70291,-3.58884 2.02239,-1.58422 4.92101,-1.62837 12.33951,-0.18788 4.21019,0.81746 8.24555,1.48733 8.96749,1.48858 2.60013,0.004 11.45291,4.68071 14.81433,7.82511 1.888,1.7661 4.08266,4.48159 4.87702,6.03438 1.49369,2.91985 1.8202,8.44023 0.715,12.08885 z m 22.64607,64.90533 c -2.92744,7.96859 -12.68286,11.29363 -26.35188,8.98182 -8.08576,-1.36751 -11.54502,-3.56953 -11.54502,-7.34907 0,-1.52378 0.6032,-3.00097 1.59011,-3.89412 1.58955,-1.43852 1.58992,-1.43809 1.08327,1.26255 -0.66747,3.55796 0.0906,4.10699 8.39511,6.07929 5.96516,1.41673 7.28588,1.49798 11.12048,0.68422 2.39325,-0.50788 5.42026,-1.57344 6.72665,-2.3679 2.4108,-1.46611 4.56656,-5.3789 4.56656,-8.28851 0,-2.37824 -4.04313,-7.82241 -11.37448,-15.31606 l -6.52818,-6.67268 -4.55569,1.19387 c -4.79749,1.25719 -12.44621,1.66028 -13.94363,0.73482 -0.48676,-0.30083 -0.88499,-1.17217 -0.88499,-1.93628 0,-1.12626 0.82854,-1.48372 4.3755,-1.88787 9.17005,-1.04481 10.95229,-1.41606 12.04531,-2.50908 0.69608,-0.69608 1.82145,-0.95175 2.9465,-0.66937 2.05563,0.51592 9.56882,-1.23524 14.65676,-3.41618 1.86399,-0.799 4.21677,-1.45273 5.2284,-1.45273 2.32623,0 2.44542,1.98793 0.16264,2.71246 -0.92218,0.29269 -2.1366,0.99209 -2.69875,1.55422 -0.56212,0.56215 -2.72068,1.52652 -4.79677,2.14305 -7.4753,2.21993 -7.47541,2.23738 -0.0617,10.02128 8.71469,9.14992 11.70117,15.33659 9.84387,20.39227 z m -6.39852,-71.38467 c -0.25405,-0.66202 -0.94394,-1.20368 -1.53312,-1.20368 -1.27063,0 -4.08575,4.35603 -4.0898,6.32846 -0.004,2.14909 3.9049,1.38193 5.10476,-1.00174 1.1052,-2.19561 1.14285,-2.49512 0.51816,-4.12304 z m 9.7196,18.12278 c -1.08873,0.67287 -5.69629,1.38302 -8.90324,1.37223 -5.13339,-0.0173 -10.24693,-3.8071 -10.24693,-7.59443 0,-0.7997 -0.68486,-2.07378 -1.52192,-2.83132 -1.77575,-1.60702 -1.96024,-2.66335 -0.46517,-2.66335 0.59927,0 1.26683,-1.11981 1.54203,-2.58675 0.62257,-3.31855 2.31311,-6.69442 4.21377,-8.41449 1.0955,-0.99143 2.17577,-1.22758 4.02689,-0.8803 4.03124,0.75627 5.64335,2.32105 6.13436,5.95428 0.67399,4.98709 -3.36435,11.24971 -6.51062,10.09664 -1.44086,-0.52804 -2.96305,0.74759 -2.45912,2.06085 0.61012,1.58996 5.37282,2.90127 10.53748,2.90127 3.22552,0 4.28722,0.27155 4.28722,1.09653 0,0.60309 -0.28563,1.27307 -0.63475,1.48884 z m 16.37552,-2.01682 c -4.61666,3.14289 -9.51359,2.32686 -12.84955,-2.1413 -2.03996,-2.73231 -2.18407,-11.47696 -0.25464,-15.45218 2.59931,-5.35537 9.91825,-6.59414 11.82092,-2.00075 1.31716,3.17994 0.26301,4.31821 -2.01617,2.17706 -1.43215,-1.34543 -2.14406,-1.56241 -3.1156,-0.94959 -4.08731,2.57821 -5.69078,10.09502 -2.83066,13.26966 2.36159,2.62129 4.61096,3.15589 7.75363,1.84281 2.20767,-0.92242 2.88483,-0.95959 3.37627,-0.18529 0.91647,1.44406 0.83882,1.5858 -1.8842,3.43954 z m 21.45376,63.04302 c -2.53906,1.93798 -4.2873,1.0092 -9.18626,-4.88038 -2.67381,-3.2145 -5.26814,-6.78624 -5.76514,-7.93719 -1.36528,-3.16165 -2.44681,-2.51752 -2.55533,1.52192 -0.14883,5.53646 -0.35442,6.77008 -1.72866,10.36845 -1.74181,4.56086 -3.5524,6.07869 -6.48328,5.43496 -5.67935,-1.2474 -10.16733,-13.471 -11.46,-31.21282 -0.56957,-7.81729 -0.49843,-9.2609 0.49433,-10.03045 2.27562,-1.76399 3.29461,-0.34299 3.29461,4.59447 0,7.59251 2.93458,22.3538 5.42999,27.31355 1.21082,2.40653 2.54747,4.37551 2.97034,4.37551 0.90171,0 2.2358,-3.2216 2.67849,-6.46815 0.17127,-1.25557 0.34895,-6.63369 0.395,-11.95135 0.0632,-7.29848 0.34595,-9.8861 1.15355,-10.55634 1.69231,-1.40449 2.92032,0.14841 7.48552,9.46599 2.28407,4.66177 5.33097,9.92958 6.77091,11.70621 2.35886,2.91046 2.6591,3.07334 3.03257,1.64516 0.61657,-2.35777 -0.69071,-13.47059 -2.1912,-18.62666 -1.50753,-5.18033 -1.85969,-12.79091 -0.64817,-14.00734 1.65485,-1.66153 3.15346,-0.002 3.63096,4.02176 0.25799,2.17355 1.00288,5.83524 1.65534,8.13716 1.68515,5.94528 2.44525,26.0026 1.02643,27.08554 z m 0.84149,-78.29255 c -1.73757,-2.20897 -6.09832,-3.91894 -8.25133,-3.23559 -0.80661,0.256 -2.02362,1.98865 -2.77047,3.94425 -2.49375,6.52977 0.73249,11.92651 6.80412,11.38168 2.45136,-0.21997 3.18355,-0.70002 4.31969,-2.83214 1.81604,-3.40805 1.7779,-6.86827 -0.10203,-9.2582 z m 4.56287,9.73476 c -1.67025,4.33634 -5.4107,7.95638 -7.85683,7.60394 -7.53237,-1.0853 -11.84056,-6.01023 -11.88633,-13.588 -0.0319,-5.28561 2.18571,-9.94376 5.23173,-10.9891 4.61899,-1.58515 11.5602,1.48338 14.30047,6.32189 2.08578,3.6829 2.12536,5.68109 0.21096,10.65127 z m 13.28155,-12.55581 c -3.96533,0 -6.8878,4.60413 -5.68335,8.95371 1.01541,3.66701 1.55942,4.40325 3.64252,4.92974 2.47101,0.62455 3.18229,-1.14554 3.20915,-7.98604 0.0194,-4.85474 -0.18745,-5.89741 -1.16832,-5.89741 z m 10.41036,15.86474 c -1.09232,1.72366 -3.48658,0.7007 -3.7525,-1.60329 -0.2419,-2.09581 -1.66162,-2.99066 -1.66162,-1.04731 0,0.57136 -0.70971,1.94109 -1.57715,3.04383 -2.29857,2.92216 -5.80246,2.73652 -8.83568,-0.4681 -3.35168,-3.54107 -4.04539,-5.25709 -4.04539,-10.0073 0,-3.8043 0.25906,-4.46899 2.68872,-6.89865 2.43151,-2.43151 4.1933,-3.11695 7.0408,-2.73926 0.76571,0.1016 0.95803,-2.54898 0.88441,-12.18924 -0.0984,-12.88062 0.0751,-13.59365 3.3124,-13.62117 2.79936,-0.0237 3.95096,4.77005 4.0188,16.72944 0.0718,12.68089 0.92908,23.40733 1.91938,24.01937 0.86036,0.53174 0.86511,3.42893 0.009,4.78168 z m 5.28932,29.00503 c -0.80954,0.43327 -3.16769,0.78773 -5.24033,0.78773 -3.66707,0 -3.77818,0.0662 -4.13014,2.46434 -0.19888,1.35539 -0.0848,3.43019 0.25386,4.61065 0.7615,2.6552 1.07857,28.21649 0.36433,29.37215 -0.79313,1.28331 -3.09103,1.00134 -4.49656,-0.55175 -1.3545,-1.49669 -1.70245,-2.77684 -0.56343,-2.07288 1.48597,0.91838 1.52812,-1.11252 0.46125,-22.22136 -0.19565,-3.87328 -0.0444,-7.86164 0.33628,-8.86303 0.38072,-1.00137 0.5412,-1.97167 0.35662,-2.15625 -0.18464,-0.18465 -2.4389,-0.0173 -5.00963,0.37183 -5.57271,0.84345 -11.21212,0.15725 -11.82453,-1.4386 -0.72179,-1.8809 0.97264,-2.78266 5.62754,-2.99487 2.42567,-0.11065 6.10971,-0.58917 8.1868,-1.06351 2.07709,-0.47436 5.01147,-0.65382 6.52084,-0.39882 1.61184,0.27231 4.03776,0.0173 5.87869,-0.61624 2.21115,-0.76179 3.3724,-0.8419 3.94235,-0.27194 1.30687,1.30687 0.92712,4.19106 -0.66394,5.04255 z m -1.14414,248.097896 c -3.16497,3.38434 -5.75451,6.619 -5.75451,7.1882 0,1.09289 -4.12132,2.89642 -4.88153,2.13622 -0.95005,-0.95004 -0.37933,-3.95785 0.88651,-4.67207 2.25118,-1.27021 0.19888,-2.24147 -5.89744,-2.79117 -3.13895,-0.28302 -6.22084,-0.50842 -6.84862,-0.50088 -1.79424,0.0217 -16.18539,-3.62969 -17.07942,-4.33329 -0.4417,-0.34764 -2.09592,-1.04855 -3.67605,-1.5576 -1.5801,-0.50904 -3.84886,-1.7467 -5.04169,-2.7504 -1.1928,-1.0037 -4.11167,-3.13095 -6.48635,-4.72723 -6.64383,-4.46606 -11.65967,-11.57907 -15.35448,-21.77436 -2.56111,-7.0671 -4.36863,-29.551306 -3.30967,-41.170436 0.62703,-6.88025 6.27975,-38.34604 9.50087,-52.88663 0.60264,-2.72043 1.44604,-7.34324 1.87424,-10.27294 0.42819,-2.92968 1.29888,-8.91226 1.93488,-13.29456 1.71501,-11.81721 4.52497,-23.61193 5.62533,-23.61193 0.90997,0 1.754,2.44663 1.02904,2.983 -0.32807,0.24271 -0.60255,2.32469 -0.60997,4.62659 -0.0151,4.5433 -2.78486,25.81419 -4.55873,35.0041 -0.60589,3.13894 -1.27682,6.73448 -1.49093,7.99005 -0.44271,2.59597 -0.7197,3.92648 -1.82181,8.75104 -0.43022,1.88336 -0.98534,4.62281 -1.23355,6.08766 -0.49571,2.92524 -2.78536,15.64626 -4.69203,26.06845 -1.98358,10.84257 -1.6445,34.044966 0.62541,42.795316 0.43387,1.67249 0.89343,3.55587 1.02128,4.18529 0.49799,2.45168 3.64633,8.94466 6.2128,12.81295 1.62642,2.45144 4.66263,5.4652 7.66628,7.6096 2.73531,1.95284 5.3685,3.93425 5.85151,4.40312 2.01816,1.95913 8.83514,4.83552 16.02296,6.76084 6.47261,1.73374 20.69694,2.88549 21.4089,1.7335 0.73888,-1.19552 2.62647,-0.55224 3.23909,1.10384 l 0.62876,1.69966 0.53315,-1.67982 c 0.29323,-0.92389 1.4092,-2.36892 2.47994,-3.21116 1.39427,-1.09673 1.65148,-1.63487 0.90622,-1.89609 -6.16724,-2.16175 -9.82727,-3.66392 -10.13325,-4.15901 -0.20384,-0.32975 0.0846,-1.22193 0.64071,-1.98255 0.97237,-1.32982 1.22746,-1.31649 6.634,0.34692 3.09251,0.95147 6.47884,1.97782 7.52514,2.28076 1.3045,0.37772 1.97706,1.17957 2.13996,2.5513 0.18983,1.59785 -0.92052,3.23874 -5.51695,8.15372 z m 9.14986,-291.391256 c -1.2842,-1.06579 -3.5674,1.02389 -5.06253,4.63352 -1.20717,2.91432 -0.16911,4.09673 2.52068,2.87118 3.15645,-1.43817 4.62549,-5.77543 2.54185,-7.5047 z m 18.58359,22.97326 c -4.81369,4.12032 -11.65252,5.56578 -15.05561,3.18216 -0.93019,-0.65151 -1.69126,-1.67881 -1.69126,-2.28287 0,-0.717 -0.80568,-1.0983 -2.32066,-1.0983 -6.43318,0 -9.49233,-4.33608 -9.41756,-13.34868 0.0667,-8.04374 2.29676,-12.46017 7.14509,-14.1503 1.87605,-0.65399 2.75828,-0.53557 4.77866,0.64142 2.32912,1.35687 2.49154,1.73051 2.70606,6.22503 0.22028,4.61483 0.13395,4.87046 -2.47644,7.33236 -1.67426,1.57903 -3.64559,2.64157 -5.17446,2.78902 -3.57147,0.34446 -3.85121,3.10583 -0.49073,4.84361 2.38121,1.23137 4.28981,1.20978 10.00603,-0.11324 2.80729,-0.64973 2.67955,0.58937 -0.35291,3.42345 -1.34507,1.25708 -2.21963,2.51153 -1.94348,2.78768 0.75859,0.75859 7.6059,-1.07865 10.43713,-2.80043 2.14279,-1.3031 2.43365,-1.82998 2.05509,-3.7227 -0.24252,-1.21263 -2.16495,-4.34425 -4.27208,-6.95915 -4.00965,-4.97595 -4.70472,-7.53028 -2.76926,-10.17715 1.9947,-2.72791 8.83061,-1.33795 8.83061,1.79555 0,0.79588 -0.65797,0.93357 -2.66335,0.55736 -2.43546,-0.45689 -2.66335,-0.34526 -2.66335,1.30458 0,0.99233 0.87533,2.62655 1.94516,3.63161 3.35598,3.1528 6.42539,8.43848 6.42539,11.0649 0,1.94354 -0.65102,3.03084 -3.03807,5.07406 z"
       style="fill:#333333;fill-opacity:1;stroke-width:0.76095861"
       id="path1038" />
  </g>
</svg>
