<?xml version="1.0" encoding="UTF-8" standalone="no"?>
<!-- Created with Inkscape (http://www.inkscape.org/) -->

<svg
   xmlns:dc="http://purl.org/dc/elements/1.1/"
   xmlns:cc="http://creativecommons.org/ns#"
   xmlns:rdf="http://www.w3.org/1999/02/22-rdf-syntax-ns#"
   xmlns:svg="http://www.w3.org/2000/svg"
   xmlns="http://www.w3.org/2000/svg"
   xmlns:sodipodi="http://sodipodi.sourceforge.net/DTD/sodipodi-0.dtd"
   xmlns:inkscape="http://www.inkscape.org/namespaces/inkscape"
   width="314.03433mm"
   height="47.150265mm"
   viewBox="0 0 314.03433 47.150265"
   version="1.1"
   id="svg1428"
   inkscape:version="0.92.4 (5da689c313, 2019-01-14)"
   sodipodi:docname="header.svg">
  <defs
     id="defs1422" />
  <sodipodi:namedview
     id="base"
     pagecolor="#ffffff"
     bordercolor="#666666"
     borderopacity="1.0"
     inkscape:pageopacity="0.0"
     inkscape:pageshadow="2"
     inkscape:zoom="0.35"
     inkscape:cx="1767.7364"
     inkscape:cy="-916.61143"
     inkscape:document-units="mm"
     inkscape:current-layer="layer1"
     showgrid="false"
     inkscape:window-width="2560"
     inkscape:window-height="1376"
     inkscape:window-x="0"
     inkscape:window-y="27"
     inkscape:window-maximized="1"
     fit-margin-top="0"
     fit-margin-left="0"
     fit-margin-right="0"
     fit-margin-bottom="0" />
  <metadata
     id="metadata1425">
    <rdf:RDF>
      <cc:Work
         rdf:about="">
        <dc:format>image/svg+xml</dc:format>
        <dc:type
           rdf:resource="http://purl.org/dc/dcmitype/StillImage" />
        <dc:title />
      </cc:Work>
    </rdf:RDF>
  </metadata>
  <g
     inkscape:label="Layer 1"
     inkscape:groupmode="layer"
     id="layer1"
     transform="translate(500.21955,140.83704)">
    <path
       id="path1133-9"
       style="fill:#ffffff;fill-opacity:1;stroke-width:0.4599112"
       d="m -282.65262,-103.61787 c 0.3162,0.10795 3.1619,0.1112 6.32379,0.007 5.26261,-0.17306 7.6689,-0.5132 18.6264,-2.63293 6.05282,-1.17094 11.42448,-2.17911 12.64756,-2.37377 1.30743,-0.20809 6.5809,-1.2876 11.10366,-2.27302 1.68037,-0.3661 3.48557,-0.66566 4.01154,-0.66566 1.14485,0 15.07548,-3.49275 16.38871,-4.10907 0.50591,-0.23741 2.36855,-1.06653 4.13919,-1.84249 1.77068,-0.77593 3.52984,-1.6052 3.90925,-1.84281 0.37944,-0.23761 2.17776,-1.16323 3.99629,-2.05695 1.81851,-0.89371 3.68115,-2.00057 4.1392,-2.45969 0.45802,-0.45912 2.25816,-2.17139 4.00034,-3.80504 l 3.16756,-2.97027 -0.31329,1.83965 c -0.77158,4.53096 -5.29754,11.16473 -7.26604,10.64995 -1.37824,-0.3604 -1.32866,0.41284 0.0939,1.46456 2.27391,1.68118 3.3614,1.34111 5.4374,-1.70025 4.19645,-6.14779 6.93288,-15.69965 5.80832,-20.27481 -0.59367,-2.41519 -1.16972,-2.73656 -2.44724,-1.3653 -0.78031,0.83756 -1.51773,1.02989 -4.29508,1.12023 -5.31546,0.1729 -6.76114,0.58834 -7.76494,2.23136 -0.79233,1.29686 -0.80685,1.48741 -0.15045,1.97299 0.56804,0.42021 1.29556,0.34154 3.33431,-0.36049 2.84221,-0.97868 6.97667,-1.02692 6.97682,-0.0814 1.6e-4,1.09412 -4.76795,5.29827 -10.98166,9.68273 -1.16914,0.82496 -2.53698,1.8137 -3.03964,2.19719 -0.50265,0.38348 -3.00162,1.72701 -5.55326,2.9856 -4.61986,2.27877 -10.89258,4.06029 -20.20766,5.73923 -2.02361,0.36474 -5.02454,0.96748 -6.66871,1.33943 -1.64419,0.37196 -5.36947,1.10662 -8.27841,1.63261 -2.90893,0.52597 -6.11681,1.15599 -7.12862,1.40002 -1.01181,0.24404 -2.66749,0.5263 -3.67929,0.62723 -1.0118,0.10094 -3.18488,0.50699 -4.82907,0.90231 -5.15861,1.24037 -15.371,2.39646 -20.07088,2.2721 -0.61242,-0.0162 -1.17741,0.39716 -1.49471,1.0936 -0.63573,1.39525 -0.63487,1.41702 0.0648,1.65588 z m -121.09952,0.52234 c -0.3162,0.10796 -3.1619,0.11122 -6.32379,0.007 -5.26261,-0.17305 -7.6689,-0.51319 -18.6264,-2.63293 -6.05282,-1.17093 -11.42448,-2.17912 -12.64756,-2.37377 -1.30743,-0.20809 -6.5809,-1.2876 -11.10367,-2.27301 -1.68037,-0.3661 -3.48556,-0.66566 -4.01152,-0.66566 -1.14486,0 -15.07549,-3.49276 -16.38873,-4.10907 -0.5059,-0.23743 -2.36854,-1.06655 -4.1392,-1.8425 -1.77066,-0.77594 -3.52982,-1.60521 -3.90925,-1.84282 -0.37942,-0.2376 -2.17775,-1.16323 -3.99627,-2.05694 -1.81853,-0.89371 -3.68117,-2.00058 -4.13921,-2.4597 -0.45803,-0.4591 -2.25817,-2.17136 -4.00034,-3.80501 l -3.16755,-2.97027 0.31327,1.83965 c 0.77159,4.53096 5.29754,11.16473 7.26605,10.64995 1.37823,-0.36041 1.32867,0.41282 -0.0939,1.46455 -2.2739,1.68118 -3.36141,1.34112 -5.43741,-1.70024 -4.19645,-6.14779 -6.93286,-15.69966 -5.8083,-20.27481 0.59366,-2.41519 1.16971,-2.73657 2.44723,-1.36531 0.78031,0.83757 1.51772,1.0299 4.29509,1.12024 5.31545,0.1729 6.76114,0.58833 7.76494,2.23136 0.79232,1.29685 0.80685,1.48741 0.15045,1.97297 -0.56804,0.42021 -1.29556,0.34156 -3.33433,-0.36047 -2.8422,-0.97869 -6.97666,-1.02693 -6.97681,-0.0814 -1.7e-4,1.09412 4.76795,5.29827 10.98166,9.68272 1.16914,0.82497 2.53698,1.81371 3.03964,2.19719 0.50266,0.38349 3.00162,1.72701 5.55326,2.98561 4.61987,2.27876 10.89259,4.06029 20.20767,5.73923 2.0236,0.36472 5.02453,0.96747 6.66871,1.33942 1.64419,0.37195 5.36947,1.10663 8.27841,1.6326 2.90894,0.52597 6.11682,1.15599 7.12862,1.40003 1.01181,0.24404 2.66749,0.52629 3.67929,0.62722 1.0118,0.10095 3.18488,0.50699 4.82907,0.90233 5.15861,1.24037 15.371,2.39645 20.07089,2.27208 0.61241,-0.0162 1.1774,0.39718 1.4947,1.0936 0.63573,1.39526 0.63487,1.41704 -0.0648,1.6559 z m 33.37833,7.583886 c -1.78638,2.560865 -3.33083,0.1143 -3.21698,-5.096026 0.0527,-2.41197 -0.10625,-3.67458 -0.49291,-3.91355 -0.3139,-0.19401 -1.83814,-0.14315 -3.38721,0.11303 l -2.81649,0.46581 0.27643,4.915966 c 0.29353,5.219874 0.11864,5.69949 -1.88683,5.175043 -0.81215,-0.212381 -0.89282,-0.742743 -0.97975,-6.440959 -0.0522,-3.41524 -0.28167,-7.69484 -0.51018,-9.51023 -0.22851,-1.81538 -0.37703,-3.61112 -0.33004,-3.99055 0.0469,-0.37944 -0.20373,-2.91615 -0.55713,-5.63717 -0.60272,-4.64051 -0.59113,-5.00414 0.18692,-5.86387 1.23168,-1.36099 1.46852,-1.15677 1.73722,1.49797 0.75767,7.48535 1.74872,15.83199 1.94255,16.36015 0.16794,0.45758 0.87843,0.53367 2.86936,0.30726 4.35441,-0.4952 4.16444,-0.31422 3.99185,-3.80326 -0.25505,-5.15626 -0.66618,-8.95742 -1.21422,-11.22626 -0.41058,-1.69977 -0.39469,-2.30842 0.0751,-2.87444 0.89763,-1.08157 1.8294,-0.86637 2.36698,0.54668 0.72333,1.90128 1.77561,14.01206 1.71002,19.68075 -0.0395,3.41351 0.11029,5.047715 0.47384,5.168886 0.76389,0.25463 0.61049,2.9077 -0.2385,4.12477 z m 8.16954,-11.842726 c -0.61428,0 -2.80034,2.72025 -2.80034,3.48464 0,0.79258 0.44733,0.81318 1.41312,0.0651 1.39035,-1.07704 2.35667,-3.54969 1.38722,-3.54969 z m 3.06102,13.352465 c -2.95813,0.662001 -5.65148,0.06735 -7.2103,-1.591929 -1.99102,-2.11935 -2.12805,-7.132436 -0.31365,-11.474896 1.17641,-2.81557 5.28758,-4.01922 7.19907,-2.10773 0.75172,0.75171 0.87636,1.27549 0.62933,2.6445 -0.16942,0.9389 -0.48425,2.04911 -0.6996,2.46712 -0.45564,0.88437 -3.48783,3.32259 -4.66137,3.74826 -1.96015,0.710985 0.0587,3.538505 2.5295,3.542746 2.24138,0.004 4.94406,0.876171 4.94406,1.595761 0,0.39121 -0.92857,0.843063 -2.41704,1.176168 z m 10.47323,-9.376595 c -0.37516,-0.14396 -0.5727,-0.54687 -0.43898,-0.89535 0.13374,-0.34847 -0.0587,-0.88403 -0.42748,-1.19014 -0.52847,-0.4386 -1.0145,-0.41287 -2.29309,0.12135 -1.30201,0.54403 -1.68331,1.00216 -1.93044,2.31951 -0.38215,2.03699 -0.0478,3.440485 1.19638,5.022225 1.19732,1.52214 1.57995,1.526881 2.96099,0.0367 1.57085,-1.694968 2.13222,-4.953965 0.93262,-5.414295 z m 5.45711,6.804535 c -0.8278,0.207762 -1.47847,0.0536 -2.08292,-0.493389 -0.8353,-0.755931 -0.91086,-0.75133 -1.51822,0.0926 -1.7965,2.496328 -2.00471,2.651165 -3.56511,2.651165 -6.08974,0 -8.29942,-12.191471 -2.40994,-13.296351 2.23748,-0.41975 4.65997,0.13836 5.4411,1.25358 0.36647,0.52322 0.88663,0.81516 1.15591,0.64874 0.64324,-0.39755 2.33899,2.41171 2.34339,3.88214 0.001,0.63238 0.41659,1.82742 0.92154,2.655614 1.19143,1.95412 1.15975,2.243051 -0.28575,2.60585 z m 7.2165,-10.780425 c -1.40355,0 -2.01878,0.27017 -2.75947,1.21181 -1.81601,2.30869 -0.87862,7.066596 1.39226,7.066596 1.13392,0 1.70863,-0.930496 2.43875,-3.948506 1.02562,-4.23941 1.00324,-4.3299 -1.07154,-4.3299 z m 8.08662,11.932135 c -0.66765,0.667642 -1.92608,0.608902 -2.5294,-0.118049 -0.27548,-0.33193 -0.64325,-2.62908 -0.81728,-5.104756 -0.31285,-4.45063 -0.7403,-4.94061 -1.2867,-1.47489 -0.44443,2.818835 -1.64752,4.898746 -3.28542,5.679806 -1.40251,0.668811 -1.59211,0.65164 -3.10068,-0.280699 -1.77625,-1.09778 -3.09226,-3.753527 -3.19983,-6.457357 -0.15734,-3.95478 3.63381,-7.72074 6.63284,-6.58874 0.71835,0.27115 1.30768,0.35576 1.30961,0.18802 10e-4,-0.16774 0.20773,-2.06415 0.45739,-4.21423 0.24964,-2.15008 0.47286,-6.95136 0.49604,-10.6695 0.046,-7.38701 0.38169,-8.45074 2.18632,-6.92903 1.40661,1.18611 2.30511,8.67793 2.55188,21.27782 0.11147,5.6914 0.39797,11.216086 0.63667,12.277065 0.29264,1.300692 0.27589,2.087211 -0.0515,2.414532 z m 10.55736,-11.472215 c -1.04691,0 -2.51897,1.51591 -2.85789,2.94304 -0.36623,1.54217 0.15437,1.40291 2.20576,-0.59007 1.36041,-1.32167 1.64624,-2.35297 0.65213,-2.35297 z m 6.33097,8.280745 c -1.2105,1.339871 -2.35186,2.043872 -4.171,2.57271 -3.00378,0.873231 -4.49369,0.579041 -6.22094,-1.228378 -0.70783,-0.74068 -1.66458,-1.346682 -2.12614,-1.346682 -1.28023,0 -1.48975,-0.472519 -0.79331,-1.789195 0.34917,-0.66012 0.90268,-2.42568 1.23001,-3.92344 0.64137,-2.93465 2.1745,-4.79731 4.47384,-5.4354 1.73028,-0.48019 4.15878,0.0655 4.68741,1.05328 1.16415,2.17524 0.0873,4.46052 -3.37137,7.15519 -1.18801,0.92559 -2.16002,1.866585 -2.16002,2.091126 0,0.224539 0.47749,0.625811 1.06109,0.89172 0.84886,0.38676 1.59832,0.24588 3.74694,-0.704339 1.47721,-0.653291 2.9359,-1.529797 3.24155,-1.947787 0.57525,-0.7867 2.06846,-0.5748 2.06846,0.29353 0,0.26016 -0.74993,1.303107 -1.66652,2.317665 z m 13.27928,-8.763955 c -4.92061,3.00963 -5.86373,4.52989 -5.16856,8.331425 0.4496,2.458701 0.1865,3.189642 -1.1481,3.189642 -1.42502,0 -1.81489,-0.60252 -2.9759,-4.599117 -0.55111,-1.89712 -1.24025,-4.23425 -1.53141,-5.19362 -0.60663,-1.99882 -0.0841,-3.31472 1.31639,-3.31472 0.64543,0 0.95486,0.5042 1.26172,2.05588 0.3843,1.94324 0.44385,2.00624 1.08673,1.14979 0.37408,-0.49837 0.92203,-1.22492 1.21767,-1.61457 0.80475,-1.06069 6.6329,-3.80264 7.43139,-3.49622 1.42225,0.54575 0.74978,2.12161 -1.48993,3.49151 z"
       inkscape:connector-curvature="0" />
  </g>
</svg>
