<?xml version="1.0" encoding="UTF-8" standalone="no"?>
<svg
   xmlns:dc="http://purl.org/dc/elements/1.1/"
   xmlns:cc="http://creativecommons.org/ns#"
   xmlns:rdf="http://www.w3.org/1999/02/22-rdf-syntax-ns#"
   xmlns:svg="http://www.w3.org/2000/svg"
   xmlns="http://www.w3.org/2000/svg"
   id="svg1795"
   version="1.1"
   viewBox="0 0 341.0787 203.66911"
   height="203.66911mm"
   width="341.0787mm">
  <defs
     id="defs1789" />
  <metadata
     id="metadata1792">
    <rdf:RDF>
      <cc:Work
         rdf:about="">
        <dc:format>image/svg+xml</dc:format>
        <dc:type
           rdf:resource="http://purl.org/dc/dcmitype/StillImage" />
        <dc:title></dc:title>
      </cc:Work>
    </rdf:RDF>
  </metadata>
  <g
     transform="translate(64.706027,-46.998775)"
     id="layer1">
    <path
       d="m -45.52893,205.64244 c -0.657813,0.25242 -1.452189,2.55798 -2.023699,5.87354 -0.517454,3.0019 -1.184025,5.80045 -1.481266,6.21896 -0.297242,0.41853 -0.760662,1.98558 -1.029818,3.48236 -0.722504,4.01774 -2.121845,5.59206 -4.45094,5.00748 -1.569856,-0.39401 -2.50856,-1.81483 -4.976051,-7.53155 -5.264686,-12.19737 -5.918357,-14.30565 -4.678594,-15.08954 2.177563,-1.37683 2.376851,-1.11442 7.264809,9.56551 2.738049,5.98247 2.798015,6.04821 3.470561,3.8048 0.376404,-1.2556 0.823172,-3.13896 0.992802,-4.18528 1.744901,-10.76266 2.619757,-12.65342 5.221373,-11.28447 2.767039,1.45601 3.568534,3.41763 1.690823,4.13819 z m 6.834499,-15.97473 c -3.266784,1.25359 -5.391779,-2.02033 -2.473012,-3.81008 1.10195,-0.6757 1.594878,-0.54949 2.47312,0.63322 1.384588,1.86458 1.384567,2.64552 -1.08e-4,3.17686 z m 7.565352,29.58916 c -0.13611,0.41853 -0.455269,1.70264 -0.70911,2.8536 -0.313915,1.42328 -0.943708,2.09264 -1.968952,2.09264 -1.394921,0 -1.507432,-0.5301 -1.507432,-7.10221 0,-3.9062 -0.396163,-9.07486 -0.880377,-11.4859 -0.897634,-4.46964 -0.439952,-5.71598 2.111772,-5.75092 1.900467,-0.0261 4.251216,15.40598 2.954099,19.39279 z m 9.42658,-60.30596 c -1.821238,3.22781 -10.310365,4.82006 -14.055886,2.63637 -5.405412,-3.15138 -8.690423,-8.90848 -8.684815,-15.22036 0.0043,-5.3491 4.03258,-10.8695 10.233143,-14.02515 3.703286,-1.88472 3.810836,-1.89441 6.277896,-0.5658 2.49469,1.34348 3.204639,2.87589 1.749107,3.77544 -0.418509,0.25867 -0.760941,0.10764 -0.760941,-0.33555 0,-2.54465 -7.065693,0.78003 -10.941865,5.14857 -3.650933,4.1147 -2.567405,11.68773 2.278274,15.92311 2.266431,1.98099 3.490989,2.47312 6.153777,2.47312 1.828379,0 4.185925,-0.56456 5.238996,-1.25456 2.202519,-1.44313 3.666681,-0.6011 2.512314,1.44481 z m 13.9614334,66.23163 c -2.181037,1.97383 -7.6204664,2.87577 -10.7794434,1.78744 -3.393704,-1.16923 -6.14064,-3.46742 -6.14064,-5.13747 0,-1.86798 2.126784,-2.38677 3.011064,-0.7345 0.478264,0.89367 2.007415,1.59236 4.206828,1.92219 7.029606,1.05415 8.3263794,-1.23359 3.565019,-6.28919 -9.869358,-10.47927 -10.43882,-11.51868 -7.929308,-14.47278 2.550707,-3.00261 9.451451,-2.78061 8.282178,0.26646 -0.42649,1.11142 -0.695648,1.15454 -1.823051,0.29211 -0.727464,-0.5565 -1.0804,-0.72376 -0.784302,-0.37171 0.296098,0.35205 -0.205782,1.24272 -1.115451,1.97927 l -1.65381,1.33916 5.391369,5.60524 c 2.965249,3.08287 5.7786274,6.35319 6.2519274,7.26735 1.254919,2.42388 1.05359,5.1564 -0.48238,6.54643 z m 8.07150104,-30.92866 c -1.47475104,1.33463 -1.58095204,1.33614 -2.53156304,0.0362 -1.256458,-1.71833 -0.604469,-4.57433 0.911461,-3.99261 0.60702004,0.23293 1.38146104,0.42351 1.72098004,0.42351 1.39693096,0 1.33309996,2.23522 -0.10095,3.53297 z m 3.88104796,26.63727 c -0.76886,2.05817 -2.15116,2.94327 -3.105808,1.98863 -0.61659096,-0.61657 -2.08687996,-7.92366 -3.28508,-16.32626 -0.358431,-2.51368 1.58070804,-4.5668 2.68932804,-2.84737 1.05047996,1.6293 3.91312096,11.45133 3.46739096,11.89707 -0.212259,0.21225 -0.108929,1.12108 0.229399,2.01973 0.338399,0.89867 0.340532,2.36934 0.004,3.2682 z m 1.95888,-125.936868 c -1.73129,1.73129 -6.77468996,-2.315872 -12.948981,-10.39109 -1.255598,-1.64216 -3.173169,-4.025201 -4.2613134,-5.295662 -1.088122,-1.270457 -3.440578,-4.466169 -5.227648,-7.101559 -1.787072,-2.6354 -3.378001,-4.66285 -3.535423,-4.50543 -0.157467,0.15747 0.397261,4.00625 1.232622,8.552959 2.117013,11.522732 1.979848,16.343763 -0.464994,16.343763 -0.671317,0 -1.060017,-0.840042 -1.060017,-2.290943 0,-1.259998 -0.710533,-5.454787 -1.578959,-9.321749 -0.868405,-3.866939 -2.258861,-10.11267 -3.089865,-13.87942 -0.831022,-3.76674 -1.696064,-7.53349 -1.922338,-8.37055 -1.121061,-4.14729 -1.165733,-5.90757 -0.166092,-6.5408 1.984893,-1.25717 2.812963,-0.67783 5.270206,3.6872 1.354757,2.40653 3.114434,5.23159 3.910428,6.27791 0.795994,1.04632 2.688759,3.78577 4.206113,6.08767 3.118273,4.73051 13.00581144,16.988611 14.01507244,17.375209 0.86700996,0.33215 0.81741896,-16.055659 -0.0837,-27.648149 -0.77606,-9.98422 -0.29596,-11.70863 2.97116996,-10.6717 1.316702,0.41793 1.608921,1.06121 1.504619,3.3123 -0.173849,3.75311 0.763813,32.728071 1.261251,38.97204 0.218162,2.738479 0.203631,5.17208 -0.0324,5.408001 z M 22.776224,211.58293 c -0.56593,-0.87244 -1.909701,-2.05763 -2.98618,-2.63373 -1.07647,-0.57611 -2.453941,-1.91689 -3.06106,-2.97949 -1.05842,-1.8525 -1.091901,-1.77542 -0.813559,1.87277 0.399529,5.23628 2.56059,11.30647 4.761278,13.37391 2.112092,1.98421 2.579761,1.73904 3.301272,-1.73066 0.62229,-2.99263 0.205568,-5.73324 -1.201751,-7.9028 z m 5.156851,9.95681 c -1.133401,3.30984 -2.64165,5.64943 -3.80865,5.90798 -6.085962,1.34839 -11.456001,-8.24131 -12.68308,-22.64907 -0.178171,-2.09264 -0.48827,-4.83209 -0.688981,-6.08767 -0.200821,-1.25557 -0.438401,-6.68398 -0.528179,-12.06309 -0.115832,-6.94195 -0.4365206,-9.88509 -1.1048606,-10.14154 -1.63636,-0.62794 -1.81964,-2.47327 -0.325091,-3.27315 3.9827096,-2.13148 5.3775396,1.62489 5.9190706,15.94044 0.29433,7.78039 0.71873,11.31083 1.447361,12.03945 0.566999,0.56701 1.03092,0.75905 1.03092,0.42676 0,-0.33228 0.533069,0.15681 1.184579,1.08708 0.65152,0.93019 1.63263,1.69124 2.180259,1.69124 1.89643,0 5.16522,3.28984 6.60413,6.64666 1.443921,3.36855 1.756182,7.60243 0.772522,10.47491 z m -3.6337,-146.286838 c -0.72105,-0.52727 -1.913001,-0.95866 -2.648762,-0.95866 -1.80584,0 -5.222388,4.62674 -6.01649,8.1476 -0.899308,3.987459 1.62797,8.61064 5.279252,9.657369 2.285688,0.65524 2.75267,0.528129 4.0894,-1.11328 1.334238,-1.638321 1.456838,-2.601438 1.058349,-8.313689 -0.33978,-4.870641 -0.77339,-6.696642 -1.761749,-7.41934 z m 5.10826,17.633521 c -4.1656,6.319639 -12.681741,5.427049 -16.127211,-1.69028 -3.5245306,-7.28073 -2.47776,-14.274702 2.890271,-19.311132 2.362658,-2.21671 2.91741,-2.38013 7.627448,-2.24667 2.635242,0.0746 3.469762,0.4939 4.854742,2.43893 1.414939,1.987101 1.71505,3.598242 1.949058,10.463171 0.239832,7.03485 0.0809,8.411329 -1.194308,10.345981 z m 4.37283,99.204217 c -0.405392,0.40541 -1.411052,0.56087 -2.234761,0.34547 -2.04398,-0.53452 -1.594641,-3.53805 0.575601,-3.84777 1.778249,-0.25373 2.94735,2.21413 1.65916,3.5023 z m 4.050808,29.12852 c -1.18271,1.45018 -1.57989,1.59947 -1.86531,0.70106 -2.616928,-8.23662 -3.06659,-19.43617 -0.81506,-20.30018 1.6583,-0.63633 2.32705,0.69714 2.88113,5.74489 1.36405,12.42641 1.37127,11.92666 -0.20082,13.85423 z M -3.7961966,142.84897 c -1.369269,-3.42218 -3.770019,-4.64422 -7.9327594,-4.03793 -5.155282,0.75082 -8.366435,4.58748 -8.366435,9.99608 0,2.83416 4.391793,7.35082 7.870206,8.09402 1.321515,0.28233 2.8408104,0.86648 3.3762344,1.29813 1.394924,1.12449 4.435304,-1.94773 5.359144,-5.41527 1.103611,-4.14222 1.02779,-6.60063 -0.30639,-9.93503 z m 23.4074006,-1.65942 c -1.37374,-3.215 -4.813281,-6.17744 -7.569401,-6.51944 -7.7607386,-0.963 -11.37642856,12.18132 -4.8862796,17.76326 2.75067,2.36574 4.5693196,2.21837 8.0521306,-0.65246 4.04553,-3.33467 5.751251,-7.43728 4.40355,-10.59136 z m 23.018139,13.33148 c -0.65768,0.65768 -1.42816,1.19056 -1.71218,1.18413 -1.34578,-0.0304 -3.11438,-2.43199 -6.01564,-8.16866 -1.54867,-3.0622 -2.051608,-3.08755 -3.262418,-0.16436 -1.375471,3.32067 -4.32765,5.47618 -6.15831,4.49645 -0.792332,-0.42405 -1.44059,-1.3208 -1.44059,-1.99279 0,-0.73885 -1.266722,0.21728 -3.204612,2.41885 -3.475379,3.9482 -7.97319,6.42296 -11.7217076,6.44938 -2.5575,0.0173 -6.38052,-2.48582 -6.38052,-4.17889 0,-2.2267 -1.529522,-1.82502 -2.57457096,0.67615 -1.19826104,2.86786 -5.07950004,6.72084 -7.15430104,7.10223 -3.6481524,0.67058 -5.5425584,0.25699 -8.6137864,-1.88062 -8.133471,-5.66102 -10.627601,-13.42299 -6.37703,-19.84601 4.223692,-6.38244 15.3260674,-8.21953 19.9629374,-3.30323 1.05959004,1.12345 2.05105004,1.7002 2.20320904,1.28167 0.90689196,-2.49413 3.63860096,-5.93322 5.78065196,-7.27754 5.0863886,-3.19212 12.7860176,-0.21009 16.5921896,6.42602 l 2.23421,3.89537 0.116689,-5.32672 c 0.0643,-2.92968 0.15466,-7.72372 0.200819,-10.65342 0.0902,-5.70872 0.615932,-7.22911 2.499982,-7.22911 0.918189,0 1.086868,0.52384 0.73506,2.28289 -0.291232,1.45616 -0.146042,2.28287 0.401008,2.28287 0.615241,0 0.72812,2.7399 0.39947,9.69558 l -0.458118,9.69559 4.543499,-9.12488 c 4.175009,-8.38483 6.026169,-11.02726 7.725149,-11.02726 1.84913,0 1.18594,3.07429 -2.05187,9.51172 -1.97832,3.93332 -3.47673,7.42584 -3.32982,7.76115 1.10734,2.52709 5.51984,9.40306 6.74671,10.51336 1.82079,1.64781 1.90845,2.90539 0.3137,4.50016 z m 9.62145,-29.27205 c -0.80673,0.43176 -2.00523,0.57837 -2.66335,0.32585 -2.5025,-0.96032 -0.67984,-4.10114 2.37994,-4.10114 2.20894,0 2.40705,2.63876 0.28341,3.77529 z m 0.32537,26.66305 c -1.7083,1.41775 -3.16538,-0.18658 -3.75786,-4.13756 -0.67953,-4.53137 0.2417,-11.08161 1.55851,-11.08161 1.08377,0 1.30426,0.684 2.55958,7.93957 1.01023,5.83906 0.99459,6.1552 -0.36023,7.2796 z m 2.917,63.41321 c -1.03532,1.03531 -3.9641,0.47871 -4.33772,-0.82436 -0.21009,-0.73243 -0.75499,-6.98181 -1.21107,-13.88751 -1.16664,-17.66385 -1.33606,-19.37055 -2.64375,-26.63355 -1.44718,-8.03781 -1.44992,-8.37053 -0.0688,-8.37053 3.17928,0 5.33082,9.28568 6.44296,27.80679 0.4272,7.1142 1.1252,14.77256 1.55115,17.01859 0.91845,4.84294 0.88719,4.27054 0.26715,4.89057 z m 8.57972,-18.88105 c -0.89985,1.23061 -1.24311,1.29567 -2.28289,0.43274 -0.67306,-0.55861 -1.22378,-1.84054 -1.22378,-2.84875 0,-2.38871 2.17629,-3.24034 3.53437,-1.38307 1.28314,1.75482 1.28128,2.00892 -0.0276,3.79908 z m 1.56181,23.32858 c -1.34992,1.77549 -2.27426,0.848 -3.36894,-3.38042 -1.65023,-6.37442 -0.95128,-12.19916 1.13909,-9.49269 0.7252,0.93896 3.27091,9.53178 3.22486,10.88521 -0.0129,0.39108 -0.46107,1.28563 -0.99501,1.9879 z m 5.65009,-88.32728 c -1.03446,-1.63368 -2.93615,-0.44407 -4.22637,2.64383 -2.04411,4.89225 -1.27169,5.43477 2.49484,1.75228 2.6388,-2.57992 2.7319,-2.81624 1.73153,-4.39611 z m 6.28605,22.84648 c -0.69211,0.5744 -2.89543,1.04438 -4.89627,1.04438 -2.99391,0 -4.05382,-0.39852 -5.9877,-2.25129 -1.2924,-1.23819 -2.74239,-3.63521 -3.2222,-5.3267 -0.47981,-1.69149 -1.57626,-3.64847 -2.43656,-4.34887 -1.44138,-1.17347 -1.4691,-1.38251 -0.35326,-2.66335 0.66601,-0.76445 1.44203,-2.90981 1.72452,-4.76744 0.63773,-4.19386 3.1607,-8.80466 5.30181,-9.6892 4.13363,-1.70771 7.77389,0.7433 8.5657,5.76732 0.29787,1.89005 -0.18853,2.89487 -2.74217,5.66527 -1.70735,1.85224 -4.12294,3.78968 -5.36801,4.30541 -2.57687,1.06737 -2.69385,1.51886 -1.16122,4.4826 1.55137,3.00004 4.23952,4.53226 8.32225,4.74358 3.69891,0.19155 4.45493,1.21095 2.25311,3.03829 z m 13.77674,67.41746 c -2.02353,4.06067 -4.35031,5.53751 -8.72448,5.53751 -2.6016,0 -6.07673,-2.67125 -6.07673,-4.67102 0,-0.8342 -0.31935,-2.11344 -0.70969,-2.84275 -1.29852,-2.4263 -2.10207,-11.52339 -2.69409,-30.5001 -0.51819,-16.60966 -1.10012,-19.92727 -3.19092,-18.19205 -0.97104,0.80589 -1.09699,0.56706 -0.88346,-1.67521 0.22312,-2.34301 0.48656,-2.6151 2.53192,-2.6151 1.90704,0 2.52881,0.50111 3.77686,3.04384 1.28586,2.61979 1.53674,5.07555 1.80103,17.62793 l 0.30703,14.58408 4.58778,-0.12597 c 2.93521,-0.0805 4.70107,0.19673 4.90228,0.76985 0.31193,0.88838 -5.83982,4.05051 -7.88006,4.05051 -0.79444,0 -0.95782,0.72019 -0.64737,2.8536 0.22836,1.56947 0.57116,4.16062 0.76174,5.75811 0.19068,1.59747 0.79601,3.82328 1.34539,4.94622 1.51153,3.08963 5.34176,2.65615 8.67448,-0.98172 1.39658,-1.52445 2.881,-2.5605 3.29869,-2.30234 0.97218,0.60084 1.065,0.22856 -1.1804,4.73452 z m 29.383737,11.62517 c -3.37662,11.06044 -10.77476,15.5506 -28.341457,17.20128 -3.28613,0.30878 -4.79067,0.099 -6.27789,-0.87551 -2.84808,-1.86612 -2.43043,-2.419 1.90118,-2.51658 2.12146,-0.0477 4.11761,-0.24785 4.4359,-0.44455 0.31828,-0.19672 2.94289,-0.73534 5.83245,-1.19694 2.889577,-0.46161 6.800347,-1.52236 8.690627,-2.3572 3.7682,-1.66423 8.38311,-5.70565 8.38311,-7.34132 0,-0.57039 0.26905,-0.8708 0.59789,-0.66756 0.32887,0.20319 0.66847,-0.20449 0.75473,-0.90629 0.0863,-0.70169 0.37337,-2.8 0.63806,-4.66291 0.49155,-3.45954 -0.75156,-12.4905 -1.99659,-14.50501 -0.59927,-0.96963 -0.98743,-0.94224 -2.93289,0.20708 -1.31729,0.77813 -3.79539,1.32451 -6.00734,1.32451 -7.000237,0 -11.491537,-4.94033 -11.563177,-12.71929 -0.0298,-3.22522 0.25136,-4.12233 1.50109,-4.79117 2.34497,-1.25499 3.25557,-0.19758 2.71907,3.15749 -0.9367,5.85778 4.060937,11.4904 9.077867,10.23122 2.71493,-0.68141 3.07222,-2.27322 1.12428,-5.00886 -1.5636,-2.19588 -1.58964,-2.44855 -0.434,-4.21228 0.67617,-1.03196 1.67108,-1.87629 2.21093,-1.87629 2.39805,0 7.29973,7.34604 9.22298,13.82236 1.22218,4.11557 1.49405,14.76122 0.46318,18.13791 z M 275.82682,129.46375 c -2.22094,3.89405 -14.52475,14.82246 -17.89067,15.89075 -1.79189,0.56871 -3.06515,-0.65574 -2.99233,-2.87763 0.0304,-0.92809 1.40229,-2.17644 3.83458,-3.48926 4.67531,-2.52347 12.57337,-9.76058 12.57337,-11.5211 0,-1.88273 -1.56941,-2.12726 -4.1995,-0.65434 -1.26341,0.70754 -3.48922,1.19356 -4.94622,1.08006 -2.65166,-0.20665 -20.50863,0.89608 -26.23887,1.6202 -1.67409,0.21161 -6.75319,0.71243 -11.28691,1.11306 -4.53371,0.40063 -8.47214,0.86998 -8.75202,1.043 -0.27993,0.17299 -3.248,0.5445 -6.59559,0.82554 -3.34769,0.28107 -7.28522,0.82523 -8.75003,1.20925 -1.46486,0.38401 -4.03539,0.70013 -5.71224,0.70246 -1.67684,0.002 -4.24507,0.35173 -5.70718,0.77645 -3.25356,0.94511 -19.50649,3.86634 -33.85763,6.08542 -5.85938,0.90603 -13.39287,2.10616 -16.74109,2.667 -5.47929,0.91778 -6.18303,0.89614 -7.04168,-0.21653 -1.28802,-1.66891 -0.2439,-2.56518 3.77039,-3.23656 1.79922,-0.30091 8.57897,-1.4564 15.06614,-2.56773 6.48717,-1.11133 15.73282,-2.69211 20.54588,-3.51282 9.17451,-1.56437 9.64501,-1.65515 15.33979,-2.95923 3.21848,-0.73702 10.59649,-1.79313 19.66432,-2.81478 1.88335,-0.21225 5.99254,-0.7489 9.13148,-1.19267 3.13897,-0.44379 7.07694,-0.93195 8.75104,-1.08478 1.6741,-0.15293 5.78329,-0.61871 9.13151,-1.03528 3.3482,-0.41655 11.39537,-1.13439 17.88253,-1.59522 6.48716,-0.46081 12.07998,-1.1144 12.42859,-1.45238 0.34851,-0.33799 -0.27633,-1.45836 -1.38861,-2.48971 -2.63824,-2.44631 -2.52553,-6.91259 0.18423,-7.29743 0.94168,-0.13373 1.71214,0.0992 1.71214,0.5178 0,0.41854 0.7705,0.87039 1.71217,1.00413 1.10459,0.15682 1.79899,0.8551 1.95694,1.96768 0.15447,1.08849 1.27715,2.2514 3.04385,3.15309 1.53948,0.78572 3.39423,2.08675 4.12165,2.89118 1.73263,1.91589 2.34043,5.53863 1.25003,7.45038 z"
       style="fill:#333333;fill-opacity:1;stroke-width:0.76095861"
       id="path1066" />
  </g>
</svg>
