<?xml version="1.0" encoding="UTF-8" standalone="no"?>
<svg
   xmlns:dc="http://purl.org/dc/elements/1.1/"
   xmlns:cc="http://creativecommons.org/ns#"
   xmlns:rdf="http://www.w3.org/1999/02/22-rdf-syntax-ns#"
   xmlns:svg="http://www.w3.org/2000/svg"
   xmlns="http://www.w3.org/2000/svg"
   id="svg2341"
   version="1.1"
   viewBox="0 0 95.858414 176.55681"
   height="176.55681mm"
   width="95.858414mm">
  <defs
     id="defs2335" />
  <metadata
     id="metadata2338">
    <rdf:RDF>
      <cc:Work
         rdf:about="">
        <dc:format>image/svg+xml</dc:format>
        <dc:type
           rdf:resource="http://purl.org/dc/dcmitype/StillImage" />
        <dc:title></dc:title>
      </cc:Work>
    </rdf:RDF>
  </metadata>
  <g
     transform="translate(-176.58865,157.91531)"
     id="layer1">
    <path
       d="m 201.42609,-59.353657 c -1.14914,0.752925 -4.30131,0.899981 -5.86597,0.273632 -1.73625,-0.695034 -2.67126,-1.869784 -3.35198,-4.211372 -0.89646,-3.083693 -0.39854,-5.552308 1.54302,-7.65011 1.49693,-1.617398 3.0003,-2.181172 5.42494,-2.034355 1.18859,0.07197 0.67895,1.313551 -0.81587,1.98763 -1.93188,0.87114 -3.05993,2.304309 -3.35322,4.260135 -0.30361,2.024539 0.2513,3.966316 1.45727,5.099632 0.76986,0.72345 1.2887,0.866352 3.25128,0.89543 2.55635,0.03789 3.09499,0.472254 1.71053,1.379378 z m 4.10035,-41.013533 c -0.18253,0.80359 -1.57855,1.14178 -2.55534,0.619016 -0.42273,-0.226245 -0.6848,-0.495196 -0.58233,-0.597636 0.10245,-0.10248 -0.13747,-1.00243 -0.53316,-1.99991 -1.0143,-2.55693 -5.23211,-14.4599 -5.23486,-14.77322 0,-0.1428 -0.86034,-2.0478 -1.90907,-4.23334 -2.11315,-4.4038 -4.24305,-9.21332 -5.50918,-12.44036 -0.45675,-1.16417 -0.9991,-2.2333 -1.20518,-2.37585 -0.20608,-0.14256 -0.25448,-0.26162 -0.10753,-0.26459 0.41831,-0.008 -5.85102,-11.78909 -7.13695,-13.41096 l -0.69926,-0.88193 v 2.29303 c -2.7e-4,1.26119 0.16181,3.32494 0.36049,4.58613 0.1987,1.26117 0.45072,2.85994 0.56007,3.5528 0.31922,2.02293 -1.26397,3.10878 -2.81683,1.93194 -0.5189,-0.39323 -0.67429,-1.10533 -0.78664,-3.60477 -0.077,-1.71307 -0.21516,-4.78157 -0.30699,-6.81887 -0.0919,-2.03729 -0.26403,-4.66251 -0.38259,-5.83385 -0.18735,-1.85126 -0.12224,-2.21411 0.49813,-2.77553 0.56854,-0.51453 1.07916,-0.60656 2.51111,-0.45262 1.9757,0.21241 3.85164,1.26203 11.7285,6.56241 2.47555,1.66581 5.25367,3.43535 6.1736,3.93226 1.70249,0.91967 2.32887,2.10913 1.53088,2.90714 -0.58634,0.58634 -1.8855,0.66762 -2.85689,0.17872 -1.31117,-0.6599 -3.01241,-2.11677 -2.90166,-2.48489 0.0533,-0.17719 -0.0778,-0.21418 -0.29146,-0.0821 -0.21363,0.13203 -0.97163,-0.22728 -1.68445,-0.79846 -0.71281,-0.57118 -1.69291,-1.24679 -2.17797,-1.50135 -0.48508,-0.25458 -0.96133,-0.56182 -1.05833,-0.68278 -0.20857,-0.26001 -1.99578,-1.44209 -2.99863,-1.98327 -0.38804,-0.20941 -1.17819,-0.68842 -1.75585,-1.06444 l -1.05032,-0.68369 0.72985,1.23474 c 2.10892,3.56782 2.61848,4.63245 2.39237,4.99832 -0.14198,0.22974 -0.0932,0.30625 0.11371,0.17838 0.464,-0.28675 3.43408,5.28762 5.98213,11.22746 1.92619,4.49022 2.90367,6.66274 5.23803,11.64167 1.37126,2.92473 3.32687,7.93689 4.81756,12.3472 0.59024,1.74625 1.51435,4.28625 2.05354,5.64447 1.64986,4.15578 1.99811,5.26674 1.85227,5.90878 z m 4.65738,89.171114 c -1.8634,0.70847 -2.09685,0.42981 -2.13264,-2.54572 -0.0431,-3.58359 -0.68697,-4.68238 -2.55524,-4.36088 -0.8536,0.14689 -1.66704,0.64005 -2.39451,1.45168 -1.07521,1.19965 -1.22653,1.75366 -1.71371,6.27478 -0.0839,0.7781403 -0.78967,1.2777303 -1.81565,1.2851103 -1.31069,0.01 -1.63179,-0.7856 -1.27346,-3.1530603 0.43053,-2.84451 0.28559,-6.99297 -0.30099,-8.61516 -0.61481,-1.70023 -0.15433,-2.47684 1.55509,-2.62265 1.35675,-0.11573 1.4769,0.0541 1.7518,2.47668 0.15261,1.34485 0.39026,1.46574 1.62568,0.82688 1.32638,-0.68591 4.23961,-0.79394 5.65042,-0.20955 1.48651,0.61574 2.2466,2.46359 2.43279,5.91447 l 0.1566,2.90248 z m 3.97174,-54.747637 c -0.63807,-0.839682 -1.72505,-1.832478 -2.41554,-2.206175 -1.25492,-0.679212 -1.25587,-0.679159 -2.54402,0.116972 -1.2052,0.744855 -1.47471,1.309952 -1.36178,2.855542 0.056,0.766366 3.34581,4.153826 4.43706,4.568693 2.87703,1.09384 4.11213,-2.403158 1.88428,-5.335032 z m 3.27004,5.634487 c -0.39031,0.640212 -0.86598,1.067382 -1.05701,0.949325 -0.19105,-0.118057 -0.34734,-0.07205 -0.34734,0.102315 0,1.028541 -3.45787,1.45325 -4.9389,0.60661 -0.48506,-0.27731 -1.30554,-0.509799 -1.82322,-0.516679 -1.51252,-0.02011 -1.95966,-0.327686 -3.13192,-2.154475 -1.45241,-2.263378 -1.77999,-5.256292 -0.75325,-6.882104 0.80624,-1.276641 2.4111,-2.107803 4.72938,-2.449406 1.42433,-0.209894 1.89584,-0.111416 3.2412,0.677015 1.51026,0.885085 3.55182,3.063188 4.39396,4.687861 0.63211,1.219518 0.47731,3.683477 -0.3129,4.979538 z m 1.53564,74.06992 c -0.59854,1.48571 -2.67922,1.1712 -3.09044,-0.46718 l -0.23156,-0.9227 -1.53548,1.41536 c -3.91345,3.6073 -9.79906,1.44206 -9.77644,-3.59664 0.0138,-3.0438997 1.97319,-6.5874397 4.14436,-7.4946197 2.1636,-0.904 5.54551,-0.46976 6.0225,0.7733 0.30371,0.79145 -0.50896,1.21857 -2.17742,1.1444 -1.95556,-0.0869 -3.29073,0.67829 -4.27614,2.45073 -1.34707,2.42295 -0.99708,4.9105897 0.82172,5.8401997 2.40765,1.23058 5.315,-1.86631 5.73344,-6.1072397 0.16867,-1.70955 0.30178,-1.97215 1.15019,-2.26923 1.43468,-0.50231 2.3136,0.44591 2.36461,2.55101 0.0624,2.57628 0.25919,4.0361097 0.68935,5.1140297 0.21796,0.5462 0.38377,1.02245 0.36846,1.05833 -0.0153,0.0359 -0.10854,0.26548 -0.20715,0.51025 z m 5.88021,-106.207505 c -0.20294,2.506027 -0.56557,3.029505 -1.98625,2.867157 l -1.01312,-0.115782 0.11845,-3.175 c 0.13132,-3.518905 -0.15441,-4.608009 -1.60528,-6.118727 -0.75123,-0.782215 -1.15525,-0.958639 -1.71563,-0.749247 -1.06662,0.398568 -2.26561,4.30186 -2.26561,7.37571 0,3.051466 -0.19163,3.550576 -1.36064,3.543802 -1.56311,-0.009 -1.87156,-0.450029 -1.9989,-2.857844 -0.0655,-1.23862 -0.2105,-3.125152 -0.32221,-4.192296 -0.11171,-1.067144 -0.29094,-2.813394 -0.39831,-3.880564 -0.10734,-1.067148 -0.2732,-2.209828 -0.36856,-2.539288 -0.11885,-0.4106 0.17894,-0.78121 0.94676,-1.17827 1.39787,-0.72286 2.03253,-0.2396 2.17273,1.65447 l 0.0944,1.27553 0.82473,-0.82381 c 1.96898,-1.96678 4.6064,-1.85018 6.6756,0.29509 1.81565,1.882407 2.52309,4.651721 2.20181,8.619069 z m -3.5556,74.396625 c -1.16862,-0.98333 -2.38398,-1.15414 -3.6121,-0.50771 -1.03499,0.54478 -1.28891,0.98613 -1.28891,2.24025 0,1.32935 0.23074,1.67757 1.70079,2.56651 3.12214,1.88797 5.98406,-1.95662 3.20022,-4.29905 z m 3.91429,2.48052 c -0.27418,1.82539 -1.12143,3.13759 -2.47911,3.83969 -1.27895,0.66135 -5.43785,0.76599 -6.74651,0.16973 -1.80049,-0.82037 -2.98299,-4.26361 -2.35233,-6.84962 0.2581,-1.05844 2.30637,-2.56529 3.81489,-2.80651 1.76104,-0.2816 4.59997,0.33343 6.0433,1.30921 1.41343,0.9556 2.00403,2.44515 1.71976,4.3375 z m 0.18254,-49.743254 c -0.49379,-0.323532 -1.36819,-0.682334 -1.94313,-0.797322 -0.87902,-0.175815 -1.11035,-0.06641 -1.45393,0.687679 -0.58801,1.290558 -0.093,3.348646 1.09,4.531598 0.55287,0.5529 1.14586,1.005258 1.31773,1.005258 0.70506,0 1.55993,-0.974275 2.01411,-2.295446 0.54468,-1.584325 0.32843,-2.245095 -1.02478,-3.131767 z m 3.95192,3.593068 c -0.83283,2.600484 -3.9747,4.954536 -5.73188,4.294666 -1.67267,-0.628149 -3.87564,-3.066867 -4.54101,-5.026953 -0.78743,-2.319708 -0.59302,-3.463078 0.83103,-4.887092 0.86502,-0.865056 1.2878,-1.012005 2.89234,-1.005391 2.34987,0.0098 4.36631,0.904002 5.851,2.594981 1.1939,1.359799 1.32024,2.088568 0.69852,4.029789 z m 0.004,23.053036 c -3.98549,1.14893 -11.23809,0.0462 -11.49233,-1.74733 -0.24855,-1.75332 1.24052,-2.2846 3.61847,-1.29104 0.71297,0.2979 2.59768,0.62384 4.18822,0.72433 4.54845,0.28734 5.18496,0.43537 5.18496,1.20586 0,0.49229 -0.40743,0.79344 -1.49932,1.10818 z m 2.02237,45.1818703 c -0.0464,0.0538 -0.16417,1.08286 -0.26188,2.28677 -0.19836,2.4446697 -1.0912,4.2879397 -2.39715,4.9488397 -0.92094,0.46606 -3.46996,0.53464 -4.91562,0.13224 -1.67706,-0.4668 -2.70846,-2.83427 -3.0135,-6.9172097 -0.15218,-2.03687 0.0873,-2.56781 1.27609,-2.82893 1.55744,-0.34208 2.14511,0.31671 2.02544,2.2706 -0.28856,4.7120497 1.7041,6.8480297 3.51896,3.7720897 0.4791,-0.8120597 0.68932,-1.9210897 0.7421,-3.9155697 0.0405,-1.53046 0.15325,-2.91145 0.25056,-3.06888 0.26908,-0.43539 1.82335,-0.3416 2.11328,0.12751 0.26937,0.4359 0.806,3.02492 0.66172,3.19254 z m 0.0943,-53.4245403 c -1.16768,0.96026 -7.18198,2.00086 -11.20068,1.938 -2.71151,-0.0424 -2.60075,-0.0151 -3.51227,-0.8644 l -0.82309,-0.76681 0.75615,-0.6123 c 0.62206,-0.50371 1.33498,-0.59267 4.01976,-0.50147 2.97318,0.101 8.20876,-0.51554 9.11043,-1.0728 0.2018,-0.1247 0.75475,-0.12941 1.2288,-0.0103 0.93525,0.23474 1.16724,1.27651 0.4209,1.89024 z m 5.58999,-50.316097 c -0.0957,-0.154914 -0.73782,-0.237279 -1.42682,-0.183012 -0.689,0.05427 -1.25275,-0.05339 -1.25275,-0.23921 0,-0.510752 -0.58746,-0.405607 -1.20952,0.216455 -0.3049,0.304906 -0.55435,0.428334 -0.55435,0.274294 0,-0.154041 -0.27493,0.112421 -0.61095,0.592164 -0.33602,0.479742 -0.56849,0.917601 -0.51657,0.973032 0.0519,0.05543 -0.14941,0.344593 -0.44739,0.642567 -1.29466,1.294632 -0.17621,4.371922 1.58896,4.371922 1.81536,0 4.24661,-1.945005 4.64854,-3.718878 0.17563,-0.775044 0.0466,-2.49928 -0.21915,-2.929334 z m 2.94915,3.55645 c -0.34923,1.233011 -1.76829,3.541977 -2.02134,3.288956 -0.10599,-0.105992 -0.41598,0.1261 -0.68889,0.515725 -0.71568,1.021768 -2.7985,1.790542 -5.04116,1.860709 -4.29737,0.134461 -6.14186,-3.32314 -4.10171,-7.688897 1.73543,-3.713745 5.14631,-5.76294 8.42756,-5.06312 1.62222,0.346 3.14188,1.574456 3.32695,2.689437 0.30221,1.820862 0.34081,3.542083 0.0986,4.39719 z m 4.53128,34.771195 c -1.06024,1.060262 -2.65753,0.105224 -4.02445,-2.40628 -0.5258,-0.966073 -1.09209,-1.756489 -1.25843,-1.756489 -0.16632,0 -0.56738,0.555625 -0.8912,1.234731 -0.32385,0.679079 -0.71816,1.234704 -0.87625,1.234704 -0.15809,0 -0.28744,0.219869 -0.28744,0.488606 0,1.160119 -3.02604,2.24954 -4.0881,1.471772 -0.62847,-0.46027 -0.6744,-1.020366 -0.6744,-8.226478 0,-5.905156 -0.11062,-7.866354 -0.46805,-8.298551 -0.81494,-0.985387 -0.37335,-2.115555 0.96105,-2.459593 2.20072,-0.567372 2.32923,-0.143245 2.32923,7.687945 0,3.776636 0.10364,6.866652 0.23032,6.866731 0.26122,1.59e-4 4.88495,-7.600764 4.88495,-8.030315 0,-0.153432 0.46731,-0.790602 1.03846,-1.415945 1.64365,-1.799563 3.3713,-1.312597 2.28733,0.644711 -0.26321,0.475297 -0.48419,1.055634 -0.49107,1.289632 -0.007,0.233997 -0.49403,1.242139 -1.0826,2.240333 l -1.07008,1.814883 0.70014,1.111064 c 0.3851,0.611082 1.04278,1.860101 1.46154,2.775638 0.41878,0.915512 0.98213,1.847771 1.2519,2.071661 0.60251,0.500063 0.62685,1.101567 0.0671,1.66124 z m 0.0286,72.039192 c -0.79923,1.10331 -1.27331,1.40427 -2.50058,1.58752 -2.19911,0.3284 -3.74197,-0.41844 -5.06642,-2.45247 -0.61281,-0.9411 -0.68755,-1.87513 -0.79045,-9.8777697 -0.10247,-7.96928 -0.17872,-8.92966 -0.77541,-9.76641 -0.65397,-0.91707 -0.65238,-0.93678 0.13414,-1.67568 1.06244,-0.9981203 2.54019,-0.9761803 3.10245,0.046 0.30441,0.55338 0.43037,2.74347 0.41596,7.23197 l -0.0206,6.43818 h 1.50791 c 1.76953,0 2.62416,0.27088 2.62329,0.83148 0,0.44037 -2.82347,2.34352 -3.47594,2.34352 -1.14689,0 0.15717,3.6752197 1.4496,4.0854097 0.58968,0.18716 0.97631,-0.0148 1.7094,-0.89295 0.66071,-0.79142 1.19067,-1.0991797 1.75135,-1.01711 1.15359,0.16889 1.12654,1.47392 -0.0646,3.11828 z m 2.6933,-79.171724 c -1.03735,0.679688 -1.74461,0.317765 -1.53429,-0.785125 0.15652,-0.820737 1.44629,-1.039098 2.02424,-0.342688 0.35685,0.429974 0.27001,0.629867 -0.48995,1.127813 z m 0.96541,7.477151 c -0.62704,0.304007 -2.09198,0.309986 -2.39218,0.0098 -0.42055,-0.420529 0.0446,-4.411848 0.5941,-5.098097 0.35756,-0.446538 1.59382,-0.243788 1.94125,0.318373 0.12163,0.196797 0.27826,1.283097 0.34806,2.414032 0.1043,1.68984 0.0167,2.109628 -0.49123,2.355929 z m 11.48215,73.033173 c -0.50279,0.50279 -1.91876,0.562 -2.20901,0.0924 -0.27183,-0.43982 -0.54816,-2.54755 -0.66529,-5.0746097 -0.0995,-2.14558 -0.51459,-2.75243 -1.67524,-2.4489 -1.04764,0.27398 -3.05839,2.73426 -3.53515,4.3255397 -0.53628,1.78999 -1.40091,2.33661 -2.78752,1.76226 -1.02835,-0.42596 -1.59771,-1.24728 -1.08455,-1.56443 0.28779,-0.17785 0.24561,-2.9135097 -0.1456,-9.4481697 -0.19796,-3.30668 -1.47907,-8.05741 -2.24144,-8.31196 -0.16624,-0.0555 -0.57433,-0.29985 -0.90684,-0.54301 -0.75583,-0.55266 -0.41447,-2.34116 0.45458,-2.38167 0.31851,-0.0148 0.86331,-0.0811 1.21066,-0.14727 2.22202,-0.42312 4.13906,4.67641 4.70717,12.52149 0.11944,1.64923 0.27739,3.06538 0.35103,3.14698 0.0736,0.0816 0.49043,-0.18563 0.92622,-0.59386 1.03979,-0.97401 2.46846,-1.49479 4.10073,-1.49479 1.47127,0 2.88009,1.16465 3.54835,2.93339 0.52036,1.37723 0.48498,6.6935297 -0.0481,7.2266097 z m -1.66654,-82.278773 c -0.6477,-0.586157 -0.72834,-0.577558 -1.7639,0.18804 -0.59684,0.441272 -1.08516,1.058201 -1.08516,1.370965 0,0.312764 -0.14203,0.719455 -0.31562,0.90379 -0.17357,0.184335 -0.42431,0.851085 -0.55718,1.481667 -0.19529,0.926809 -0.13036,1.146519 0.33879,1.146519 1.34943,0 2.78239,-1.175756 3.52992,-2.896315 0.64939,-1.494684 0.65087,-1.47275 -0.14685,-2.194666 z m 5.49474,9.83996 c -0.29948,0.409573 -0.6463,0.545013 -0.93644,0.365703 -0.28784,-0.1779 -0.37508,-0.14607 -0.23239,0.0848 0.37156,0.60122 -2.75666,1.85608 -4.62692,1.85608 -3.65686,0 -6.41041,-2.581458 -6.42282,-6.021385 -0.0114,-3.179551 1.51898,-6.665225 3.60479,-8.210339 1.55147,-1.14927 5.71775,-0.988219 4.98785,0.192829 -0.14187,0.229552 -0.0799,0.290115 0.15102,0.147425 0.2172,-0.134223 0.65209,0.155179 0.976,0.6495 0.96525,1.4732 -0.0975,5.029332 -2.01819,6.753277 -1.06455,0.95549 -3.02236,1.899471 -3.9691,1.913732 -0.6891,0.01032 -0.67328,0.06948 0.23199,0.866219 1.54091,1.356201 3.15413,1.481032 5.68153,0.439605 1.52588,-0.628756 2.29674,-0.786183 2.60734,-0.532474 0.55914,0.456751 0.55372,0.690351 -0.0347,1.495028 z m 2.53783,76.247203 c -1.37589,0.85034 -3.47329,0.0666 -3.47329,-1.29786 0,-1.59443 2.77987,-2.42636 3.51536,-1.05206 0.48405,0.90442 0.46376,2.03731 -0.0421,2.34992 z m 0.37108,-12.9982697 c -0.25176,0.24255 -0.88236,0.44099 -1.4014,0.44099 -1.12241,0 -1.19628,-0.26178 -1.77837,-6.30077 -0.21767,-2.2584 -0.58311,-5.49261 -0.81208,-7.18711 -0.23596,-1.74617 -0.2866,-3.3127403 -0.1169,-3.6159803 0.36143,-0.64582 2.1539,-0.70943 2.65055,-0.0941 0.19574,0.24254 0.54176,2.4253503 0.7689,4.8506803 0.22715,2.42536 0.48363,5.04474 0.56997,5.82084 0.54993,4.94387 0.5639,5.65705 0.1193,6.08541 z m 3.40592,-72.4521203 c -0.8773,0.574834 -0.9693,0.535173 -1.37107,-0.591185 -0.15975,-0.447913 -0.0977,-0.558165 0.21019,-0.373248 0.33983,0.204074 0.33856,0.140865 -0.006,-0.284374 -0.51059,-0.630819 -1.85044,-5.635466 -1.85044,-6.911895 0,-0.473208 -0.25165,-1.39065 -0.55917,-2.038774 -0.77089,-1.624488 -0.53692,-2.368206 0.87214,-2.77233 1.56475,-0.44876 1.97861,0.118983 2.50362,3.434344 0.22006,1.389513 0.54946,3.386323 0.73202,4.437327 0.56764,3.267843 0.44323,4.461405 -0.53162,5.100135 z m 1.94509,10.43903 c -1.40412,0.75147 -2.84541,0.2078 -2.84541,-1.07328 0,-1.348584 2.57043,-2.160616 3.18781,-1.00706 0.52279,0.97684 0.40719,1.67915 -0.3424,2.08034 z"
       style="fill:#333333;fill-opacity:1;stroke-width:0.35277778"
       id="path1631" />
  </g>
</svg>
