<?xml version="1.0" encoding="UTF-8" standalone="no"?>
<!-- Created with Inkscape (http://www.inkscape.org/) -->

<svg
   xmlns:dc="http://purl.org/dc/elements/1.1/"
   xmlns:cc="http://creativecommons.org/ns#"
   xmlns:rdf="http://www.w3.org/1999/02/22-rdf-syntax-ns#"
   xmlns:svg="http://www.w3.org/2000/svg"
   xmlns="http://www.w3.org/2000/svg"
   xmlns:sodipodi="http://sodipodi.sourceforge.net/DTD/sodipodi-0.dtd"
   xmlns:inkscape="http://www.inkscape.org/namespaces/inkscape"
   width="502.72672mm"
   height="62.88345mm"
   viewBox="0 0 502.72672 62.88345"
   version="1.1"
   id="svg2013"
   inkscape:version="0.92.4 (5da689c313, 2019-01-14)"
   sodipodi:docname="payload.svg">
  <defs
     id="defs2007" />
  <sodipodi:namedview
     id="base"
     pagecolor="#ffffff"
     bordercolor="#666666"
     borderopacity="1.0"
     inkscape:pageopacity="0.0"
     inkscape:pageshadow="2"
     inkscape:zoom="0.35"
     inkscape:cx="2041.4634"
     inkscape:cy="170.26343"
     inkscape:document-units="mm"
     inkscape:current-layer="layer1"
     showgrid="false"
     fit-margin-top="0"
     fit-margin-left="0"
     fit-margin-right="0"
     fit-margin-bottom="0"
     inkscape:window-width="2560"
     inkscape:window-height="1376"
     inkscape:window-x="0"
     inkscape:window-y="27"
     inkscape:window-maximized="1" />
  <metadata
     id="metadata2010">
    <rdf:RDF>
      <cc:Work
         rdf:about="">
        <dc:format>image/svg+xml</dc:format>
        <dc:type
           rdf:resource="http://purl.org/dc/dcmitype/StillImage" />
        <dc:title />
      </cc:Work>
    </rdf:RDF>
  </metadata>
  <g
     inkscape:label="Layer 1"
     inkscape:groupmode="layer"
     id="layer1"
     transform="translate(710.98241,-130.99875)">
    <path
       inkscape:connector-curvature="0"
       id="path882"
       style="fill:#ffffff;fill-opacity:1;stroke-width:0.4599112"
       d="m -697.41981,155.24906 c -0.9094,0 -2.53954,-2.37798 -2.00001,-2.91753 0.42054,-0.42053 2.90803,1.51177 2.90803,2.25898 0,0.3622 -0.40862,0.65855 -0.90802,0.65855 z m 181.22223,13.55012 c -0.78607,0.48581 -7.55496,1.10354 -11.75663,1.07292 -2.27658,-0.0166 -6.72621,0.23741 -9.8881,0.56448 -7.54205,0.78015 -15.68874,0.81498 -23.91538,0.10234 -3.6678,-0.31776 -9.25572,-0.78698 -12.4176,-1.0427 -3.1619,-0.25573 -8.02546,-0.6713 -10.80792,-0.92347 -2.78247,-0.25218 -8.57735,-0.45987 -12.87752,-0.46154 -4.30016,-0.001 -8.64632,-0.0836 -9.65813,-0.18192 -1.0118,-0.0984 -3.73936,-0.30506 -6.06122,-0.45927 -2.32187,-0.15423 -5.11583,-0.59624 -6.2088,-0.98228 -1.09297,-0.38602 -3.08841,-0.80663 -4.43431,-0.93467 -1.34588,-0.12803 -2.95357,-0.42538 -3.57264,-0.66075 -0.61907,-0.23537 -3.4449,-0.55164 -6.27961,-0.70284 -2.83472,-0.15119 -5.28051,-0.35307 -5.4351,-0.4486 -0.15459,-0.0956 -2.02246,-0.2013 -4.15083,-0.23503 -2.12837,-0.0338 -5.69298,-0.36609 -7.92136,-0.73859 -2.22839,-0.37249 -4.29799,-0.59256 -4.59912,-0.48904 -0.30113,0.10351 -1.89275,-0.205 -3.53693,-0.68565 -1.64418,-0.48064 -3.29986,-0.94775 -3.67929,-1.03802 -0.37944,-0.0902 -1.31075,-0.42126 -2.0696,-0.73554 -0.75886,-0.31428 -1.5867,-0.62254 -1.83966,-0.68504 -0.76559,-0.18917 -7.69248,-2.9834 -9.65813,-3.896 -1.0118,-0.46975 -2.46052,-0.99744 -3.21937,-1.17261 -0.75886,-0.17519 -3.07482,-1.11866 -5.1466,-2.09659 -2.07177,-0.97793 -3.90246,-1.77807 -4.0682,-1.77807 -0.16574,0 -0.85069,-0.3848 -1.52212,-0.8551 -0.67142,-0.47031 -2.35905,-1.22205 -3.75028,-1.67054 -2.90169,-0.93542 -3.7937,-1.51629 -3.37322,-2.19664 0.17371,-0.28107 0.0727,-0.34091 -0.24443,-0.14489 -0.64165,0.39657 -3.58122,-1.95012 -3.35768,-2.68043 0.0843,-0.27547 0.007,-0.35379 -0.17347,-0.17406 -0.17973,0.17972 -1.24632,-0.30589 -2.3702,-1.07913 -1.12389,-0.77326 -2.11881,-1.33054 -2.21092,-1.23842 -0.18364,0.18363 2.50761,5.98883 2.94841,6.35992 0.15022,0.12646 0.98078,1.26476 1.84567,2.52952 1.6804,2.45731 2.30238,5.55054 0.97235,4.83566 -2.76535,-1.48634 -9.22348,-12.92517 -10.13486,-17.95117 -0.84229,-4.64489 0.80849,-5.95025 5.24674,-4.1489 1.36126,0.5525 2.85929,1.07711 3.32895,1.16581 0.46967,0.0887 0.85394,0.19296 0.85394,0.23166 0,0.19487 5.46981,1.43702 6.89867,1.56663 2.46041,0.22319 3.81743,0.79205 4.0548,1.6998 0.31501,1.20461 -0.89185,2.37526 -1.90216,1.84509 -0.65612,-0.3443 -2.4966,-0.7497 -5.60198,-1.23393 -0.37942,-0.0592 -2.13858,-0.51732 -3.90924,-1.01812 -5.30708,-1.50103 -5.74889,-1.56732 -5.74889,-0.86268 0,0.34903 1.39698,1.52967 3.1044,2.62364 1.70742,1.09398 3.93224,2.65004 4.94405,3.45791 2.10567,1.6813 5.37392,3.41944 6.42958,3.41944 0.39452,0 1.4893,0.47754 2.43284,1.06121 0.94354,0.58366 2.75033,1.43851 4.01509,1.89965 1.26476,0.46116 2.94487,1.22536 3.73357,1.69826 0.78871,0.4729 1.86305,0.85981 2.38739,0.85981 0.52436,0 1.06476,0.18023 1.2009,0.40052 0.13615,0.22027 0.91528,0.53405 1.73143,0.69727 0.81614,0.16324 3.04526,1.09546 4.95361,2.07162 1.90835,0.97616 3.98713,1.92487 4.61951,2.10823 0.63237,0.18337 3.01241,1.01338 5.28897,1.8445 2.27656,0.83109 5.52958,1.63938 7.22895,1.79619 1.69935,0.15679 4.59679,0.48025 6.43876,0.7188 1.84195,0.23855 5.21165,0.55882 7.48821,0.71173 6.10649,0.41013 16.77883,1.59528 18.6264,2.06844 7.47593,1.91459 11.40448,2.25355 28.97441,2.49992 4.42665,0.0621 10.92819,0.35537 14.44788,0.65178 6.18283,0.52069 6.4286,0.50762 7.26151,-0.38641 1.09024,-1.17023 1.76675,-1.17563 2.06987,-0.0166 0.19139,0.73193 0.40682,0.8183 1.10671,0.44372 0.58801,-0.31468 1.15476,-0.31219 1.75252,0.008 0.48591,0.26005 2.2968,0.68767 4.02422,0.95029 7.41748,1.12763 11.61645,1.3199 19.32513,0.88487 4.34827,-0.24539 11.8855,-0.64436 16.74939,-0.88659 4.86388,-0.24224 9.04717,-0.64418 9.29618,-0.8932 0.72377,-0.72378 2.1515,0.3133 2.1515,1.56282 0,0.60855 -0.19396,1.22633 -0.43101,1.37283 z m 25.62654,-7.58624 c -1.68814,3.30175 -6.97689,5.82295 -11.10592,5.29429 l -1.67798,-0.21483 0.28173,3.33192 c 0.15494,1.83256 0.33687,3.74584 0.40429,4.25175 0.2893,2.17111 -1.96788,3.50012 -2.92073,1.7197 -0.23836,-0.44539 -0.44819,-3.2911 -0.46627,-6.32379 -0.0181,-3.03268 -0.14954,-6.65225 -0.29212,-8.04347 -0.35567,-3.47041 0.2125,-5.28898 1.65243,-5.28898 1.05858,0 1.12375,0.1615 1.25267,3.10451 0.11069,2.52717 0.33504,3.30355 1.20625,4.17475 1.21789,1.2179 1.85241,1.20844 4.55242,-0.0679 2.06748,-0.97732 3.51277,-2.4183 4.6699,-4.65596 0.65445,-1.26558 0.65625,-1.50977 0.0183,-2.4835 -1.06264,-1.62178 -2.80843,-2.22562 -7.18809,-2.48625 -3.63537,-0.21633 -4.04735,-0.15241 -4.97116,0.7714 -1.33278,1.33277 -3.9849,1.19762 -3.86024,-0.19672 0.0452,-0.5059 0.44098,-1.12678 0.87946,-1.37973 0.43847,-0.25296 1.19971,-0.84423 1.69163,-1.31395 0.78291,-0.74758 1.50449,-0.83274 5.78925,-0.68318 4.07194,0.14213 5.28143,0.36302 7.19441,1.31395 2.43823,1.21203 3.1715,2.27369 3.64843,5.28229 0.22447,1.41608 0.0498,2.31258 -0.75859,3.89368 z m 8.11518,3.49775 c -1.99743,-1.99743 -5.04377,0.0592 -5.34032,3.60541 -0.11603,1.38786 0.0643,1.88512 0.88473,2.44003 0.97002,0.656 1.11569,0.60604 2.48177,-0.85105 1.12106,-1.19573 2.45912,-3.38854 2.67854,-4.38955 0.0104,-0.0451 -0.30722,-0.40735 -0.70472,-0.80484 z m 5.02858,10.66009 c -0.12685,0.56914 -0.5318,1.0348 -0.8999,1.0348 -0.79523,0 -1.36996,-1.36601 -1.81037,-4.3029 l -0.32231,-2.14926 -1.93354,2.0763 c -1.47505,1.58397 -2.26565,2.0763 -3.33408,2.0763 -4.02016,0 -6.01571,-5.8928 -3.46078,-10.21959 1.31635,-2.22923 5.46121,-3.11022 7.39763,-1.57234 0.34781,0.27622 1.20688,0.44196 1.90902,0.36831 1.35472,-0.14211 1.74901,0.21147 2.09502,1.87873 0.3452,1.66324 0.6116,9.67774 0.35931,10.80965 z m 20.29465,10.69293 c -0.83004,2.47935 -1.21875,2.98656 -3.90451,5.09491 -2.7905,2.19057 -4.18886,2.72358 -7.14533,2.72358 -4.95372,0 -11.6986,-3.8799 -12.59573,-7.24549 -0.48419,-1.81651 -0.0355,-4.89588 0.84128,-5.77256 0.83492,-0.83492 1.14044,0.066 0.60928,1.7967 -0.30797,1.00348 -0.35214,2.06545 -0.11211,2.69664 0.97947,2.57621 7.24558,5.90072 11.02354,5.84857 3.62567,-0.0501 7.4437,-2.89835 8.34793,-6.22769 0.81355,-2.99549 0.28219,-9.36431 -0.95506,-11.44723 -0.56344,-0.94858 -1.11586,-1.72467 -1.22758,-1.72467 -0.11173,0 -0.77098,0.4198 -1.46497,0.9329 -2.5116,1.8569 -6.17034,1.2798 -8.54888,-1.34844 -1.40785,-1.55565 -2.48194,-5.16803 -2.03025,-6.82807 0.36039,-1.32445 0.5902,-1.49471 2.01769,-1.49471 1.96306,0 2.4686,0.95314 1.18589,2.23586 -0.92331,0.9233 -0.92342,0.93515 -0.0289,2.78668 1.69109,3.50015 5.46545,4.1539 6.08542,1.05405 0.77989,-3.89944 5.46857,-0.56667 7.46164,5.30383 1.06742,3.14399 1.2923,9.07131 0.44066,11.61514 z m 5.32619,-8.05406 c -0.30108,1.53504 -1.50492,2.03268 -2.63948,1.09108 -0.62315,-0.51716 -0.69317,-1.71512 -0.50631,-8.66131 0.11929,-4.43362 0.0521,-9.3029 -0.14909,-10.8206 -0.20126,-1.51771 -0.41666,-4.00123 -0.47867,-5.51894 -0.0621,-1.5177 -0.39692,-3.34347 -0.74424,-4.05725 -0.48986,-1.00672 -0.50923,-1.44511 -0.0864,-1.95463 1.03636,-1.24874 2.20797,-0.77663 2.65001,1.06783 1.09696,4.57719 1.5918,9.30597 1.74458,16.67179 0.0918,4.42664 0.23719,8.66933 0.32303,9.42818 0.0858,0.75886 0.0348,1.99809 -0.11342,2.75385 z m 10.2776,-10.29004 c -2.77005,-2.17894 -4.75448,-1.82842 -6.16693,1.0893 -0.75541,1.56045 -0.91279,2.43174 -0.64414,3.56607 0.19554,0.82559 0.29884,1.70805 0.22958,1.961 -0.0692,0.25294 0.021,0.31294 0.20065,0.13331 0.17962,-0.17962 0.96764,0.005 1.75116,0.41008 l 1.42455,0.73667 2.19643,-2.45228 c 2.49058,-2.78075 2.73281,-4.08798 1.0087,-5.44415 z m 3.19432,4.88154 c -0.9542,1.9354 -4.49393,5.18416 -5.64849,5.18416 -0.49662,0 -1.03087,0.20696 -1.18718,0.45991 -0.41707,0.67483 -3.25299,0.56078 -3.84679,-0.15468 -0.94602,-1.13989 -1.90926,-4.56539 -1.96512,-6.98842 -0.10221,-4.43358 3.65357,-8.1667 7.45198,-7.407 2.38612,0.47721 4.84563,2.46757 5.42057,4.38657 0.6803,2.27061 0.65744,2.72963 -0.22497,4.51946 z m 10.84291,-3.55416 c -0.71525,0 -1.88113,0.50054 -2.59085,1.11231 l -1.2904,1.11229 0.96856,1.30224 c 0.53271,0.71623 1.32421,1.37211 1.7589,1.45752 1.00737,0.19795 2.46385,-1.10688 2.66538,-2.3879 0.2912,-1.85062 -0.143,-2.59646 -1.51159,-2.59646 z m 7.07996,8.89162 c -0.60383,0.60385 -1.52545,0.28516 -3.05236,-1.05549 -0.99486,-0.87349 -1.7103,-1.20317 -1.99441,-0.91906 -0.66135,0.66137 -4.49667,1.12412 -4.10829,0.49569 0.19357,-0.31321 0.0468,-0.40206 -0.38846,-0.23506 -0.9725,0.3732 -3.34542,-2.33454 -3.61696,-4.12732 -0.55089,-3.63741 2.74048,-5.5646 8.06193,-4.72046 2.4573,0.3898 3.02263,1.06873 3.15524,3.78929 0.048,0.98452 0.57385,2.69569 1.16858,3.80259 1.16161,2.1619 1.24871,2.49585 0.77473,2.96982 z m 17.87149,-2.57632 c -0.47162,0.73792 -2.45596,0.34725 -2.97844,-0.58637 -0.33107,-0.59161 -0.64248,-0.3573 -1.66928,1.25604 -1.62012,2.54556 -2.34495,3.11721 -4.36891,3.44566 -4.3883,0.71213 -8.81298,-6.17422 -6.9171,-10.76549 0.70162,-1.69912 3.09073,-3.34017 4.86643,-3.3427 1.67809,-0.003 4.37054,1.19213 4.71595,2.09224 0.56788,1.47983 -0.93255,2.20012 -1.97257,0.94696 -0.38481,-0.46365 -0.9702,-0.53905 -2.13894,-0.27545 -2.43285,0.54869 -2.96281,1.2073 -2.96281,3.68195 0,1.93757 0.19106,2.36336 1.62568,3.62299 1.85357,1.62744 1.64499,1.55996 3.10526,1.00476 1.18959,-0.45228 2.88022,-3.53403 3.3256,-6.06209 0.14401,-0.81748 0.35367,-1.6349 0.46588,-1.81646 0.91744,-1.48447 1.529,-15.70054 0.88749,-20.63002 -0.2749,-2.1123 0.13843,-2.78147 1.72675,-2.79565 1.74601,-0.0156 1.94768,1.54233 1.96387,15.17002 0.009,7.20912 0.16666,13.41792 0.35134,13.79734 0.1847,0.37943 0.1729,0.94474 -0.0262,1.25627 z m 188.67695,-29.41068 c -0.3655,0.52176 -1.43995,1.2026 -2.38771,1.51295 -0.94779,0.31036 -3.89633,1.71066 -6.55233,3.11177 -2.65596,1.40111 -5.76037,3.01922 -6.89866,3.59578 -3.28933,1.66614 -11.45514,5.21615 -11.9983,5.21615 -0.62233,0 -6.91944,2.16359 -9.4474,3.24596 -1.04471,0.44731 -3.1143,0.97586 -4.59912,1.17457 -1.48479,0.1987 -2.80313,0.38415 -2.9296,0.41209 -0.12644,0.0279 -1.16125,0.20735 -2.29955,0.39868 -1.13826,0.19133 -3.93223,0.73494 -6.20879,1.20802 -5.74185,1.19317 -11.83222,1.76301 -22.2845,2.08501 -4.92091,0.15159 -9.06172,0.34648 -9.20184,0.43307 -0.1401,0.0866 -2.73664,0.27725 -5.77006,0.42368 -5.71246,0.27575 -12.10852,0.92971 -16.09331,1.64544 -1.26476,0.22718 -4.16218,0.55199 -6.43874,0.72184 -2.27658,0.16983 -4.48199,0.37426 -4.90096,0.45431 -3.75388,0.71714 -31.84487,1.00446 -48.44875,0.49554 -2.78246,-0.0853 -6.13079,-0.18331 -7.44072,-0.21783 -1.50354,-0.0396 -2.65401,-0.3351 -3.12025,-0.80136 -1.50318,-1.50318 -0.20612,-1.79653 7.41759,-1.67766 20.98064,0.32713 39.11597,0.3391 43.61556,0.0288 10.11309,-0.69749 19.09669,-1.55888 22.75969,-2.18235 4.8141,-0.81936 16.46039,-1.69713 28.06052,-2.1149 7.73631,-0.27861 9.74537,-0.41658 12.18763,-0.837 0.75886,-0.13063 2.41454,-0.3736 3.6793,-0.53994 6.75963,-0.889 18.28602,-3.18213 20.696,-4.11739 1.5177,-0.58899 4.93255,-1.73235 7.58851,-2.54079 4.70856,-1.43318 9.22878,-3.43034 19.54626,-8.6359 2.78246,-1.40387 5.7995,-2.91956 6.70454,-3.3682 0.90503,-0.44865 1.91344,-1.13853 2.24091,-1.5331 0.81825,-0.98597 1.49442,-0.87859 2.41052,0.38285 0.68633,0.94505 0.69971,1.18306 0.11356,2.01994 z m 4.93945,1.24901 c -0.45149,1.5177 -1.43074,3.67146 -2.17617,4.78611 -0.74541,1.11467 -1.56411,2.75319 -1.81925,3.64117 -0.36362,1.2654 -0.73657,1.65103 -1.72469,1.78335 -1.16834,0.15647 -1.26071,0.0498 -1.26071,-1.45659 0,-0.89398 0.20696,-1.62543 0.45992,-1.62543 0.25295,0 0.4599,-0.30331 0.4599,-0.67403 0,-0.37071 0.72406,-1.99129 1.60901,-3.60125 1.58107,-2.87646 2.50622,-6.20335 2.17033,-7.80494 -0.15333,-0.73107 -0.56976,-0.78091 -4.15944,-0.49774 -5.65076,0.44571 -6.49914,0.44334 -6.46779,-0.0181 0.0151,-0.22466 -0.24278,-0.57572 -0.57348,-0.7801 -0.48118,-0.29739 -0.46609,-0.41534 0.0757,-0.59053 3.43853,-1.1119 12.24767,-1.95057 13.2832,-1.26462 0.99994,0.66236 1.0651,4.93746 0.12345,8.10277 z" />
  </g>
</svg>
