<?xml version="1.0" encoding="UTF-8" standalone="no"?>
<svg
   xmlns:dc="http://purl.org/dc/elements/1.1/"
   xmlns:cc="http://creativecommons.org/ns#"
   xmlns:rdf="http://www.w3.org/1999/02/22-rdf-syntax-ns#"
   xmlns:svg="http://www.w3.org/2000/svg"
   xmlns="http://www.w3.org/2000/svg"
   id="svg2926"
   version="1.1"
   viewBox="0 0 174.38727 75.796486"
   height="75.796486mm"
   width="174.38727mm">
  <defs
     id="defs2920" />
  <metadata
     id="metadata2923">
    <rdf:RDF>
      <cc:Work
         rdf:about="">
        <dc:format>image/svg+xml</dc:format>
        <dc:type
           rdf:resource="http://purl.org/dc/dcmitype/StillImage" />
        <dc:title></dc:title>
      </cc:Work>
    </rdf:RDF>
  </metadata>
  <g
     transform="translate(-18.639705,-110.93509)"
     id="layer1">
    <path
       d="m 31.863937,186.73158 c -0.205502,0 -0.275485,-0.15875 -0.155575,-0.35277 0.119909,-0.19402 0.288025,-0.35277 0.373591,-0.35277 0.08557,0 0.155575,0.15875 0.155575,0.35277 0,0.19402 -0.168116,0.35277 -0.373591,0.35277 z M 35.6193,163.62295 c -0.806926,-0.80693 -2.52521,-1.50162 -2.867528,-1.15933 -0.08713,0.0872 -0.262784,0.91975 -0.390313,1.85023 -0.196876,1.4364 -0.130545,1.7517 0.439447,2.08878 0.821028,0.48554 2.63943,0.55105 2.351219,0.0847 -0.119591,-0.19349 0.04937,-0.23794 0.397246,-0.10445 0.334777,0.12848 0.515752,0.0873 0.404892,-0.0921 -0.110252,-0.17841 -0.03913,-0.42408 0.158062,-0.54597 0.601424,-0.37172 0.40296,-1.22592 -0.493025,-2.12191 z m 3.519752,2.16101 c -0.754433,1.73344 -2.65848,2.96952 -4.93641,3.20463 -1.876055,0.19362 -1.965114,0.24823 -1.965114,1.20465 0,0.55102 0.256355,1.64253 0.569675,2.42562 0.462359,1.15557 0.491357,1.61282 0.153934,2.42742 -0.36822,0.88903 -0.542766,0.97769 -1.52781,0.77623 -1.421791,-0.29077 -1.608719,-1.04796 -1.900872,-7.69974 -0.156898,-3.57264 -0.358881,-5.14152 -0.69813,-5.42306 -0.777134,-0.64498 -0.547079,-1.66772 0.492787,-2.19075 1.21068,-0.60897 5.379852,-0.78983 5.379852,-0.23339 0,0.21566 0.126788,0.31374 0.281755,0.21796 0.517366,-0.31974 3.038554,1.36282 3.852968,2.5713 0.93136,1.38206 0.920909,1.28649 0.297365,2.71913 z m 7.297765,-3.55045 c -0.33954,0.14952 -0.776103,0.28557 -0.970121,0.30232 -0.598541,0.0517 -0.60341,2.24038 -0.0095,4.28323 0.646747,2.2247 0.521731,2.63083 -0.805049,2.61533 -1.33088,-0.0156 -2.219192,-1.39867 -2.516214,-3.91779 -0.438176,-3.71621 0.184785,-5.16292 2.321296,-5.39073 1.843299,-0.19651 3.414157,1.47592 1.979639,2.10764 z m 5.479812,1.15007 c -0.253127,0.25312 -0.27395,0.41746 -0.05292,0.41746 0.470879,0 0.888074,-0.4172 0.652648,-0.65265 -0.100251,-0.10025 -0.370126,0.006 -0.599731,0.23519 z m 6.574578,5.80086 c -0.500592,0.0957 -1.492779,0.0386 -2.204852,-0.12685 -0.712073,-0.16547 -1.858804,-0.30464 -2.548335,-0.30927 -1.980141,-0.0132 -4.694793,-1.54159 -5.194908,-2.92468 -0.451115,-1.24751 -0.309139,-2.82746 0.271462,-3.02098 0.195951,-0.0653 0.356288,-0.32441 0.356288,-0.57573 0,-0.66538 1.93974,-1.36256 3.716285,-1.3357 1.831234,0.0277 2.21787,0.22857 2.655517,1.37967 0.391107,1.02873 -0.02011,1.96255 -1.384512,3.14291 -0.887677,0.768 -0.897996,0.81539 -0.22479,1.03296 0.388038,0.12538 0.949775,0.35552 1.248278,0.51138 0.298503,0.15589 1.211315,0.39637 2.028481,0.53443 0.817139,0.13806 1.485741,0.40519 1.485741,0.59362 0,0.18841 0.15875,0.24448 0.352769,0.12454 0.194019,-0.11991 0.352769,0.0109 0.352769,0.29083 0,0.27988 -0.409575,0.58717 -0.910193,0.68287 z m 7.813728,-5.05085 c -0.277627,0.23043 -1.354005,0.5066 -2.391913,0.6137 -1.484524,0.15322 -1.989323,0.0717 -2.366116,-0.38235 -0.408807,-0.49257 -0.384651,-0.68138 0.164809,-1.28852 0.354092,-0.39126 0.860478,-0.62822 1.125326,-0.5266 0.264875,0.10163 0.386054,0.0302 0.26932,-0.15864 -0.258445,-0.41815 1.769162,-0.11173 2.909622,0.43971 0.923767,0.44667 0.985441,0.72467 0.288952,1.3027 z m 11.594333,-2.44049 c -0.497682,0.18921 -1.123315,0.34404 -1.39028,0.34404 -0.873628,0 -0.942578,0.6971 -0.189468,1.91564 1.098471,1.77739 1.05193,3.51737 -0.123217,4.60647 -1.116065,1.03434 -2.634482,1.80898 -3.389339,1.72913 -0.291041,-0.0308 -0.869367,-0.0743 -1.285187,-0.0966 -0.937313,-0.0505 -1.347126,-1.00235 -0.749379,-1.74064 0.349462,-0.43161 0.350785,-0.49432 0.0061,-0.28723 -0.242543,0.14571 -0.440981,0.17224 -0.440981,0.059 0,-0.48787 1.929183,-0.90546 2.793365,-0.60463 0.850265,0.29599 0.916491,0.2403 0.996395,-0.83785 0.06506,-0.87781 -0.21,-1.50871 -1.146519,-2.62964 -1.378903,-1.65045 -1.410811,-1.75276 -0.791157,-2.53638 0.707019,-0.89416 3.111579,-1.48209 5.644435,-1.38012 1.249178,0.0503 1.291299,0.99272 0.06525,1.45889 z m 6.82572,2.04325 c -0.253126,0.25315 -0.273949,0.41746 -0.05292,0.41746 0.470879,0 0.888074,-0.4172 0.652647,-0.65265 -0.10025,-0.10025 -0.370125,0.006 -0.599731,0.23519 z m 2.661153,1.43422 c -0.733901,0.60495 -1.55575,1.0999 -1.826339,1.0999 -0.397325,0 -0.407485,0.10181 -0.05281,0.52917 0.241538,0.29104 0.807244,0.52917 1.257088,0.52917 1.99734,0 1.026372,1.36125 -1.18229,1.65748 -0.961073,0.1289 -1.77972,-0.0292 -2.771458,-0.53509 -1.722093,-0.87853 -2.173843,-1.39764 -2.459567,-2.82628 -0.167243,-0.83617 -0.08133,-1.16126 0.350679,-1.32702 0.314696,-0.12078 0.572188,-0.44072 0.572188,-0.71102 0,-0.27027 0.119063,-0.49159 0.264583,-0.49183 0.145521,-2.4e-4 0.725832,-0.39711 1.289606,-0.88196 0.791819,-0.68096 1.418564,-0.88151 2.754868,-0.88151 0.951389,0 1.648989,0.13083 1.550168,0.29072 -0.09882,0.15989 0.169624,0.27895 0.596529,0.26458 0.618622,-0.0209 0.798036,0.19823 0.883656,1.07884 0.08882,0.91332 -0.123984,1.29575 -1.2269,2.20485 z m 8.170439,-1.22584 c -0.862965,-0.21659 -1.935691,0.31422 -1.935691,0.95782 0,0.35415 1.432692,0.41452 2.264198,0.0955 0.827696,-0.31763 0.676963,-0.80089 -0.328507,-1.05328 z m 3.444161,5.5725 c -1.616313,1.39777 -4.601263,1.70391 -6.330844,0.64931 -1.43719,-0.8763 -2.093992,-1.92214 -2.399745,-3.82106 -0.233256,-1.44872 -0.176953,-1.57906 1.33567,-3.09168 1.146836,-1.14684 1.751277,-1.51315 2.207763,-1.33797 0.430979,0.16539 0.548402,0.11147 0.373512,-0.1715 -0.338587,-0.54785 0.226245,-0.52856 0.826082,0.0282 0.380074,0.35276 0.425291,0.35276 0.226139,0 -0.565811,-1.00219 2.284281,-0.16336 3.585025,1.05513 1.234887,1.15678 1.019175,2.21665 -0.705538,3.46665 -0.824627,0.59766 -1.935877,1.17411 -2.469462,1.28103 -0.961654,0.19272 -1.247087,0.59896 -0.670983,0.95501 0.164544,0.10171 1.275794,0.21421 2.469462,0.25004 1.193641,0.0358 2.170271,0.0961 2.170271,0.13401 0,0.0379 -0.277812,0.30916 -0.617352,0.6028 z m 6.364529,-5.55117 c -1.03111,0.009 -1.4164,0.20341 -1.81811,0.91776 -0.74219,1.31961 -0.29576,2.81032 0.81409,2.71846 0.46826,-0.0387 0.84381,-0.15581 0.83455,-0.26016 -0.0593,-0.6694 0.10491,-1.15107 0.31935,-0.93663 0.13894,0.13893 0.43979,-0.35055 0.66855,-1.08773 0.22879,-0.73718 0.43262,-1.34546 0.45297,-1.3517 0.0204,-0.006 -0.55179,-0.006 -1.2714,0 z m 6.0095,7.29813 c -0.17063,0.64749 -1.53368,1.11382 -2.34526,0.8024 -0.64659,-0.24812 -0.93366,-1.26309 -0.93993,-3.32306 l -0.005,-1.5839 -0.82109,0.88551 c -0.45161,0.48704 -1.45819,1.17282 -2.23684,1.52392 -1.29429,0.58364 -1.52521,0.59267 -2.69184,0.10522 -0.90154,-0.37668 -1.43576,-0.91532 -1.8201,-1.83517 -0.615021,-1.47193 -0.654814,-1.67817 -0.27942,-1.44812 0.14552,0.0892 0.27657,-0.37978 0.29122,-1.04217 0.0524,-2.36537 3.06526,-4.34594 5.53403,-3.63788 1.49693,0.42931 1.51381,0.42616 1.55879,-0.29115 0.0214,-0.33957 0.14497,-1.01426 0.27482,-1.49932 0.12984,-0.48506 0.3011,-2.21244 0.38055,-3.83862 0.16778,-3.43324 0.37193,-4.25861 1.06837,-4.31935 0.27797,-0.0243 0.70384,-0.0737 0.94638,-0.10986 0.8255,-0.12306 1.30199,0.56846 1.16274,1.68743 -0.21103,1.69588 -0.29509,16.20851 -0.0974,16.81097 0.0955,0.29104 0.10441,0.79195 0.0198,1.11315 z m 21.05679,-2.3033 c -0.68363,1.69296 -4.1752,3.22887 -5.87287,2.58342 -1.37991,-0.52465 -0.98277,-1.33684 1.10524,-2.26026 1.49297,-0.66027 1.9403,-1.03473 1.9403,-1.62433 0,-0.73393 -2.47814,-3.50591 -3.13428,-3.50591 -0.17116,0 -0.39497,-0.32031 -0.49734,-0.71176 -0.214,-0.81828 0.51075,-1.67788 1.6278,-1.93069 3.39164,-0.76764 3.75681,-0.79407 4.37271,-0.31668 0.5933,0.45987 0.57362,0.53816 -0.34044,1.3539 -1.14318,1.02029 -1.21036,1.45182 -0.30168,1.93815 0.67466,0.36108 1.46712,2.11693 1.42584,3.15931 -0.0124,0.3106 -0.15867,0.90228 -0.32528,1.31485 z m 6.52127,-4.80708 c -0.30044,0.24931 -0.46683,0.53268 -0.36981,0.6297 0.097,0.097 0.42217,-0.0276 0.72258,-0.27693 0.30043,-0.24932 0.46683,-0.53269 0.36983,-0.62971 -0.097,-0.097 -0.42217,0.0276 -0.7226,0.27694 z m 3.5964,6.67668 c -1.79409,0.68212 -5.55905,-0.69014 -7.28416,-2.65496 -1.02148,-1.16338 -1.03439,-1.22513 -0.54626,-2.60869 0.70778,-2.0061 1.56734,-3.0983 3.06033,-3.88869 0.95909,-0.50776 1.34141,-0.57314 1.47142,-0.25169 0.13732,0.33932 0.18183,0.33787 0.2036,-0.007 0.0388,-0.61476 1.61494,-0.55052 2.9088,0.11856 0.96282,0.49789 1.06069,0.69119 0.88818,1.75424 -0.24672,1.52048 -1.16501,2.76992 -2.62263,3.56851 -0.63058,0.34547 -1.14651,0.73356 -1.14651,0.86238 0,0.29046 2.64607,1.3692 3.35851,1.3692 0.84717,0 0.61352,1.39379 -0.29128,1.73781 z m 8.02357,-47.45125 c -0.30295,0.30295 -0.57483,0.86995 -0.60423,1.25997 -0.0293,0.39002 -0.32303,0.79473 -0.65257,0.89932 -0.32956,0.10459 -1.01748,0.73859 -1.52873,1.40885 -1.68524,2.20951 -6.68878,7.09758 -8.30527,8.11364 -9.30043,5.84581 -14.89218,7.7892 -29.28057,10.17632 -9.4759,1.5721 -11.749858,1.74292 -20.140351,1.51294 -4.348031,-0.11919 -8.302387,-0.28458 -8.787448,-0.36758 -0.48506,-0.083 -2.23131,-0.33597 -3.880564,-0.56216 -1.649228,-0.2262 -3.707845,-0.5678 -4.574699,-0.75909 -0.866854,-0.1913 -3.892471,-0.73891 -6.723618,-1.21687 -2.831148,-0.47797 -6.011281,-1.19209 -7.066968,-1.5869 -1.055688,-0.39483 -2.633795,-0.95583 -3.50692,-1.24669 -0.873125,-0.29085 -1.905,-0.67053 -2.293064,-0.84373 -0.388065,-0.17319 -1.658065,-0.71977 -2.822231,-1.21462 -1.164167,-0.49482 -2.513542,-1.10802 -2.998603,-1.36266 -2.84009,-1.49092 -4.806315,-2.57519 -5.115269,-2.82083 -0.194045,-0.15425 -1.545034,-0.95056 -3.002201,-1.76956 -3.571266,-2.00718 -6.991694,-4.80319 -10.488215,-8.57353 -1.598904,-1.72413 -4.584674,-4.9254 -6.635036,-7.11398 -3.09245,-3.30089 -3.687948,-4.11274 -3.493241,-4.7625 0.696807,-2.32553 2.595827,-2.10733 3.928666,0.45146 0.454819,0.87312 1.269418,2.06375 1.810279,2.64583 0.540835,0.58208 2.190618,2.49672 3.666199,4.25474 4.683734,5.5803 8.65759,8.78406 15.553214,12.53913 2.173605,1.18364 4.110752,2.26872 4.304771,2.41128 0.194019,0.14256 2.019644,0.93774 4.056936,1.76705 2.037291,0.82934 4.101041,1.67513 4.586129,1.87955 0.48506,0.20441 1.135697,0.42018 1.445868,0.47945 0.310145,0.0593 1.270318,0.41058 2.133732,0.78068 1.342655,0.57552 2.942802,0.97446 5.239835,1.30632 0.969566,0.1401 6.863768,1.18915 7.9375,1.41272 9.525767,1.98358 25.188095,2.32526 33.161129,0.72345 0.38806,-0.078 1.65806,-0.30771 2.82223,-0.51054 1.16417,-0.20283 3.62479,-0.64196 5.46807,-0.97581 1.84324,-0.33385 3.66887,-0.6472 4.05694,-0.69633 0.38806,-0.0491 0.70556,-0.11467 0.70556,-0.14568 0,-0.0965 1.00473,-0.3497 2.29304,-0.5779 0.6791,-0.12028 1.40594,-0.35436 1.6152,-0.52015 0.20926,-0.16578 0.68551,-0.36012 1.05833,-0.43185 0.37283,-0.0717 0.94808,-0.2477 1.27834,-0.39105 0.33025,-0.14335 0.79134,-0.14267 1.02465,0.003 0.24365,0.1506 0.33232,0.11356 0.20833,-0.0871 -0.11895,-0.19246 1.08379,-0.88083 2.67952,-1.53356 1.59245,-0.65137 2.99667,-1.33283 3.12049,-1.51436 0.12383,-0.18151 0.42617,-0.2058 0.67189,-0.0539 0.3113,0.1924 0.35917,0.13446 0.15795,-0.19114 -0.20968,-0.33925 -0.12798,-0.40553 0.29827,-0.24196 0.32287,0.1239 0.58703,0.0764 0.58703,-0.1056 0,-0.52459 3.87842,-2.86496 4.30789,-2.59953 0.22241,0.13745 0.28758,0.078 0.15306,-0.13956 -0.28747,-0.4652 2.22623,-2.60361 2.70947,-2.30495 0.19341,0.11951 0.23556,0.0342 0.0952,-0.19288 -0.13843,-0.22402 -0.0572,-0.4073 0.18066,-0.4073 0.23783,0 0.33943,-0.093 0.22582,-0.20659 -0.3229,-0.32289 1.21034,-1.91278 1.60777,-1.66714 0.19478,0.12036 0.25813,0.0635 0.14076,-0.12633 -0.11732,-0.18987 0.45865,-1.12721 1.28,-2.08299 1.7055,-1.98472 2.81845,-3.63312 2.93124,-4.34152 0.22884,-1.43753 1.81591,-1.08389 2.57074,0.57285 0.47654,1.04587 0.48194,0.99452 -0.17293,1.64939 z m 1.96194,39.01067 c -0.7761,0.39595 -1.4111,0.87857 -1.4111,1.07251 0,0.19394 0.39687,0.98132 0.88193,1.74972 1.12202,1.77739 1.11408,2.84501 -0.0314,4.20627 -1.0415,1.23774 -2.63625,1.45438 -3.9471,0.53623 -1.33872,-0.93766 -0.82257,-1.92027 1.00869,-1.92027 0.92073,0 0.8527,-0.87299 -0.17362,-2.2284 -0.46773,-0.61764 -0.88339,-1.36112 -0.92376,-1.65216 -0.15515,-1.11869 0.0257,-2.11667 0.3838,-2.11667 0.20548,0 0.2603,0.18328 0.12187,0.40727 -0.15719,0.25437 -0.0966,0.31144 0.16134,0.15203 0.22717,-0.14041 0.32599,-0.39608 0.21963,-0.56819 -0.49964,-0.80843 3.27798,-2.03388 4.64855,-1.50794 0.8827,0.33869 0.47651,1.14755 -0.93885,1.8696 z m 3.34825,-40.49808 c -0.0526,0.0578 -0.20193,1.03227 -0.33171,2.16559 -0.12978,1.13332 -0.37589,2.42845 -0.54684,2.87814 -0.17095,0.44966 -0.40897,1.90365 -0.52893,3.23109 -0.31919,3.53253 -0.40209,3.7067 -1.7046,3.58018 -0.9243,-0.0898 -1.1493,-0.28919 -1.31636,-1.16663 -0.11081,-0.58208 -0.0854,-1.39036 0.0566,-1.79615 0.142,-0.40582 0.33509,-1.19957 0.42913,-1.76389 0.094,-0.56433 0.43603,-2.52992 0.76004,-4.36793 0.66408,-3.76709 0.50456,-5.65399 -0.478,-5.65399 -0.93414,0 -7.07628,1.33861 -8.50686,1.85396 -2.45424,0.88414 -2.44342,0.95671 0.50168,3.36344 0.71681,0.58576 0.73745,1.53263 0.0275,1.26018 -0.29104,-0.11168 -0.52917,-0.34483 -0.52917,-0.5181 0,-0.17325 -0.22595,-0.31502 -0.5021,-0.31502 -0.27617,0 -0.97374,-0.39687 -1.55022,-0.88196 -0.57647,-0.48506 -1.19906,-0.88193 -1.38353,-0.88193 -0.57129,0 -1.50305,-1.25262 -1.50305,-2.02063 0,-1.34133 2.86745,-2.45514 10.75971,-4.17946 2.13431,-0.46633 4.06209,-0.91747 4.28395,-1.00256 0.90445,-0.34687 1.79998,1.3471 1.98053,3.74624 0.0979,1.30045 0.13486,2.41167 0.0822,2.46943 z m 6.52531,39.93748 c -0.77385,0.37076 -1.40689,0.77377 -1.40689,0.89553 0,0.12179 0.3175,0.84421 0.70556,1.60536 0.88495,1.73575 0.88395,2.40732 -0.006,4.24612 -0.87712,1.81194 -2.45798,2.73603 -4.40351,2.5741 -1.30067,-0.10827 -1.41968,-0.20587 -1.52041,-1.24714 -0.10369,-1.07177 -0.0233,-1.1548 1.56896,-1.61906 2.38921,-0.69668 2.59477,-1.22389 1.28571,-3.29766 -1.70405,-2.6996 -1.74889,-3.16598 -0.38544,-4.00707 0.89736,-0.55358 1.65158,-0.69834 3.25649,-0.62513 1.14879,0.0524 2.13897,0.25403 2.20046,0.44805 0.0615,0.19404 -0.52123,0.65614 -1.2949,1.0269 z m 5.9399,6.83125 c -0.51599,0.51596 -2.62906,0.57745 -2.93317,0.0854 -0.34095,-0.55163 0.16004,-2.58164 0.86905,-3.52163 0.55284,-0.7329 0.77205,-0.80473 1.47579,-0.48361 0.65744,0.30004 0.84627,0.69525 0.92345,1.93247 0.0551,0.88389 -0.0896,1.74183 -0.33512,1.98742 z m -0.007,-9.17482 c -0.92951,0.35086 -1.26995,0.33205 -1.9403,-0.10719 -1.11352,-0.72961 -1.0977,-2.36537 0.03,-3.1043 0.77142,-0.50543 0.88564,-0.50139 1.34495,0.0476 0.53004,0.63355 1.6926,2.43782 1.6926,2.62689 0,0.0613 -0.50729,0.30295 -1.12731,0.53697 z m 9.21438,4.35123 c -1.03151,-0.76258 -1.11842,-0.77221 -1.75702,-0.19429 -0.81066,0.73361 -1.28188,2.87819 -0.74943,3.41062 0.50157,0.50159 2.38103,-0.26983 3.07647,-1.26273 0.69066,-0.98605 0.67746,-1.03126 -0.57002,-1.9536 z m 2.8739,2.69597 c -2.08108,2.87285 -6.66263,4.08617 -7.93835,2.1023 -0.90125,-1.40152 -0.70077,-5.18507 0.24384,-4.60129 0.22493,0.13901 0.26454,0.0577 0.10089,-0.20709 -0.35235,-0.5701 1.39774,-2.43234 2.88311,-3.0679 1.97202,-0.84375 3.23181,-0.6297 4.55578,0.77412 1.53038,1.62269 1.57427,3.04025 0.15473,4.99986 z m 12.41801,3.00273 c -0.10599,1.01412 -0.36597,1.44256 -1.10808,1.82634 -1.66412,0.86053 -1.9386,0.33046 -1.66171,-3.20892 0.2582,-3.30094 0.0875,-4.35205 -0.70686,-4.35205 -0.6763,0 -1.5239,1.40718 -2.2383,3.71618 -0.45421,1.46796 -0.85934,2.09637 -1.59901,2.48009 -1.70167,0.88284 -2.03359,0.22786 -1.78572,-3.52345 0.33401,-5.05526 0.55245,-5.75964 1.78617,-5.75964 0.61251,0 0.93604,0.23702 1.074,0.78685 l 0.19748,0.78684 1.28392,-0.65455 c 3.89184,-1.98419 5.51056,0.70421 4.75811,7.90231 z"
       style="fill:#333333;fill-opacity:1;stroke-width:0.35277778"
       id="path1681" />
  </g>
</svg>
