<?xml version="1.0" encoding="UTF-8" standalone="no"?>
<svg
   xmlns:dc="http://purl.org/dc/elements/1.1/"
   xmlns:cc="http://creativecommons.org/ns#"
   xmlns:rdf="http://www.w3.org/1999/02/22-rdf-syntax-ns#"
   xmlns:svg="http://www.w3.org/2000/svg"
   xmlns="http://www.w3.org/2000/svg"
   viewBox="0 0 341.38123 353.56487"
   height="353.56488"
   width="341.38123"
   id="svg914"
   version="1.1">
  <metadata
     id="metadata920">
    <rdf:RDF>
      <cc:Work
         rdf:about="">
        <dc:format>image/svg+xml</dc:format>
        <dc:type
           rdf:resource="http://purl.org/dc/dcmitype/StillImage" />
        <dc:title></dc:title>
      </cc:Work>
    </rdf:RDF>
  </metadata>
  <defs
     id="defs918" />
  <path
     d="m 89.054192,345.91615 c -4.27847,2.8033 -16.53915,2.8417 -21.83324,0.068 -16.34085,-8.5605 -20.23647,-36.1579 -6.31824,-44.7599 4.57785,-2.8292 13.28413,-3.5518 16.70809,-1.3867 1.76799,1.118 1.75606,1.5087 -0.1028,3.3682 -1.15658,1.1569 -4.14824,3.1286 -6.64812,4.3815 -5.89093,2.9526 -8.1717,7.4719 -7.45084,14.7638 1.01015,10.2179 10.07714,18.1966 21.17279,18.6314 7.30664,0.2863 8.89344,2.0366 4.47243,4.9334 z M 135.25706,215.04531 c -3.32528,-5.0476 -15.48984,-1.8591 -16.68106,4.3723 -1.16045,6.0705 0.26055,8.448 5.04931,8.448 2.9822,0 5.68532,-1.2286 8.51115,-3.8683 4.14942,-3.8761 4.95053,-6.1743 3.1206,-8.952 z m 7.70075,32.8106 c -4.93128,3.5113 -15.11695,3.898 -21.10553,0.8012 -3.90882,-2.0213 -10.90814,-9.3477 -10.90814,-11.4178 0,-0.5986 -1.0091,-1.4756 -2.24244,-1.9489 -1.50526,-0.5776 -3.18598,0.3228 -5.11264,2.7391 -1.90027,2.3832 -3.465,3.232 -4.630258,2.5118 -1.09901,-0.6792 -1.43864,-0.5677 -0.90429,0.2969 0.8092,1.3093 -2.51387,3.067 -9.59796,5.0768 -6.15608,1.7465 -19.94285,-0.6895 -24.20637,-4.277 -4.97151,-4.1832 -5.58066,-10.0926 -0.97271,-9.4363 1.65,0.235 4.6014,1.4927 6.55867,2.7948 7.95602,5.2932 21.36046,3.2931 25.99049,-3.8781 1.561,-2.4177 1.30712,-3.483 -2.11684,-8.882 -2.13981,-3.3741 -3.48747,-6.5841 -2.99477,-7.1332 0.49268,-0.5492 0.14114,-0.564 -0.78119,-0.033 -1.96625,1.132 -29.23935,-25.9342 -31.122,-30.8859 -3.41849,-8.9914 0.0728,-12.6198 13.79221,-14.3339 8.59591,-1.074 19.67343,0.151 19.67343,2.1756 0,0.7316 -0.53225,1.0013 -1.1828,0.5993 -0.65053,-0.4021 -1.10053,0.3125 -1,1.588 0.15029,1.9066 -1.12108,2.3804 -7.15053,2.6646 -11.93131,0.5623 -13.26356,1.1321 -12.9454,5.5361 0.1533,2.1221 0.68069,3.6111 1.17197,3.3089 1.41676,-0.8715 6.49717,6.3049 5.54925,7.8387 -0.49217,0.7964 -0.20749,0.9828 0.67132,0.4396 1.76687,-1.0919 12.81035,9.5576 12.86364,12.4049 0.0193,1.0305 1.16067,2.039 2.5364,2.2409 3.17739,0.4663 4.90536,2.196 5.37232,5.3776 0.20243,1.3792 1.07046,2.5076 1.928948,2.5076 0.85851,0 2.74736,1.8 4.19744,4 1.45009,2.2 2.70969,3.4 2.79912,2.6667 0.0895,-0.7333 0.24337,-1.9333 0.34212,-2.6667 0.43849,-3.2565 3.96545,-10 5.23019,-10 0.76658,0 0.98896,-0.4048 0.49416,-0.8996 -0.4948,-0.4948 0.7552,-1.9908 2.77777,-3.3245 6.78831,-4.4763 27.10094,-2.3138 25.97771,2.7656 -0.20149,0.9112 0.2184,1.2954 0.93311,0.8536 2.47808,-1.5315 4.06521,3.9522 2.63893,9.1178 -1.89248,6.8539 -8.24583,13.5667 -15.44115,16.3146 l -6.11123,2.3339 3.11936,2.5259 c 2.45828,1.9906 4.80247,2.4327 11.06114,2.086 9.34473,-0.5177 10.88731,1.2489 4.84655,5.5503 z m -6.94309,68.63214 c -1.71114,-3.7555 -9.84876,-8.6224 -14.41701,-8.6224 -1.53231,0 -4.5562,0.9154 -6.71979,2.0342 -3.51886,1.8197 -3.93378,2.7026 -3.93378,8.37 0,7.0171 2.81424,12.2625 6.57901,12.2625 2.93023,0 5.98303,3.3452 4.79985,5.2596 -0.52497,0.8494 0.0253,1.0403 1.43728,0.4985 1.49108,-0.5722 1.97063,-0.3645 1.37686,0.5962 -1.43902,2.3284 7.08157,-0.5206 9.91068,-3.3137 2.8376,-2.8016 3.34996,-11.8546 0.9669,-17.0849 z m 40.58843,2.0143 c -2.17033,-1.7072 -5.39285,-2.6367 -9.14142,-2.6367 -4.69959,0 -6.1994,0.6257 -7.96716,3.3236 -2.46343,3.7597 -1.71402,9.0502 1.88678,13.3201 2.05234,2.4336 2.05351,2.5079 0.0148,0.9353 -1.71068,-1.3197 -2.44022,-1.3435 -3.20601,-0.1045 -0.60599,0.9805 -0.42879,1.2564 0.45583,0.7097 0.79597,-0.4919 1.83013,-0.2748 2.29814,0.4824 0.46802,0.7573 1.38759,1.0452 2.0435,0.6398 0.65592,-0.4054 2.43578,0.5062 3.95526,2.0256 2.64359,2.6436 2.92675,2.6658 6.56847,0.5146 4.51215,-2.6654 7.87413,-9.0908 7.03993,-13.4547 -0.32789,-1.7152 -2.10456,-4.3051 -3.94814,-5.7553 z m 13.44332,14.6966 c -2.34461,6.103 -14.46925,14.6798 -20.71588,14.6542 -4.78096,-0.02 -16.76592,-7.5646 -19.05856,-11.998 -1.13466,-2.1942 -2.29869,-3.9895 -2.58672,-3.9895 -0.28802,0 -1.86866,2.1762 -3.51252,4.836 -5.70401,9.2293 -20.51159,12.1606 -31.54431,6.2444 -5.87141,-3.1484 -12.42316,-16.0832 -13.086578,-25.8362 -0.43315,-6.3675 -0.10387,-7.338 3.820408,-11.2624 4.00867,-4.0086 13.55548,-7.3774 20.64745,-7.2859 6.69283,0.086 21.12823,10.4718 19.70626,14.1774 -0.41376,1.0782 -0.15893,1.5719 0.57672,1.1173 0.72493,-0.4481 1.32093,0.2708 1.32444,1.5974 0.005,1.8377 1.07957,1.2436 4.51393,-2.4955 8.04786,-8.7619 21.24711,-9.5785 32.47059,-2.0089 3.91589,2.641 6.45993,6.3825 2.80309,4.1224 -0.96138,-0.5942 -1.17709,-0.3652 -0.57453,0.6097 0.53064,0.8586 1.49324,1.2345 2.13912,0.8354 2.67291,-1.652 5.08883,11.4458 3.07709,16.6822 z m 26.55506,-111.67604 c -10.61378,-0.5751 -11.98951,0.1801 -12.52246,6.8736 -0.26744,3.3589 0.0579,5.5561 0.75832,5.1231 0.67875,-0.4195 0.83446,0.2638 0.3486,1.5298 -0.59168,1.542 -0.37428,1.9767 0.66667,1.3334 1.04096,-0.6434 1.25835,-0.2086 0.66667,1.3333 -0.48288,1.2584 -0.35283,1.9634 0.28901,1.5668 0.64184,-0.3967 1.90843,0.1721 2.81465,1.2641 2.00587,2.4169 7.17507,2.6003 8.97886,0.3186 2.17333,-2.7492 4.12562,-9.368 4.22776,-14.3333 0.0956,-4.6445 0.066,-4.6683 -6.22808,-5.0094 z m 19.95244,20.3079 c -1.00536,0.3858 -3.51467,0.7015 -5.57623,0.7015 -2.16937,0 -4.08524,0.878 -4.5482,2.0845 -0.44773,1.1668 -1.48175,1.6631 -2.34867,1.1273 -0.94174,-0.5821 -1.18964,-0.3761 -0.63248,0.5254 1.59202,2.5759 -6.97893,5.9714 -13.05458,5.1717 -4.31898,-0.5685 -6.48631,-1.9129 -10.44607,-6.4798 -4.78808,-5.5222 -4.99653,-5.6182 -5,-2.3025 -0.004,3.8071 -3.65103,7.8734 -7.06168,7.8734 -2.999,0 -4.79517,-3.855 -4.70891,-10.1063 0.14032,-10.1668 -6.80426,-20.1876 -13.16745,-19.0002 -1.31939,0.2462 -3.36505,2.3797 -4.54593,4.7411 -1.18087,2.3614 -2.38124,4.0593 -2.66751,3.773 -0.28625,-0.2862 -0.30856,2.144 -0.0496,5.4004 0.68623,8.6282 -0.53976,12.0866 -4.65048,13.1183 -4.87531,1.2236 -6.2076,-0.5932 -8.05371,-10.9825 -0.87409,-4.9191 -2.00077,-11.1643 -2.50374,-13.8783 -0.85586,-4.6181 -0.66915,-4.9991 2.9121,-5.9431 2.10463,-0.5548 4.60184,-0.8522 5.54936,-0.6609 0.94751,0.1913 3.54355,-1.1843 5.76896,-3.0569 2.98996,-2.5159 5.49878,-3.3802 9.61059,-3.3109 6.20432,0.1045 10.89265,1.5547 10.90743,3.374 0.0164,2.0159 4.1752,7.2362 5.05993,6.3515 0.45677,-0.4568 1.54927,0.747 2.42776,2.6751 1.76584,3.8755 3.83595,4.6523 3.83595,1.4394 0,-3.9477 4.09068,-10.1842 6.15937,-9.3904 1.08852,0.4177 1.64025,0.2112 1.22607,-0.459 -0.41418,-0.6702 2.50754,-2.1664 6.49272,-3.3249 5.41977,-1.5755 8.15877,-1.7593 10.86872,-0.7289 1.99262,0.7576 3.88634,1.114 4.20828,0.7921 0.4735,-0.4735 -2.1848,-23.4741 -4.02466,-34.8226 -0.72381,-4.4646 1.5077,-7.3334 5.70439,-7.3334 2.13092,0 4.22445,0.5664 4.65231,1.2587 0.689,1.1148 3.06804,22.0145 5.29997,46.5598 0.88157,9.695 1.97004,14.9027 3.53429,16.9097 1.64028,2.1045 0.8943,7.1084 -1.1783,7.9037 z m 4.79017,101.76814 c -0.88,0.88 -3.53915,1.6 -5.90921,1.6 -5.15178,0 -8.2879,-3.794 -12.54818,-15.1806 l -2.84622,-7.6072 -5.85174,5.3939 c -6.03696,5.5646 -12.5794,7.2087 -14.83262,3.7273 -0.59328,-0.9167 -1.0787,-11.8667 -1.0787,-24.3334 0,-15.5465 -0.56137,-24.2535 -1.78709,-27.7182 -1.40517,-3.972 -1.44152,-5.468 -0.17008,-7 1.85771,-2.2384 7.95717,-2.6496 7.95717,-0.5364 0,0.7766 0.58242,1.0521 1.29424,0.6121 2.3438,-1.4485 3.37243,6.3727 3.37243,25.6425 0,10.4499 0.42663,19 0.94805,19 1.6899,10e-5 6.44068,-5.8375 5.9189,-7.273 -0.88906,-2.4458 1.8028,-6.0603 4.51329,-6.0603 1.44087,0 2.61976,-0.5862 2.61976,-1.3026 0,-0.7164 1.53599,-2.309 3.41331,-3.5391 3.15898,-2.0698 3.57569,-2.0741 5.5928,-0.057 2.0171,2.0171 1.98969,2.554 -0.36783,7.2058 -3.85343,7.6034 -4.72035,9.901 -3.4364,9.1074 1.26367,-0.7809 8.53101,17.5269 7.57277,19.0774 -0.32028,0.5182 1.1744,1.7198 3.32151,2.6702 4.15745,1.8403 4.90436,3.9707 2.30384,6.5712 z m 17.18759,-36.0148 c -0.87318,0.6859 -3.20184,1.6323 -5.17482,2.1031 -4.91462,1.1727 -8.13656,-3.1088 -5.92084,-7.868 1.91474,-4.1127 3.68722,-4.7825 7.51126,-2.8384 3.75504,1.9089 5.8143,6.8516 3.5844,8.6033 z m -0.2127,30.0495 c -2.65149,2.6515 -6.02273,2.861 -9.09772,0.5653 -1.97904,-1.4774 -2.06217,-2.7263 -0.73217,-11 1.48939,-9.2653 3.5082,-13.6731 4.73277,-10.3333 0.33612,0.9167 1.52531,1.6667 2.64266,1.6667 1.28824,0 1.74101,0.7571 1.23749,2.0692 -0.45532,1.1866 -0.2318,1.7218 0.52401,1.2547 0.72494,-0.4481 1.32467,0.2708 1.33275,1.5974 0.008,1.3266 0.36963,4.5576 0.80347,7.18 0.57441,3.4721 0.18217,5.3745 -1.44326,7 z m 9.22944,-82.08364 c -2.9984,4.28084 -8.93278,6.98234 -15.33812,6.98234 -4.51452,0 -6.36726,-0.8344 -10.06621,-4.53344 -7.32767,-7.3276 -6.69173,-7.7005 9.01571,-5.2861 3.99736,0.6144 5.1454,0.2589 6.33352,-1.9611 1.93798,-3.6212 0.14002,-8.1089 -6.40482,-15.9863 -2.84833,-3.4282 -6.14085,-8.1433 -7.3167,-10.4779 -2.06195,-4.0939 -2.01859,-4.3866 1.21989,-8.2353 3.72996,-4.4328 9.23473,-6.1823 15.27697,-4.8552 3.47778,0.7638 3.81042,1.2145 2.5856,3.5031 -0.7731,1.4446 -2.86916,3.1829 -4.6579,3.863 -1.78875,0.6801 -3.24408,1.7013 -3.23407,2.2695 0.0465,2.6372 1.70923,6.9468 2.49327,6.4622 1.62357,-1.0034 10.82186,14.3075 10.82186,18.0134 0,2.02 0.30838,4.4762 0.68528,5.4584 0.37691,0.9822 -0.25952,3.1347 -1.41428,4.7834 z m 26.46023,49.91034 c -4.5756,-0.4565 -8.39789,2.5023 -8.39789,6.5005 0,3.6211 6.27276,3.4064 10.27301,-0.3517 3.91785,-3.6806 3.32329,-5.6303 -1.87512,-6.1488 z m 21.22006,40.1477 c -3.88878,3.5193 -14.60571,7.7184 -20.2759,7.9446 -6.70421,0.2673 -12.69484,-3.8864 -12.63056,-8.7576 0.0247,-1.8683 -0.36284,-3.1449 -0.86108,-2.8369 -1.32284,0.8175 -7.34599,-15.3341 -7.64777,-20.5082 -0.14166,-2.4286 -0.34619,-4.8286 -0.45452,-5.3333 -0.33498,-1.5606 1.87308,-11.4618 3.07718,-13.7985 3.9494,-7.6642 18.7207,-10.0831 29.22551,-4.7858 7.56992,3.8173 8.11439,7.0081 2.57068,15.0656 -4.68061,6.8031 -10.02979,10.6098 -16.65531,11.8527 -4.57494,0.8583 -4.75277,1.5286 -2.11664,7.9783 0.87595,2.1431 1.27502,4.7243 0.88682,5.7359 -0.3882,1.0116 -0.11267,1.4727 0.61224,1.0247 0.72493,-0.448 1.31806,-0.1644 1.31806,0.6304 0,2.041 6.70774,4.3493 9.22994,3.1763 1.15686,-0.538 2.7034,-1.0705 3.43673,-1.1833 0.73333,-0.1128 2.38333,-0.5971 3.66667,-1.0762 5.02056,-1.8744 6.06073,-1.9437 7.50419,-0.5003 2.03053,2.0306 1.8945,2.8551 -0.88624,5.3716 z M 340.725,40.873915 c -0.3714,0.9213 -1.31674,1.2785 -2.10075,0.794 -0.784,-0.4845 -1.05525,-0.282 -0.60277,0.4501 0.45248,0.7322 0.2777,3.3749 -0.38839,5.8727 -0.97917,3.672 -2.44253,14.6611 -2.91293,21.8749 -0.1312,2.0114 1.26836,8.4538 2.14441,9.8712 0.89687,1.4512 -5.43668,6.7955 -8.05332,6.7955 -3.47751,0 -4.60488,-5.2375 -4.15237,-19.2906 0.44066,-13.6853 0.39348,-13.9507 -2.08239,-11.7101 -1.39329,1.261 -6.08401,8.6641 -10.4238,16.4515 -4.3398,7.7873 -9.0871,15.5384 -10.54955,17.2247 -1.46245,1.6862 -2.659,3.768 -2.659,4.6262 0,6.113 -48.83235,43.718895 -61.98065,47.731395 -3.76174,1.148 -18.43059,1.6335 -49.35268,1.6335 h -44 l -21.46501,-7.7515 c -22.701298,-8.1979 -45.099208,-18.9235 -43.824458,-20.9861 0.41872,-0.6775 -0.0249,-0.9301 -0.98587,-0.5614 -2.42745,0.9315 -17.29624,-8.5701 -16.19627,-10.3499 0.5274,-0.8534 0.25486,-1.0412 -0.67608,-0.4658 -4.41808,2.7305 -38.90353,-38.710895 -36.85411,-44.287895 0.35085,-0.9547 0.0661,-1.3825 -0.63268,-0.9506 -1.58231,0.9779 -6.50312,-8.4219 -15.6945504,-29.9801 C 0.37985165,11.677415 -0.30818835,9.2779147 0.08893165,2.7811147 c 0.16178,-2.64669998 0.80356,-3.02519998 4.52186995,-2.66669998 4.13919,0.3991 4.5162,0.92559998 8.4152304,11.75120028 4.79178,13.3043 5.64502,15.5502 7.5981,20 0.80466,1.8333 1.54253,3.6333 1.6397,4 0.50154,1.8927 8.79656,17.8668 10.08239,19.4162 0.82178,0.9902 1.0498,2.5193 0.50669,3.3981 -0.60124,0.9728 -0.42295,1.2488 0.45589,0.7057 0.79384,-0.4906 1.82584,0.3131 2.29335,1.7861 0.46751,1.4729 1.60167,3.4317 2.52036,4.3527 4.77952,4.7915 11.39377,14.7488 10.62421,15.9939 -0.48469,0.7843 -0.33857,1.0909 0.32474,0.6815 0.6633,-0.4095 3.90601,1.9341 7.20601,5.2081 5.26981,5.2282 20.74088,15.737495 32.66667,22.189895 11.654878,6.3059 22.804898,11.6011 24.428258,11.6011 1.01026,0 7.92718,2.5067 15.37095,5.5704 l 13.53412,5.5704 32,0.7767 c 42.07866,1.0214 57.58915,-0.09 67.30631,-4.8222 9.82867,-4.7866 18.23971,-10.7465 32.90512,-23.316 12.73072,-10.911195 19.75559,-20.348395 30.54484,-41.033595 5.71166,-10.9505 13.13204,-19.3532 16.04562,-18.1698 1.02562,0.4166 2.76478,1.1217 3.86478,1.5668 1.42199,0.5754 2,-0.05 2,-2.1654 0,-3.3237 0.44916,-3.3254 -28.32264,0.1022 -7.14411,0.8511 -13.89411,1.2002 -15,0.7759 -2.74485,-1.0533 -2.52731,-5.2552 0.46328,-8.9485 2.17303,-2.6835 3.91669,-3.1173 14.33333,-3.566 13.19135,-0.5681 31.59611,-2.3222 36.17333,-3.4475 4.66157,-1.146 8.33736,5.3154 6.13356,10.7817 z"
     style="fill:#333333;fill-opacity:1;stroke-width:1.33333337"
     id="path1569" />
</svg>
