<?xml version="1.0" encoding="UTF-8" standalone="no"?>
<svg
   xmlns:dc="http://purl.org/dc/elements/1.1/"
   xmlns:cc="http://creativecommons.org/ns#"
   xmlns:rdf="http://www.w3.org/1999/02/22-rdf-syntax-ns#"
   xmlns:svg="http://www.w3.org/2000/svg"
   xmlns="http://www.w3.org/2000/svg"
   viewBox="0 0 798.52963 237.85598"
   height="237.85597"
   width="798.52966"
   id="svg904"
   version="1.1">
  <metadata
     id="metadata910">
    <rdf:RDF>
      <cc:Work
         rdf:about="">
        <dc:format>image/svg+xml</dc:format>
        <dc:type
           rdf:resource="http://purl.org/dc/dcmitype/StillImage" />
        <dc:title></dc:title>
      </cc:Work>
    </rdf:RDF>
  </metadata>
  <defs
     id="defs908" />
  <path
     style="fill:#333333;fill-opacity:1;stroke-width:0.68765628"
     d="m 795.03312,217.3357 c -2.0116,2.44328 -3.64955,4.72001 -3.6399,5.05949 0.0175,0.60709 -1.0958,3.30128 -4.48954,10.8665 -1.55703,3.47097 -1.96828,3.87669 -4.4096,4.35072 -3.14891,0.61135 -3.14009,0.62101 -6.2463,-6.79528 -1.17461,-2.80436 -2.69641,-5.70203 -3.38193,-6.43925 -0.68547,-0.73726 -1.46749,-2.00276 -1.73779,-2.81223 -0.27036,-0.80949 -0.95413,-1.83403 -1.51964,-2.27685 -1.39673,-1.0937 -1.34588,-2.90825 0.1359,-4.84838 1.08001,-1.41405 1.52469,-1.54004 3.58286,-1.01498 1.60159,0.40863 2.4309,1.06675 2.60465,2.06714 0.14034,0.80724 0.69791,1.81447 1.23918,2.23832 1.31535,1.03003 2.00701,-1.7253 1.82902,-7.286 -0.11588,-3.62368 -0.46628,-4.59646 -2.88733,-8.02045 -2.55668,-3.61562 -4.44255,-5.56161 -8.93869,-9.22336 -2.45008,-1.99537 -7.51405,-5.25247 -8.13877,-5.23473 -0.28505,0.008 -1.79251,-0.53544 -3.35,-1.20789 -9.38145,-4.05066 -25.62233,-6.50969 -58.42699,-8.8465 -7.18578,-0.51192 -15.19108,-0.098 -32.97238,1.7048 -11.24132,1.13976 -39.3766,1.67557 -55.34867,1.05411 -30.63102,-1.19182 -36.30258,-1.16647 -55.71558,0.24907 -10.87366,0.79287 -36.83735,1.86833 -59.77987,2.47614 -38.76571,1.02701 -47.28548,0.99315 -92.19359,-0.36643 -5.68034,-0.17196 -15.43706,-0.35703 -21.68159,-0.41116 -13.50774,-0.11719 -49.68129,-0.84144 -57.47517,-1.1508 -34.21197,-1.35791 -51.07648,-1.562 -101.84922,-1.23259 -6.8093,0.0441 -19.65504,0.0938 -28.54612,0.11022 -8.89107,0.0165 -26.68582,0.21133 -39.54388,0.43298 -24.51688,0.42263 -47.62143,0.0281 -52.308345,-0.89341 -1.52196,-0.29919 -6.72303,-0.43937 -11.55793,-0.31153 -4.83489,0.12808 -9.10724,0.0492 -9.49409,-0.17505 -1.18217,-0.68498 -19.31706,-0.36798 -23.32195,0.40768 -2.06961,0.40087 -6.84728,1.12837 -10.61704,1.61671 -3.76976,0.48835 -8.53888,1.51661 -10.59805,2.28506 -3.3601,1.25388 -8.61516,4.11101 -9.48455,5.15662 -0.18293,0.22004 -1.24403,1.00838 -2.35799,1.75194 -6.19747,4.13663 -12.32534,11.23774 -14.3453801,16.62377 -0.55521,1.48035 -0.84789,4.87469 -0.74714,8.66504 0.1505,5.66179 0.34656,6.48907 2.14506,9.05079 1.0886901,1.55066 2.0732101,3.51482 2.1878201,4.36474 0.18449,1.36811 -0.0681,1.53328 -2.2023701,1.44016 -1.7266,-0.0753 -2.95881,-0.70904 -4.34194,-2.23312 -3.37818,-3.72241 -4.45460998,-6.56309 -4.91113098,-12.96029 -0.419853,-5.88337 -0.38041,-6.08628 2.28359098,-11.74718 2.11117,-4.48617 4.01127,-7.13168 8.5896801,-11.95944 3.23337,-3.40943 6.16642,-6.20718 6.51789,-6.21717 0.35147,-0.01 1.22317,-0.58084 1.93711,-1.26856 1.89057,-1.82115 10.15316,-5.73779 14.89171,-7.05896 2.25233,-0.62804 6.63782,-1.539 9.74553,-2.02448 3.10771,-0.48543 8.13416,-1.28242 11.16989,-1.77107 3.03573,-0.48864 7.9034,-0.77234 10.81704,-0.63038 2.91365,0.14186 12.11098,0.3601 20.43853,0.48492 8.32754,0.12481 17.005185,0.46555 19.283655,0.75723 7.50213,0.96027 19.64373,1.08056 65.02804,0.64422 11.53694,-0.11089 24.69165,-0.18211 29.23269,-0.15821 4.54104,0.0239 18.62416,-0.058 31.29582,-0.18191 39.61553,-0.38754 45.44261,-0.38449 56.4114,0.0293 5.87092,0.22149 13.92721,0.48413 17.90286,0.58374 3.97565,0.0996 10.48458,0.37975 14.4643,0.62257 3.97972,0.24283 11.43177,0.47801 16.56013,0.52257 5.12836,0.0446 14.42127,0.24891 20.65092,0.45407 6.22964,0.20511 16.89823,0.34982 23.70797,0.32149 12.68015,-0.0527 36.09453,0.47177 41.64651,0.93286 16.22603,1.34768 118.70483,-1.55197 142.49064,-4.03162 3.90355,-0.40696 26.52081,-0.0178 47.28768,0.81359 13.3979,0.53642 62.76851,-1.42245 64.49573,-2.55895 1.09162,-0.71831 17.98532,-1.06603 25.19215,-0.51854 26.7354,2.03098 51.1378,6.13947 58.131,9.78713 6.54178,3.41226 8.45209,4.80083 13.65985,9.92954 5.44773,5.365 7.62215,8.24909 9.31203,12.35143 1.34862,3.27393 1.55847,4.80034 1.40401,10.21148 -0.12848,4.50175 -0.49022,6.68893 -1.23722,7.47959 -0.58062,0.61459 -1.04747,1.40467 -1.03752,1.75569 0.01,0.35108 -0.44586,0.65147 -1.01291,0.66758 -1.28338,0.0365 -1.2807,2.10324 0.005,3.76042 0.88378,1.13934 1.21282,0.77796 3.89571,-4.27875 6.79295,-12.80314 8.64972,-15.01195 11.58043,-13.77589 2.56153,1.08032 2.10149,2.97295 -1.90577,7.84015 z m -260.8492,-90.74201 c -0.6331,6.36397 -3.14808,12.12822 -7.18116,16.45885 -3.29249,3.5354 -4.10767,4.04448 -7.33792,4.58267 -2.90071,0.4832 -3.86338,0.38864 -4.77094,-0.46878 -1.04473,-0.98699 -1.04617,-1.17032 -0.0177,-2.25889 0.61558,-0.6516 2.87997,-2.18639 5.03194,-3.41065 4.44885,-2.53093 6.54512,-5.79532 7.87504,-12.26304 1.61905,-7.87385 0.44347,-15.49261 -4.18238,-27.10507 -3.38031,-8.485757 -5.09519,-11.504307 -7.92685,-13.952887 -2.52403,-2.18257 -2.70069,-2.54032 -1.91597,-3.88009 1.42078,-2.42582 3.49775,-2.32906 6.99616,0.32594 2.7814,2.11077 7.0471,10.77315 11.54824,23.451197 1.56433,4.40619 2.43404,12.96699 1.88158,18.52075 z m -28.98137,12.47037 c -2.93881,3.11068 -5.09414,-0.31787 -5.34042,-8.49523 -0.14599,-4.84765 -0.43192,-6.22918 -1.55667,-7.52306 -1.92045,-2.20912 -3.28424,-1.17335 -6.10284,4.63498 -2.37125,4.8865 -3.76371,5.91581 -7.027,5.19463 -1.64969,-0.36455 -1.6843,-0.50592 -1.81554,-7.41824 -0.14581,-7.67939 -0.99262,-16.07157 -2.16295,-21.43562 -0.4102,-1.88013 -0.87672,-5.104977 -1.03677,-7.166347 -0.27252,-3.50985 -0.16944,-3.81156 1.62223,-4.75109 4.10452,-2.15226 5.1081,0.87458 6.95915,20.990177 0.29515,3.20774 0.8103,6.09233 1.14475,6.41025 0.34144,0.32463 1.61895,-0.23943 2.91395,-1.28667 2.7286,-2.20654 6.2264,-2.51979 8.63557,-0.77333 2.45468,1.77947 4.24692,7.40075 4.58694,14.3866 0.23619,4.85148 0.0733,6.28694 -0.8204,7.23295 z M 502.4352,56.844993 c -1.62944,1.72474 -6.73512,0.2342 -6.79816,-1.98456 -0.0786,-2.76801 4.37639,-4.89034 6.35052,-3.02529 1.36294,1.28763 1.5877,3.80305 0.44764,5.00985 z m -0.34888,-24.62088 c -0.31917,2.99601 -1.19575,4.16431 -3.16648,4.2203 -1.47701,0.042 -1.55272,-0.25848 -2.28014,-9.0503 -0.77056,-9.31335 -0.98551,-11.09284 -1.94001,-16.06435 l -0.54936,-2.8611202 2.53609,-0.55076 c 4.37493,-0.95014 4.81641,0.037 5.26791,11.7782702 0.21391,5.56361 0.27338,11.20115 0.13199,12.52796 z m -21.22037,10.68781 c -2.28916,3.30552 -6.16358,6.20896 -10.0818,7.55506 -6.01091,2.0651 -1.74379,4.38967 6.42526,3.50024 4.85442,-0.52855 5.31819,-0.46935 5.35094,0.68328 0.0453,1.5962 -5.80849,4.49908 -10.24976,5.08281 -6.15069,0.8084 -11.02187,-3.16991 -11.19151,-9.1402 -0.0856,-3.01443 2.0036,-8.25296 5.89244,-14.7747 2.6243,-4.40102 5.57136,-5.43968 9.90601,-3.49124 3.41285,1.53405 5.81262,4.08844 5.87411,6.2526 0.0233,0.8197 -0.84327,2.76912 -1.92569,4.33215 z m -5.65792,-4.90649 c -0.7617,-0.17628 -1.3927,-0.59371 -1.40219,-0.92767 -0.0318,-1.11871 -1.56135,-0.57865 -2.89592,1.02244 -1.51703,1.82009 -3.94512,7.53193 -3.41478,8.03297 0.19548,0.18473 1.73579,-0.23677 3.42293,-0.93661 4.74019,-1.96636 7.42448,-6.46592 4.28996,-7.19113 z m 2.27731,97.105657 c -4.40195,3.0664 -10.67511,1.85788 -12.89972,-2.48518 -2.21341,-4.32114 -0.62851,-11.59005 3.28806,-15.08039 3.42278,-3.05025 9.47606,-4.16313 9.5445,-1.75476 0.0272,0.95782 -2.08845,3.18559 -3.05838,3.22032 -1.25444,0.0449 -3.76275,4.96552 -4.00581,7.85828 -0.22059,2.62498 -0.0504,3.05406 1.52222,3.83907 0.97379,0.48612 2.27442,0.67386 2.89024,0.41727 1.79301,-0.74712 4.46732,0.14033 4.50581,1.49525 0.0191,0.67165 -0.78502,1.79218 -1.78692,2.49014 z m -18.99247,2.89377 c -0.90392,0.51733 -2.36653,0.79339 -3.25025,0.61356 -0.88372,-0.17988 -2.31296,-0.47252 -3.17604,-0.65025 -3.58133,-0.73759 -7.0721,-3.22007 -8.20581,-5.83561 -1.43767,-3.31664 -1.53669,-6.99591 -0.47808,-17.77003 0.96468,-9.82005 0.85913,-17.369737 -0.29674,-21.222877 -0.9266,-3.08887 -0.5509,-4.65472 1.26918,-5.28983 5.1393,-1.79334 7.7355,6.02011 6.14641,18.498327 -0.48911,3.84075 -0.68078,7.48365 -0.42591,8.09534 0.30515,0.73218 1.27356,1.0891 2.83465,1.04475 3.08335,-0.0876 4.56262,0.46313 4.5981,1.71191 0.0473,1.6642 -1.47864,2.75617 -5.29032,3.78591 l -3.61619,0.97687 0.41738,3.26427 c 0.22953,1.79533 0.75111,3.84746 1.1591,4.56031 0.64904,1.13414 5.05035,3.35439 8.67186,4.37456 1.76235,0.49647 1.55297,2.74964 -0.35713,3.84278 z M 454.30673,34.791903 c -2.95151,2.50202 -6.4892,0.83922 -5.71055,-2.68414 0.38992,-1.76448 1.23105,-2.18644 3.99934,-2.00635 2.29317,0.14922 3.42113,3.24094 1.71121,4.69049 z m 0.0371,22.6972 c -0.46535,0.48614 -1.856,0.91262 -3.09029,0.94769 -3.10192,0.0881 -3.79477,-1.38771 -2.87319,-6.12034 0.59514,-3.05638 1.03155,-3.84549 2.24458,-4.05853 1.1754,-0.20644 1.74989,0.2759 2.6179,2.19797 1.68339,3.72764 2.04628,6.04565 1.101,7.03321 z m -12.07945,-21.80612 c -0.61296,1.17263 -2.11614,3.64903 -3.34038,5.50321 -2.11326,3.20053 -2.18085,3.50732 -1.33574,6.06167 0.48953,1.47977 1.52896,3.19569 2.3098,3.81318 3.37624,2.66993 3.11965,4.79772 -0.70849,5.87493 -1.92473,0.54164 -5.82202,-1.65557 -5.11151,-2.88179 0.20509,-0.35389 0.0453,-0.6341 -0.35508,-0.62272 -0.40036,0.0114 -0.74117,-0.4433 -0.75728,-1.01039 -0.0395,-1.38776 -1.54036,-1.25999 -3.13039,0.26638 -4.08827,3.92475 -8.06341,4.87813 -10.5488,2.53003 -0.77761,-0.7346 -1.45881,-2.03092 -1.51381,-2.88068 -0.0872,-1.34286 -0.21517,-1.2608 -0.97998,0.62723 -0.48391,1.19476 -2.25154,3.45057 -3.92795,5.01292 -5.77531,5.38232 -10.2933,4.5438 -11.80805,-2.19156 -0.98529,-4.38121 -2.62677,-5.58395 -4.78468,-3.50578 -2.27606,2.19188 -4.18861,3.02288 -7.15099,3.10705 -2.35921,0.067 -3.08885,-0.30575 -5.2367,-2.67531 -5.98483,-6.60273 -6.39856,-11.96511 -1.27701,-16.55106 1.99424,-1.78566 5.62615,-2.41208 8.51883,-1.46929 1.36982,0.44644 2.65328,0.99568 2.85213,1.22045 0.19885,0.22483 1.19201,1.10014 2.20703,1.94516 l 1.84549,1.53638 2.27778,-1.47898 c 3.04009,-1.97399 5.08368,-1.93108 9.56231,0.2007 4.52139,2.15214 6.19284,4.17639 7.43733,9.00706 l 0.9412,3.65364 0.95108,-6.21843 c 1.06586,-6.96889 1.17959,-11.62615 0.39511,-16.1777 -0.66777,-3.87439 -0.0569,-4.82252 3.47877,-5.39941 2.24286,-0.36592 2.92336,-0.22557 3.30111,0.68106 0.52253,1.25403 -0.53164,18.38386 -1.43466,23.31198 -0.12185,0.66522 0.0156,1.34685 0.30514,1.51472 0.73605,0.42652 3.07737,-2.37191 8.96975,-10.7207 3.91246,-5.54356 5.44806,-7.20609 6.68843,-7.24133 1.40499,-0.0399 2.53965,1.12882 2.49042,2.56523 -0.009,0.25307 -0.51725,1.41952 -1.13021,2.59215 z m -32.9883,8.74405 c -4.00779,-3.53611 -8.03484,-1.27874 -4.74941,2.66233 0.79054,0.9483 1.68175,3.08847 1.98046,4.756 0.6561,3.66261 1.94047,3.90277 3.768,0.70448 1.90445,-3.33298 1.59703,-5.83228 -0.99905,-8.12281 z m -17.84351,-2.91763 c -2.44367,-2.30863 -3.10668,-2.37606 -4.88255,-0.49629 -1.6238,1.71874 -1.63881,3.37496 -0.0586,6.46007 1.91364,3.736 4.19347,3.69434 6.04189,-0.11043 1.40105,-2.88388 1.2625,-3.6207 -1.10078,-5.85335 z m 47.54019,92.604607 c -2.11499,2.23864 -5.83681,3.39466 -10.25972,3.18667 -7.60795,-0.35778 -12.50862,-4.75456 -11.7938,-10.58112 0.5201,-4.23907 3.13427,-9.93019 6.05381,-13.17928 2.14583,-2.38805 2.90583,-2.78748 5.44091,-2.85951 4.02524,-0.11437 7.65922,2.01335 7.65512,4.48218 -0.004,2.56321 -3.75936,9.84228 -5.95123,11.53615 -1.11368,0.86062 -2.7977,1.39961 -4.32923,1.38554 -2.18309,-0.02 -2.38939,0.1102 -1.5984,1.01014 2.0848,2.37156 4.9494,3.08483 10.06376,2.50581 3.9573,-0.44801 5.0187,-0.36332 5.34793,0.42684 0.22591,0.54219 -0.0572,1.48116 -0.62915,2.08658 z M 428.87067,116.395 c -1.20293,-0.42285 -4.32527,2.85047 -4.27881,4.48574 0.0146,0.51342 -0.33131,1.54452 -0.76877,2.29135 -0.43736,0.74678 -0.58705,1.55457 -0.33256,1.795 0.79734,0.75328 4.68818,-2.68561 5.59707,-4.94695 1.12881,-2.80856 1.1078,-3.15952 -0.21693,-3.62514 z m -15.91744,-1.60597 c -0.24489,0.25921 -1.43765,0.49948 -2.65054,0.53394 -1.21297,0.0344 -3.18637,0.28804 -4.38537,0.56348 -2.11565,0.48598 -2.16556,0.58387 -1.69102,3.31571 0.26893,1.54821 1.23225,5.639 2.1407,9.09059 1.36399,5.1824 1.50204,6.4667 0.79259,7.37275 -1.27172,1.62407 -3.92684,1.43194 -5.18572,-0.37521 -2.61225,-3.74995 -4.39514,-15.67001 -4.51957,-30.217 -0.12416,-14.516337 0.63373,-17.751367 4.57592,-19.531657 2.93576,-1.32577 5.47845,-0.78001 8.36587,1.79566 3.83961,3.42506 2.38572,6.74312 -1.93778,4.42247 -1.1191,-0.6007 -2.28145,-1.08517 -2.58301,-1.0766 -2.28823,0.065 -3.57998,17.427787 -1.39356,18.731227 0.4846,0.28889 1.96887,0.67594 3.29838,0.86017 1.32951,0.18419 3.12289,0.65445 3.98531,1.04503 1.50494,0.68158 2.1212,2.4815 1.1878,3.46944 z m -29.33082,18.72485 c -2.33544,1.73669 -6.78095,0.0646 -6.89005,-2.59166 -0.0509,-1.23966 2.70668,-3.71533 4.18526,-3.75734 3.63653,-0.10333 5.49985,4.27048 2.70479,6.349 z M 379.9917,34.152603 c -0.46181,0.39204 -2.05907,1.37691 -3.54947,2.18864 -7.07208,3.85165 -9.02456,9.13206 -4.90085,13.2543 1.23504,1.23461 2.2534,2.52135 2.263,2.85938 0.01,0.33809 -1.14801,0.64784 -2.57249,0.68831 -6.0241,0.17117 -10.61479,-5.94748 -8.33983,-11.1157 2.13694,-4.85462 8.85376,-10.35278 13.97793,-11.44179 1.91942,-0.40797 2.81056,-0.30652 3.26772,0.37187 0.8816,1.30821 0.83336,2.36362 -0.14601,3.19499 z m -17.36559,94.516637 c -0.78094,1.3812 -2.89533,3.80273 -4.69866,5.38118 -2.92507,2.5604 -3.61921,2.85755 -6.43488,2.75465 -2.93191,-0.10709 -3.21674,-0.28463 -4.00954,-2.4988 l -0.85342,-2.38354 2.95247,-0.6651 c 2.10945,-0.47518 3.62149,-1.4307 5.29556,-3.34647 l 2.34311,-2.68136 -1.44273,-1.23294 c -3.70381,-3.16527 -4.38434,-7.05147 -1.95359,-11.15583 1.81709,-3.06819 3.6619,-4.01903 5.76286,-2.97031 1.4433,0.72048 1.99244,3.00354 0.89597,3.72499 -0.33027,0.21735 -0.78395,1.22526 -1.00817,2.23985 -0.3102,1.40363 0.0885,2.50423 1.66756,4.60267 2.88337,3.83197 3.14621,5.29026 1.48346,8.23101 z m -19.6352,6.31498 c -0.44078,0.46656 -1.92957,0.88035 -3.30842,0.91952 -3.28128,0.0932 -4.35376,-1.80011 -2.93527,-5.18197 0.75449,-1.79878 1.3964,-2.34154 2.81703,-2.3819 3.02118,-0.0858 5.40963,4.54541 3.42666,6.64435 z m -4.13798,-86.546397 c -2.49373,3.35648 -8.40291,6.11229 -12.38839,5.77737 -1.96024,-0.16472 -3.5507,-0.75724 -4.26379,-1.58845 -0.65308,-0.76125 -1.9753,-1.30196 -3.10529,-1.26985 -2.18708,0.0621 -3.71434,-1.45289 -4.3961,-4.36097 -0.24414,-1.04143 -0.69252,-2.03758 -0.99641,-2.21365 -0.30387,-0.17608 -2.08696,0.69525 -3.9624,1.93631 -2.97002,1.96534 -3.86226,2.22591 -6.91652,2.01979 -2.7337,-0.18448 -4.01119,-0.69865 -5.7958,-2.33268 -1.40392,-1.28543 -2.9982,-2.07587 -4.12258,-2.04392 -2.02297,0.0575 -2.97166,-1.1234 -4.8629,-6.05323 -1.67378,-4.36294 -3.6127,-4.46001 -4.61599,-0.2311 -0.41167,1.73529 -0.72394,4.01939 -0.69392,5.07593 0.0862,3.03263 -1.3424,4.58485 -3.73333,4.05645 -1.1063,-0.24444 -2.166,-0.43516 -2.35485,-0.42371 -0.80215,0.0486 -2.10608,-3.11794 -2.19872,-5.33947 -0.13643,-3.27086 -1.00381,-7.5429 -1.52395,-7.50547 -0.23378,0.017 -1.11859,1.23096 -1.96623,2.6981 -1.28033,2.21607 -2.22166,2.8926 -5.56188,3.99748 -2.21138,0.73145 -4.01317,1.59496 -4.00397,1.91887 0.0268,0.94152 2.41335,1.87971 5.55631,2.18423 4.77495,0.46262 5.48859,1.55587 2.20308,3.37497 -3.67461,2.03453 -10.00903,1.27156 -13.14991,-1.58382 -0.97099,-0.88276 -2.72015,-2.71741 -3.88702,-4.07701 l -2.12158,-2.47206 -3.00816,3.51943 c -1.84132,2.15425 -5.02798,4.67992 -8.21532,6.51125 -4.48893,2.57913 -5.57,2.93568 -7.83779,2.58482 -3.07159,-0.47521 -3.65778,-1.11366 -3.7567,-4.09154 -0.091,-2.7383 0.79128,-3.35207 3.39248,-2.36023 1.84047,0.70182 2.35474,0.55579 5.42595,-1.54048 3.73436,-2.54892 6.24181,-5.73687 5.62435,-7.15083 -0.21882,-0.50106 -2.82522,-2.30904 -5.79199,-4.01772 -8.13094,-4.68289 -12.61063,-9.03586 -11.76751,-11.43458 0.87233,-2.48179 12.97817,-6.7831 17.11275,-6.08027 4.34299,0.73819 5.04613,1.00075 5.07149,1.8935 0.039,1.37142 -1.68666,2.19051 -6.10901,2.89965 -2.07157,0.33216 -4.31059,0.69095 -4.9756,0.7973 -2.86886,0.45883 -2.87799,1.78792 -0.0312,4.54223 1.51906,1.46976 2.98659,2.66588 3.26118,2.65808 0.27461,-0.008 2.38628,1.16336 4.69262,2.6026 3.7651,2.34951 4.4026,2.53705 6.24234,1.83649 1.18028,-0.44945 2.34841,-1.56964 2.75524,-2.6422 2.65797,-7.00742 7.7718,-11.30086 13.70118,-11.50323 2.10388,-0.0717 3.13839,0.37492 5.04947,2.18042 1.50083,1.41791 2.42257,2.94189 2.45428,4.05787 0.0575,2.02522 0.0451,2.01949 2.33782,1.07243 1.39341,-0.57556 1.99911,-0.40491 3.45941,0.97468 1.47194,1.3906 2.17478,1.58455 4.17109,1.15103 3.01599,-0.655 6.65153,0.40069 8.79167,2.55284 1.59891,1.60793 1.68869,1.61911 3.03563,0.37841 3.19303,-2.94119 4.99515,-3.35619 13.37563,-3.08016 l 2.41003,0.0793 -0.27343,-9.62327 c -0.15039,-5.29284 -0.47613,-11.3093702 -0.72386,-13.3701502 -0.42918,-3.5701 -0.36081,-3.79365 1.44983,-4.73985004 1.63147,-0.85258 2.12816,-0.85276 3.51151,-0.002 1.83476,1.12904004 2.4605,4.52597004 3.35989,18.23960024 1.37568,20.97593 2.3736,27.20255 4.47497,27.92214 0.61509,0.21062 1.47151,0.8271 1.90315,1.36994 1.08987,1.37066 5.51883,0.44686 7.55234,-1.57525 0.86715,-0.86234 1.57111,-1.74588 1.56436,-1.96352 -0.007,-0.21765 -1.90484,-2.28546 -4.21797,-4.59517 -2.31313,-2.30971 -4.42427,-4.82587 -4.69142,-5.59148 -0.7984,-2.28805 2.72412,-5.43843 7.93111,-7.09322 2.67861,-0.85127 5.61692,0.82272 4.69299,2.67358 -0.34344,0.68803 -1.54833,1.60278 -2.67752,2.03277 -1.90528,0.72549 -1.99693,0.919 -1.27306,2.68826 0.42903,1.04855 1.83844,2.95994 3.13204,4.24741 2.52353,2.51172 3.96361,4.7496 3.99268,6.20473 0.01,0.49756 -0.76262,1.95546 -1.71681,3.23978 z m -32.39946,-14.97688 c -1.79805,-0.36895 -3.1994,-0.19978 -4.97047,0.60001 -2.05196,0.9267 -2.45669,1.45745 -2.40836,3.15835 0.0738,2.59788 3.18547,6.18876 5.31055,6.12838 2.47045,-0.0702 5.107,-4.33158 4.75184,-7.68022 -0.14208,-1.33955 -0.70193,-1.79992 -2.68356,-2.20652 z m -39.10487,-8.6108 c -0.45625,-1.09493 -2.74458,-1.35218 -4.71694,-0.53031 -0.6003,0.25011 -2.12075,2.10538 -3.37879,4.12279 -2.56652,4.11575 -2.96627,7.64889 -0.91898,8.12261 4.62406,1.06985 9.67562,-3.15103 9.53869,-7.97025 -0.0417,-1.46819 -0.2775,-3.15334 -0.52398,-3.74484 z m 72.56903,86.453317 c -0.56173,2.42963 -7.05223,1.43665 -7.12403,-1.08993 -0.0392,-1.38122 1.95738,-3.06288 3.69521,-3.11226 0.89114,-0.0253 2.12014,0.42625 2.73111,1.00347 1.14743,1.08402 1.16646,1.17124 0.69771,3.19872 z m -8.16973,10.49691 c -0.0964,3.28362 -0.32608,6.11013 -0.51041,6.28108 -0.18432,0.17107 -1.1706,0.53657 -2.19171,0.81231 -1.50549,0.40653 -2.08319,0.17601 -3.05487,-1.21886 -1.00861,-1.44789 -1.15512,-2.78902 -0.9256,-8.47264 0.33727,-8.35209 -0.40831,-10.75308 -3.10363,-9.99462 -5.0789,1.42923 -7.96295,6.00289 -8.41306,13.34176 -0.15911,2.59412 -0.43952,4.97587 -0.62313,5.29278 -0.53543,0.924 -4.60333,0.74168 -6.02041,-0.26987 -1.07956,-0.77065 -1.22491,-1.42973 -0.86209,-3.90922 0.94777,-6.47693 -0.11958,-15.29138 -3.92809,-32.439487 -0.83505,-3.75994 -1.39471,-7.19193 -1.24368,-7.62673 0.15102,-0.4348 1.25445,-1.01791 2.45204,-1.29587 2.73402,-0.63445 4.31783,0.97179 5.06285,5.13467 3.17697,17.751657 4.56806,22.224687 6.09319,19.592617 0.73375,-1.2663 5.3332,-3.00396 8.50147,-3.21188 3.50754,-0.23014 6.42782,1.36104 7.5994,4.14071 0.99579,2.36257 1.37336,6.83865 1.16773,13.84325 z m -31.87393,5.02113 c -0.74487,1.48801 -1.59951,1.9639 -4.34991,2.4221 -6.6326,1.10499 -11.23679,-0.54458 -13.64127,-4.88738 -1.11123,-2.00705 -1.29385,-8.98628 -0.64446,-24.628217 0.56302,-13.56176 1.02631,-15.16369 4.41317,-15.25992 2.76172,-0.0785 3.36109,1.96242 2.71218,9.23517 -0.31491,3.52938 -0.5367,7.678917 -0.49288,9.221237 0.0751,2.64371 0.19515,2.80092 2.09706,2.74688 3.00634,-0.0854 5.5786,1.01739 5.60602,2.40343 0.0444,2.24179 -1.06846,3.14 -4.11595,3.32209 -4.32245,0.25825 -4.58098,0.60644 -4.09636,5.51643 0.60634,6.14322 2.16527,7.61004 7.43114,6.99194 4.9887,-0.58557 6.42235,0.23724 5.08126,2.91624 z m -31.68875,12.16858 c -4.42739,1.54492 -11.20585,-9.14326 -13.0325,-20.54948 -1.74792,-10.91469 2.10861,-25.372687 7.60736,-28.519627 2.8931,-1.6557 4.88729,1.24651 3.22625,4.69531 -0.56157,1.16602 -0.93431,2.22801 -0.82831,2.35997 0.10601,0.13196 -0.16377,0.69525 -0.5995,1.25171 -0.43574,0.5565 -1.05266,2.984127 -1.37094,5.394867 -0.40965,3.1027 -0.98349,4.68414 -1.96443,5.4136 -1.19269,0.88691 -1.32784,1.57289 -0.97018,4.9244 0.51081,4.78681 1.22553,8.14676 2.20767,10.3784 1.20888,2.74684 4.3733,8.39011 5.31588,9.48 1.56447,1.80905 1.79204,4.68814 0.4087,5.17085 z"
     id="path1469" />
</svg>
