<?xml version="1.0" encoding="UTF-8" standalone="no"?>
<!-- Created with Inkscape (http://www.inkscape.org/) -->

<svg
   xmlns:dc="http://purl.org/dc/elements/1.1/"
   xmlns:cc="http://creativecommons.org/ns#"
   xmlns:rdf="http://www.w3.org/1999/02/22-rdf-syntax-ns#"
   xmlns:svg="http://www.w3.org/2000/svg"
   xmlns="http://www.w3.org/2000/svg"
   xmlns:sodipodi="http://sodipodi.sourceforge.net/DTD/sodipodi-0.dtd"
   xmlns:inkscape="http://www.inkscape.org/namespaces/inkscape"
   width="89.484306mm"
   height="71.200089mm"
   viewBox="0 0 89.484306 71.200089"
   version="1.1"
   id="svg1756"
   inkscape:version="0.92.4 (5da689c313, 2019-01-14)"
   sodipodi:docname="sets-cookie.svg">
  <defs
     id="defs1750" />
  <sodipodi:namedview
     id="base"
     pagecolor="#ffffff"
     bordercolor="#666666"
     borderopacity="1.0"
     inkscape:pageopacity="0.0"
     inkscape:pageshadow="2"
     inkscape:zoom="0.35"
     inkscape:cx="-353.75287"
     inkscape:cy="134.55132"
     inkscape:document-units="mm"
     inkscape:current-layer="layer1"
     showgrid="false"
     fit-margin-top="0"
     fit-margin-left="0"
     fit-margin-right="0"
     fit-margin-bottom="0"
     inkscape:window-width="2560"
     inkscape:window-height="1376"
     inkscape:window-x="0"
     inkscape:window-y="27"
     inkscape:window-maximized="1" />
  <metadata
     id="metadata1753">
    <rdf:RDF>
      <cc:Work
         rdf:about="">
        <dc:format>image/svg+xml</dc:format>
        <dc:type
           rdf:resource="http://purl.org/dc/dcmitype/StillImage" />
        <dc:title></dc:title>
      </cc:Work>
    </rdf:RDF>
  </metadata>
  <g
     inkscape:label="Layer 1"
     inkscape:groupmode="layer"
     id="layer1"
     transform="translate(-61.09116,-113.23328)">
    <path
       id="path1541"
       style="fill:#333333;fill-opacity:1;stroke-width:0.35277778"
       d="m 86.597006,132.52614 c -0.220702,0.66209 -1.688806,2.16558 -2.114632,2.16558 -0.204115,0 -0.437319,0.19844 -0.518229,0.44099 -0.103642,0.31067 -1.016291,0.42793 -3.088703,0.39684 -2.402279,-0.036 -3.027484,-0.16158 -3.410067,-0.68479 -0.268337,-0.36698 -0.468471,-0.45225 -0.468471,-0.19963 0,0.24254 -0.16134,0.34129 -0.358531,0.21942 -0.197194,-0.12187 -0.268325,-0.36753 -0.158068,-0.54594 0.110255,-0.17841 -0.03372,-0.2345 -0.319968,-0.12465 -0.55118,0.21151 -1.280102,-0.80388 -1.280102,-1.78318 0,-1.02627 1.025988,-0.99555 2.23615,0.067 0.998357,0.87656 1.513337,1.04783 3.349969,1.1141 1.902706,0.0687 2.279269,-0.0307 3.054567,-0.806 0.918609,-0.9186 1.212892,-2.78833 0.507489,-3.22429 -0.207256,-0.12808 -0.288449,-0.4632 -0.180433,-0.74469 0.108022,-0.28149 0.05746,-0.42593 -0.112366,-0.321 -0.16982,0.10496 -0.506134,-0.047 -0.747363,-0.33763 -0.241226,-0.29067 -1.046509,-0.87016 -1.789514,-1.28775 -0.743003,-0.4176 -1.253469,-0.91692 -1.134367,-1.10964 0.119105,-0.19272 0.04519,-0.24448 -0.164243,-0.11504 -0.538678,0.33292 -4.739775,-2.19279 -4.44383,-2.67166 0.13672,-0.22122 0.07675,-0.28593 -0.140526,-0.15166 -0.45417,0.2807 -1.850959,-1.39372 -1.836306,-2.20128 0.01696,-0.93517 3.162234,-3.99325 4.399386,-4.27744 0.194027,-0.0446 0.739955,-0.22825 1.213175,-0.40817 1.358956,-0.51668 3.944742,-0.21669 4.395134,0.50991 0.53652,0.8655 -0.157144,1.24253 -2.316869,1.25925 -1.033296,0.008 -1.923002,0.22228 -2.240232,0.53952 -0.28942,0.2894 -0.828112,0.62203 -1.197097,0.73914 -0.851358,0.27019 -1.182838,1.11513 -0.752755,1.91875 0.373721,0.69829 3.55745,3.16151 5.038291,3.89808 0.530553,0.26387 1.846342,1.41235 2.923976,2.55215 1.732426,1.83234 1.950255,2.22623 1.880936,3.40103 -0.04312,0.73078 -0.144997,1.52847 -0.226401,1.77268 z m 2.861652,26.98067 c -0.403778,0.40378 -0.871212,0.25085 -0.638357,-0.20884 0.122854,-0.24254 -0.01894,-0.14319 -0.315085,0.22075 -0.362841,0.4459 -0.831596,0.60565 -1.437273,0.48987 -0.49435,-0.0945 -0.898818,-0.0578 -0.898818,0.0815 0,0.29052 -3.125388,-0.38139 -3.798115,-0.81653 -0.245698,-0.15893 -0.340233,-0.46127 -0.210074,-0.67188 0.143219,-0.23172 0.072,-0.28115 -0.180401,-0.12515 -0.59146,0.36555 -2.374479,-1.65507 -2.642359,-2.99445 -0.421413,-2.10709 0.631179,-5.83925 1.957255,-6.93978 0.963221,-0.79941 3.306352,-1.38938 4.104153,-1.03341 0.423249,0.18886 0.769541,0.48922 0.769541,0.66747 0,0.54424 -1.030378,1.39091 -1.408404,1.15728 -0.195516,-0.12086 -0.355484,-0.0516 -0.355484,0.15388 0,0.20548 -0.22743,0.3736 -0.505393,0.3736 -0.277969,0 -0.606163,0.3175 -0.72933,0.70556 -0.123166,0.38806 -0.371985,0.70556 -0.552939,0.70556 -0.180951,0 -0.310206,0.11907 -0.287229,0.26459 0.02297,0.14552 -2.65e-4,0.42333 -0.05185,0.61735 -0.198501,0.74795 -0.165679,3.63641 0.03988,3.50935 0.119147,-0.0736 0.418518,0.24334 0.665268,0.7044 0.525558,0.98201 2.847306,1.95985 4.653387,1.95985 1.221137,0 2.301431,0.69919 1.821627,1.17899 z m 6.562641,-35.88001 c -0.945378,-1.20185 -1.63385,-1.17356 -2.783703,0.11435 -0.786746,0.88122 -0.929074,1.36221 -0.91341,3.08681 0.01828,2.01092 0.03514,2.04428 1.076886,2.12916 2.570739,0.20947 4.265654,-3.2385 2.620227,-5.33032 z m 5.305281,10.84363 c -0.58868,0.52451 -1.20705,0.86918 -1.374147,0.76589 -0.167101,-0.10327 -0.398709,0.0595 -0.514681,0.36173 -0.115977,0.30224 -0.359767,0.45747 -0.541758,0.34499 -0.181991,-0.11247 -0.414541,-0.0691 -0.516782,0.0963 -0.102237,0.16542 -0.917358,0.32843 -1.811385,0.36225 -0.894024,0.0338 -1.540526,-0.076 -1.436664,-0.24406 0.103857,-0.16803 -0.191209,-0.23288 -0.655703,-0.14409 -0.644364,0.12317 -1.212818,-0.20685 -2.398342,-1.39237 -0.854594,-0.85458 -1.774164,-2.05163 -2.043488,-2.66007 -0.26932,-0.60843 -0.852139,-1.2714 -1.295146,-1.47325 -0.993651,-0.45273 -1.038218,-1.28913 -0.09991,-1.8751 0.484568,-0.30263 0.707982,-0.82841 0.7133,-1.67868 0.009,-1.43449 1.14054,-4.12752 2.027902,-4.82626 0.956487,-0.75316 2.905509,-1.52707 3.845785,-1.52707 1.139185,0 2.76489,0.86828 3.445764,1.84036 0.640143,0.91393 0.720542,2.82731 0.162608,3.86985 -0.295699,0.5525 -0.287327,0.66273 0.03521,0.46339 0.324596,-0.2006 0.330343,-0.0881 0.02466,0.48308 -0.219175,0.40955 -0.57236,0.70652 -0.784849,0.65995 -0.212487,-0.0466 -0.457957,0.15343 -0.545489,0.44447 -0.141468,0.47038 -0.117568,0.47038 0.215085,0 0.205827,-0.29104 0.371613,-0.37041 0.368414,-0.1764 -0.0099,0.59952 -0.976604,1.66939 -1.317863,1.45849 -0.1777,-0.10982 -0.676773,0.20707 -1.109052,0.70425 -0.486759,0.55983 -1.030581,0.83997 -1.428551,0.73588 -0.951103,-0.24871 -0.678895,1.31215 0.383074,2.19655 1.204071,1.00277 2.885699,1.05539 4.645904,0.14541 0.539273,-0.27879 1.123614,-0.41844 1.298534,-0.31033 0.17493,0.10811 0.43292,0.0106 0.57332,-0.21648 0.17244,-0.27903 0.0945,-0.32134 -0.24021,-0.13039 -0.3676,0.20968 -0.39689,0.17526 -0.1135,-0.13345 0.21009,-0.22887 0.65071,-0.31298 0.97915,-0.18696 0.49526,0.19005 0.52038,0.32398 0.14718,0.78486 -0.34786,0.42958 -0.3499,0.49557 -0.009,0.29075 0.7652,-0.45971 0.48029,-0.0222 -0.62935,0.96652 z m 0.50559,17.25924 c -0.84367,-0.77377 -2.874235,-1.51 -4.175029,-1.51376 -0.816957,-0.003 -2.315793,1.32258 -2.315793,2.04708 0,0.89895 0.805294,3.24263 1.114174,3.24263 0.163317,0 0.257249,-0.17859 0.208743,-0.39687 -0.169468,-0.76261 0.679987,-0.67186 1.982076,0.21177 1.687909,1.14543 2.801349,1.1353 3.720999,-0.0338 0.88486,-1.1249 0.68768,-2.43544 -0.53517,-3.55701 z m 3.05346,4.30512 c -0.79142,1.9336 -3.86672,2.8892 -5.951338,1.84925 -0.944319,-0.47106 -1.117314,-0.46953 -1.601139,0.0143 -1.212091,1.21211 -4.441235,-2.70126 -4.448683,-5.39131 -0.0046,-1.66354 0.375772,-2.70769 0.911511,-2.50211 0.263215,0.10102 0.461676,0.0703 0.441026,-0.0682 -0.122997,-0.82518 0.199763,-1.14803 1.496848,-1.4973 2.419477,-0.65149 5.908455,0.32985 8.018355,2.25536 1.02702,0.93726 1.77563,2.2093 1.06114,1.80311 -0.38379,-0.2182 -0.39061,-0.17854 -0.0352,0.20436 0.49267,0.53078 0.54829,2.25555 0.10747,3.33259 z m 5.66312,-26.43489 c -0.24095,-0.14891 -0.30186,-0.0259 -0.16448,0.33205 0.24088,0.62775 -1.53845,2.74587 -2.04412,2.43335 -0.16434,-0.10155 -0.2988,-0.0164 -0.2988,0.18893 0,0.20548 -0.64437,0.3736 -1.43193,0.3736 -0.85373,0 -1.3449,-0.14081 -1.2164,-0.34872 0.11854,-0.19183 -0.005,-0.26398 -0.27544,-0.16034 -0.27003,0.10361 -0.69459,-0.0569 -0.94346,-0.35682 -0.24887,-0.29988 -0.31399,-0.54766 -0.14471,-0.55062 0.16927,-0.003 0.0944,-0.14066 -0.16646,-0.30597 -0.72416,-0.45894 -1.42979,-4.47857 -1.49306,-8.50521 -0.0313,-1.9884 -0.23875,-4.50906 -0.46112,-5.60144 -0.59321,-2.9141 -0.52806,-3.3309 0.58187,-3.7224 1.45914,-0.51464 2.14319,0.35002 2.17437,2.74852 0.0137,1.05539 0.10433,1.87163 0.20134,1.81385 0.097,-0.0578 0.21247,0.79081 0.25657,1.88579 0.0849,2.10751 0.85824,3.22559 2.23114,3.22559 0.35511,0 0.75865,0.18282 0.89675,0.40629 0.34799,0.56306 -0.84601,1.35761 -2.0401,1.35761 -0.93291,0 -0.98247,0.0766 -0.8562,1.32291 0.0737,0.72761 0.31154,1.7698 0.52849,2.31601 0.21695,0.5462 0.39446,1.12209 0.39446,1.27973 0,0.15764 0.23059,0.47797 0.51242,0.71189 0.41582,0.3451 0.70852,0.22466 1.55268,-0.63892 1.26014,-1.2891 2.266,-1.54664 2.45394,-0.62833 0.0833,0.40714 -0.0114,0.56872 -0.24775,0.42265 z m 1.84438,22.29472 c -1.29201,-0.7546 -2.89102,-0.35923 -3.1913,0.78906 -0.1003,0.38352 -0.33478,0.60312 -0.52107,0.488 -0.1863,-0.11515 -0.14358,0.16446 0.0949,0.62132 0.2385,0.45686 0.54031,1.06082 0.67068,1.34213 0.38658,0.83415 1.90787,1.80744 3.32453,2.12693 0.72796,0.1642 1.2523,0.22725 1.1652,0.14017 -0.0871,-0.0871 0.0471,-0.74792 0.29829,-1.46846 0.3969,-1.13869 0.37771,-1.44695 -0.14665,-2.35596 -0.33182,-0.5752 -1.0944,-1.33265 -1.69462,-1.68319 z m 4.58395,3.25821 c -0.29984,1.92434 -0.50424,2.48936 -0.82814,2.28917 -0.18855,-0.11652 -0.24519,0.0338 -0.12792,0.33933 0.14642,0.38158 -0.12501,0.68956 -0.89186,1.012 -0.60629,0.25493 -1.01549,0.55034 -0.90934,0.65649 0.51738,0.51739 -3.06513,-0.0808 -4.32093,-0.72144 -2.23675,-1.1411 -3.62143,-3.0485 -3.62143,-4.98853 0,-2.69174 1.72054,-4.23146 4.72838,-4.23146 1.70242,0 3.48092,0.61854 3.17974,1.10588 -0.10101,0.16343 0.0302,0.21511 0.29153,0.1148 0.59651,-0.22889 2.13859,1.49469 1.81121,2.02438 -0.14656,0.23715 -0.0814,0.29239 0.16519,0.14002 0.22401,-0.13846 0.40729,-0.0966 0.40729,0.093 0,0.1896 0.0571,0.55615 0.12685,0.81457 0.0698,0.2584 0.065,0.8667 -0.0106,1.35176 z m 0.59331,-23.45722 c -0.19181,-0.11853 -0.26558,0 -0.16395,0.26601 0.37149,0.96808 -2.58525,2.63991 -3.37635,1.90908 -0.345,-0.31872 -0.39065,-0.31248 -0.19884,0.0273 0.18311,0.32432 -0.17094,0.44095 -1.33854,0.44095 -0.87313,0 -1.67675,-0.14441 -1.78585,-0.32094 -0.39707,-0.64249 0.24841,-1.44296 1.16459,-1.44425 1.23128,-0.003 3.101,-1.16748 3.40407,-2.12239 0.18032,-0.56811 0.0317,-0.90516 -0.58586,-1.3285 -1.81678,-1.24547 -3.08516,-2.7805 -2.8958,-3.50459 0.27844,-1.06476 2.16166,-3.2127 3.36013,-3.83246 0.85273,-0.44095 1.15337,-0.45979 1.58761,-0.0994 0.45133,0.37457 0.45919,0.50305 0.0499,0.81592 -0.26718,0.20423 -0.86593,0.91255 -1.33057,1.574 l -0.8448,1.20267 1.25983,1.0904 c 0.6929,0.5997 1.43607,1.43714 1.65149,1.86095 0.49086,0.96567 0.52553,3.76351 0.0429,3.46527 z m 12.64145,13.36937 c -0.25485,-0.15751 -0.31142,-0.0966 -0.15114,0.16274 0.31157,0.50411 -1.68228,3.32214 -2.0896,2.95334 -0.15802,-0.14309 -0.17902,-0.0713 -0.0467,0.15959 0.13237,0.23088 -0.0646,0.9217 -0.43764,1.53517 l -0.67831,1.11538 0.84698,1.24809 c 0.46584,0.68646 0.85238,1.50378 0.85896,1.81626 0.007,0.31247 0.31869,1.20311 0.69358,1.97924 0.82358,1.705 0.83742,1.8588 0.22255,2.47367 -0.4928,0.49281 -1.7891,0.36197 -2.58735,-0.26112 -0.2335,-0.18227 -0.67449,-1.19121 -0.98,-2.24211 -0.30551,-1.05089 -0.61875,-1.91074 -0.6961,-1.91074 -0.0774,0 -0.64112,0.87474 -1.2528,1.94384 -0.61168,1.06913 -1.25833,1.85349 -1.437,1.74308 -0.17867,-0.11041 -0.32485,-0.063 -0.32485,0.10541 0,0.16838 -0.2499,0.61431 -0.55533,0.99094 -0.30543,0.37664 -0.4337,0.44667 -0.28506,0.15563 0.22963,-0.44958 0.18343,-0.45879 -0.3072,-0.0611 -0.3176,0.25744 -0.94339,0.41619 -1.39063,0.3528 -0.90524,-0.12835 -0.84243,0.88902 -0.68803,-11.14529 0.0461,-3.5906 -0.06,-4.86346 -0.45569,-5.46806 -0.90677,-1.38557 -0.44485,-2.47182 1.07951,-2.53854 1.80981,-0.0792 2.07592,0.98186 2.05013,8.17477 -0.0127,3.54865 0.0186,6.45211 0.0697,6.45211 0.0511,0 0.82839,-1.34938 1.72739,-2.99861 0.899,-1.64925 1.71044,-2.99862 1.80319,-2.99862 0.0927,0 0.0554,0.18327 -0.0831,0.4073 -0.15243,0.24661 -0.0971,0.31173 0.14016,0.16507 0.21553,-0.13319 0.32008,-0.43553 0.23233,-0.67186 -0.19917,-0.53636 2.11779,-3.49993 2.46491,-3.1528 0.13953,0.13952 0.22166,0.0949 0.18252,-0.0991 -0.1681,-0.8332 0.0735,-1.187 1.04072,-1.52418 1.14938,-0.40069 1.4411,-0.25456 1.4411,0.72183 0,0.41479 -0.15423,0.57227 -0.40729,0.41587 z m 5.05538,5.9704 c -0.65755,0.59018 -2.50611,0.41384 -2.57047,-0.24519 -0.22517,-2.3056 0.79748,-3.29935 2.25643,-2.19268 0.87272,0.66201 1.01988,1.80438 0.31404,2.43787 z m 0.83629,9.48754 c -0.30115,0.58838 -0.68114,0.78359 -1.41922,0.72906 -1.32983,-0.0983 -1.55742,-0.55449 -1.35206,-2.71029 0.21188,-2.22398 0.51497,-2.58032 1.72558,-2.02875 0.67614,0.30808 0.88036,0.61381 0.74802,1.11983 -0.10011,0.38282 -0.0562,0.6183 0.0975,0.52326 0.4791,-0.29609 0.63281,1.52157 0.20016,2.36689 z m 5.35246,21.63664 c -0.83524,0.32052 -2.04846,-0.058 -5.60524,-1.74887 -1.8763,-0.89196 -3.56546,-1.62173 -3.75368,-1.62173 -0.18821,0 -2.52636,-0.79032 -5.19589,-1.75626 -2.66952,-0.96594 -6.21912,-2.02297 -7.88799,-2.34897 -1.66888,-0.32602 -3.34746,-0.80571 -3.73018,-1.06598 -0.38271,-0.26029 -1.02208,-0.47326 -1.42081,-0.47326 -0.39872,0 -1.08911,-0.25506 -1.53419,-0.56681 -0.44509,-0.31174 -1.55197,-0.63754 -2.45975,-0.72398 -0.90778,-0.0864 -3.39675,-0.48631 -5.53106,-0.88858 -9.823393,-1.8515 -12.562002,-2.09084 -15.749445,-1.37655 -0.888863,0.19921 -2.153863,0.43 -2.811114,0.5129 -2.191221,0.27633 -4.010748,0.66312 -4.63458,0.9852 -0.432668,0.22341 -0.618977,0.18312 -0.62276,-0.13462 -0.0032,-0.28011 -0.104447,-0.31784 -0.264583,-0.0987 -0.281993,0.38587 -1.827478,0.95557 -4.316127,1.59105 -1.542341,0.39383 -2.935248,0.97332 -6.471367,2.69229 -0.939877,0.45688 -1.877216,0.72665 -2.08298,0.59947 -0.237082,-0.14653 -0.268343,-0.0601 -0.08535,0.23603 0.211426,0.34208 0.126633,0.405 -0.316592,0.23492 -0.341945,-0.1312 -0.516335,-0.0882 -0.400767,0.0987 0.112524,0.18206 -0.117356,0.50335 -0.510844,0.71393 -0.393491,0.21061 -0.715436,0.52491 -0.715436,0.69847 0,0.30467 7.583328,4.95126 8.080536,4.95126 0.134757,0 0.431736,0.18671 0.659955,0.41494 0.605716,0.60571 -0.134665,1.34896 -1.343771,1.34896 -1.079942,0 -9.513387,-4.08954 -9.513387,-4.61323 0,-0.17912 -0.24311,-0.32567 -0.54024,-0.32567 -0.297132,0 -0.642739,-0.27782 -0.768016,-0.61735 -0.12528,-0.33954 -0.366374,-0.71102 -0.535768,-0.8255 -0.526577,-0.35584 -0.390978,-1.4427 0.590304,-4.73075 1.261155,-4.22588 1.930368,-5.6423 3.713765,-7.8603 2.15945,-2.68568 4.869845,-3.84831 4.351626,-1.86663 -0.10401,0.39772 -0.329813,0.63619 -0.501779,0.5299 -0.171969,-0.10625 -0.312672,-0.0106 -0.312672,0.21291 0,0.62042 -1.283441,2.11503 -1.570064,1.82841 -0.13894,-0.13896 -0.211687,-0.0939 -0.161657,0.10014 0.156104,0.60542 -0.822262,2.28246 -1.196594,2.0511 -0.195633,-0.12091 -0.256805,-0.0598 -0.135933,0.13576 0.26547,0.42953 -0.496493,2.57564 -0.914469,2.57564 -0.162941,0 -0.212111,0.13616 -0.109267,0.30255 0.102843,0.16642 0.03555,0.83058 -0.149537,1.47595 -0.185087,0.64538 -0.29608,1.21383 -0.246648,1.26326 0.09142,0.0914 2.020684,-0.71269 3.184256,-1.32718 3.013135,-1.59126 12.447674,-4.1479 18.631302,-5.04883 4.680048,-0.68189 8.030888,-0.69295 11.149987,-0.0368 1.332071,0.28022 2.810886,0.58235 3.286256,0.67138 0.47538,0.0891 1.26119,0.255 1.74626,0.3688 1.33158,0.31237 2.77038,0.52853 5.11277,0.76814 2.16775,0.22172 2.46615,0.26731 5.82335,0.88982 1.06715,0.19785 2.41652,0.41532 2.99861,0.48321 3.14552,0.36695 5.83917,1.03875 7.40614,1.84711 0.96893,0.49985 3.5404,1.51736 5.71437,2.26115 2.17397,0.7438 4.63559,1.65368 5.47025,2.02192 0.83466,0.36828 2.62882,1.13721 3.98701,1.70876 2.25887,0.95057 2.47889,1.13522 2.58017,2.16548 0.0713,0.72512 -0.0663,1.19423 -0.38638,1.31705 z m 3.82037,-29.10935 c -0.55491,-0.46053 -1.95721,-0.18587 -1.95721,0.38333 0,0.1924 -0.14778,0.2585 -0.3284,0.14687 -0.18063,-0.11163 -0.44328,-0.0172 -0.58368,0.21008 -0.15943,0.25794 -0.10235,0.31853 0.15202,0.16131 0.52867,-0.32673 0.52786,0.23379 -0.001,0.76274 -0.58481,0.58481 0.23165,1.4768 1.13541,1.24045 0.67567,-0.17669 2.09519,-1.67918 2.09519,-2.21763 0,-0.14412 -0.23051,-0.45334 -0.51224,-0.68715 z m 5.03435,7.53113 c -0.28249,-0.1746 -0.32995,-0.0474 -0.1537,0.4119 0.14024,0.36547 0.14042,0.54991 2.6e-4,0.40989 -0.14003,-0.14004 -0.51243,-0.0214 -0.82756,0.26392 -0.82514,0.74674 -4.80237,1.68868 -6.01016,1.42341 -2.47215,-0.54298 -4.45761,-3.5582 -4.12113,-6.25853 0.25288,-2.02941 0.50508,-2.63732 1.8917,-4.55991 0.95564,-1.32501 1.45307,-1.69101 2.55027,-1.87638 1.96622,-0.33218 4.05841,0.31957 4.56005,1.42053 0.4988,1.09474 0.53441,2.27832 0.0685,2.27832 -0.18794,0 -0.24059,0.26353 -0.117,0.58558 0.15012,0.39121 -0.11703,0.87246 -0.80482,1.44984 -0.56624,0.47535 -0.83109,0.75808 -0.58856,0.62833 0.24253,-0.12975 0.44097,-0.0678 0.44097,0.13766 3e-5,0.20548 -0.23809,0.37359 -0.52913,0.37359 -0.29104,0 -0.52917,0.16812 -0.52917,0.37362 0,0.20548 -0.14519,0.28385 -0.32265,0.17418 -0.17745,-0.10967 -0.37589,-0.0476 -0.44097,0.13784 -0.0651,0.1855 -0.76615,0.37471 -1.55794,0.42043 l -1.43962,0.0832 0.47721,0.95657 c 0.54096,1.08437 1.78629,1.5308 2.99491,1.0736 0.45002,-0.17023 1.6301,-0.42055 2.62239,-0.55626 1.49005,-0.20378 1.84252,-0.14679 2.02444,0.32726 0.14609,0.38074 0.0827,0.48895 -0.18843,0.32142 z"
       inkscape:connector-curvature="0" />
  </g>
</svg>
