<?xml version="1.0" encoding="UTF-8" standalone="no"?>
<!-- Created with Inkscape (http://www.inkscape.org/) -->

<svg
   xmlns:dc="http://purl.org/dc/elements/1.1/"
   xmlns:cc="http://creativecommons.org/ns#"
   xmlns:rdf="http://www.w3.org/1999/02/22-rdf-syntax-ns#"
   xmlns:svg="http://www.w3.org/2000/svg"
   xmlns="http://www.w3.org/2000/svg"
   xmlns:sodipodi="http://sodipodi.sourceforge.net/DTD/sodipodi-0.dtd"
   xmlns:inkscape="http://www.inkscape.org/namespaces/inkscape"
   width="249.91121mm"
   height="54.504242mm"
   viewBox="0 0 249.91121 54.504242"
   version="1.1"
   id="svg2598"
   inkscape:version="0.92.4 (5da689c313, 2019-01-14)"
   sodipodi:docname="signature.svg">
  <defs
     id="defs2592" />
  <sodipodi:namedview
     id="base"
     pagecolor="#ffffff"
     bordercolor="#666666"
     borderopacity="1.0"
     inkscape:pageopacity="0.0"
     inkscape:pageshadow="2"
     inkscape:zoom="0.35"
     inkscape:cx="2086.5589"
     inkscape:cy="-1514.1427"
     inkscape:document-units="mm"
     inkscape:current-layer="layer1"
     showgrid="false"
     fit-margin-top="0"
     fit-margin-left="0"
     fit-margin-right="0"
     fit-margin-bottom="0"
     inkscape:window-width="2560"
     inkscape:window-height="1376"
     inkscape:window-x="0"
     inkscape:window-y="27"
     inkscape:window-maximized="1" />
  <metadata
     id="metadata2595">
    <rdf:RDF>
      <cc:Work
         rdf:about="">
        <dc:format>image/svg+xml</dc:format>
        <dc:type
           rdf:resource="http://purl.org/dc/dcmitype/StillImage" />
        <dc:title />
      </cc:Work>
    </rdf:RDF>
  </metadata>
  <g
     inkscape:label="Layer 1"
     inkscape:groupmode="layer"
     id="layer1"
     transform="translate(722.91393,306.28783)">
    <path
       inkscape:connector-curvature="0"
       id="path1105"
       style="fill:#ffffff;fill-opacity:1;stroke-width:0.4599112;stroke:#ffffff"
       d="m -668.25162,-272.72725 c -0.95387,0.66813 -2.21241,0.55773 -2.7549,-0.24163 -0.14276,-0.21038 -2.83324,-0.58106 -5.97884,-0.82372 -4.99231,-0.38509 -7.43646,-0.7252 -11.23819,-1.56381 -0.89431,-0.19726 -6.66256,-1.97208 -8.04844,-2.4764 -0.37942,-0.13808 -1.16952,-0.33166 -1.75576,-0.43019 -1.42175,-0.23895 -4.26003,-1.42889 -7.90237,-3.31307 -3.19921,-1.65492 -9.56926,-7.74531 -10.83926,-10.36336 -0.37619,-0.77551 -1.29358,-2.13439 -2.03862,-3.01972 l -1.35462,-1.60969 -0.0117,1.4081 c -0.0224,2.56022 1.82926,8.66038 3.25368,10.71848 1.41568,2.04548 1.48184,3.28045 0.17576,3.28045 -0.96773,0 -2.74641,-1.96856 -3.43967,-3.80684 -0.30741,-0.81518 -0.98098,-2.51694 -1.49681,-3.7817 -1.31952,-3.23525 -1.66643,-10.07693 -0.61413,-12.11184 0.42166,-0.8154 0.64811,-1.67435 0.50325,-1.90875 -0.14488,-0.23441 0.28149,-0.78323 0.94748,-1.2196 0.94916,-0.62192 1.37479,-0.67855 1.96927,-0.26205 0.41712,0.29223 3.04516,1.66859 5.84009,3.05856 2.79493,1.38999 6.53016,3.54446 8.30051,4.78773 2.734,1.92002 3.2155,2.45902 3.19672,3.57849 -0.0293,1.75029 -1.64861,2.03039 -3.14395,0.54386 -2.87229,-2.85538 -13.23584,-8.79153 -13.57455,-7.7754 -0.13135,0.39406 3.46887,5.91473 6.27414,9.62095 3.03267,4.00663 11.52408,8.91286 17.31947,10.00697 2.59908,0.49068 3.7237,0.78685 4.14064,1.09045 0.59834,0.4357 5.46236,1.71419 7.8185,2.05508 1.66605,0.24105 4.50643,0.47209 11.67016,0.94929 2.64876,0.17644 3.00812,0.37499 3.4738,1.91939 0.21696,0.71953 0.0253,1.18827 -0.69098,1.68997 z m 24.27843,3.57009 c -1.53498,2.28258 -5.5279,3.98117 -10.21572,4.34578 -1.99343,0.15505 -3.45053,-0.73279 -3.45053,-2.10244 0,-1.04069 1.73202,-3.21013 2.56289,-3.21013 0.8023,0 0.8169,0.21553 0.0931,1.3745 -0.4363,0.69864 -0.43963,1.02584 -0.0147,1.45072 1.33349,1.33349 8.56168,-2.64004 9.16336,-5.03734 0.14841,-0.5913 0.0517,-1.55378 -0.21488,-2.13887 -0.68628,-1.50626 -3.5987,-4.59108 -6.32854,-6.70318 -2.55542,-1.97713 -4.10893,-4.62315 -4.51569,-7.69132 -0.6198,-4.67504 3.10805,-8.38927 8.42004,-8.38927 1.74396,0 2.51387,0.23342 3.20036,0.97028 0.49717,0.53364 0.79352,1.25801 0.65858,1.60969 -0.33023,0.86053 -1.98661,0.81846 -1.98661,-0.0505 0,-1.13779 -1.8886,-0.79493 -4.59786,0.83472 -2.84266,1.70986 -3.51294,2.96402 -3.01927,5.64931 0.2739,1.48984 1.13429,2.57511 5.06948,6.39447 6.28618,6.10113 7.54058,9.1774 5.17604,12.69354 z m 8.70688,-11.27702 c -1.33207,0.51116 -2.82691,0.005 -2.82691,-0.95758 0,-0.74394 0.30661,-0.91983 1.60339,-0.91983 1.16244,0 1.6461,0.22173 1.75866,0.80624 0.0854,0.44343 -0.15542,0.92546 -0.53514,1.07117 z m 0.35302,12.64254 c -1.38736,1.1514 -2.03015,0.14449 -2.03015,-3.18021 0,-4.00079 0.40196,-6.05076 1.18642,-6.05076 1.10263,0 1.86861,8.38039 0.84373,9.23097 z m 12.53536,-8.54111 c -0.29387,-1.2974 -0.80397,-1.57365 -1.9454,-1.05358 -1.49804,0.68255 -1.89513,2.3472 -0.91627,3.84112 0.89014,1.35855 1.78658,1.79781 2.84222,1.39273 0.71139,-0.27299 0.71528,-1.10834 0.0194,-4.18027 z m 23.68589,7.74722 c -0.992,0.89774 -2.67819,1.00387 -2.95908,0.18625 -0.1086,-0.31619 -0.0224,-1.19439 0.19165,-1.95159 1.09166,-3.86231 -0.0428,-5.75192 -3.45319,-5.75192 -1.46187,0 -2.08413,0.30341 -3.32866,1.62298 -1.77937,1.88668 -2.30352,3.97189 -1.62034,6.44614 0.34622,1.25392 0.34132,1.93145 -0.0171,2.36332 -1.23685,1.49031 -2.8799,0.17529 -3.33471,-2.66894 -0.42643,-2.66676 -1.58538,-5.00159 -2.33908,-4.71237 -0.46231,0.17741 -0.27305,0.96833 0.79092,3.30513 1.22917,2.69959 1.39062,3.53497 1.33218,6.89232 -0.0777,4.46154 -0.95438,6.6184 -3.47025,8.53733 -3.66864,2.79822 -7.85954,3.29982 -11.67683,1.39758 -2.57625,-1.28381 -3.31462,-2.59586 -2.411,-4.28429 0.57499,-1.07438 1.51582,-1.33279 1.12271,-0.30835 -0.53412,1.39189 3.12239,3.49742 6.02884,3.47158 1.39723,-0.013 5.32184,-2.35094 6.40116,-3.81419 1.46207,-1.98213 1.37783,-8.4084 -0.1518,-11.57953 -0.61006,-1.26475 -1.1763,-2.38289 -1.25832,-2.48474 -0.082,-0.10182 -0.56264,0.34055 -1.06808,0.98312 -1.90497,2.42176 -4.97657,2.00654 -7.25732,-0.98108 -0.82209,-1.07688 -1.49471,-2.37625 -1.49471,-2.8875 0,-1.39163 1.36307,-3.99245 2.22896,-4.25296 3.06386,-0.92184 5.58953,-0.37248 5.58953,1.21578 0,0.48682 0.21141,0.74247 0.47785,0.57781 0.26281,-0.16243 1.20281,0.49615 2.08888,1.46351 0.98461,1.07495 1.73766,1.56855 1.93669,1.26944 0.66115,-0.99359 1.89212,-1.04861 3.05182,-0.13637 l 1.1752,0.92441 0.53009,-1.16343 c 0.72873,-1.5994 3.47304,-3.39844 5.68658,-3.72787 1.04341,-0.15528 2.73373,-0.007 3.90534,0.34293 1.63252,0.48741 2.28189,0.99848 3.09682,2.43728 1.32958,2.34743 1.43705,6.15344 0.20524,7.26822 z m 9.92205,-4.96648 c -0.31495,-0.32915 -0.84585,-0.99446 -1.17979,-1.47849 -0.88913,-1.28881 -3.67522,-0.90052 -4.24239,0.59125 -0.49862,1.31144 -0.10455,3.639 0.73389,4.33484 0.96905,0.80425 3.48197,0.68555 3.97059,-0.18756 0.23735,-0.42412 0.5819,-0.67823 0.76564,-0.56467 0.58947,0.36431 0.5461,-2.07461 -0.048,-2.69537 z m 4.97456,7.54381 c -0.54131,0.44925 -0.88607,0.20987 -1.89628,-1.31666 l -1.23468,-1.86571 -1.35839,1.143 c -3.37073,2.83629 -8.25762,0.33506 -8.79034,-4.49911 -0.20033,-1.81787 1.23837,-4.55146 2.68828,-5.10785 1.98499,-0.7617 5.53531,0.28208 5.91641,1.7394 0.19611,0.74995 0.36507,0.82864 0.81441,0.3793 0.94473,-0.94473 2.08296,-0.63938 2.60129,0.6978 0.58946,1.52069 1.92091,6.84698 1.92091,7.68435 0,0.32802 -0.29773,0.84348 -0.66161,1.14548 z m 13.95039,-1.77076 c -1.61692,1.51044 -2.61443,1.64561 -4.59314,0.62237 -1.85849,-0.96105 -4.50165,-5.19873 -4.85625,-7.7858 -0.21678,-1.58149 -0.48148,-2.08022 -1.10412,-2.08022 -1.13834,0 -1.37961,-0.98476 -0.49068,-2.00281 0.63336,-0.72536 0.75746,-2.4036 0.82921,-11.21422 0.0874,-10.72314 0.28704,-11.87577 1.8829,-10.86658 0.70963,0.44876 0.79218,1.53381 0.79218,10.41309 0,5.45167 0.17247,10.08514 0.38327,10.29661 0.43985,0.44127 0.63267,0.47869 2.86983,0.55695 2.44549,0.0855 1.98506,1.51171 -0.6567,2.03414 l -1.99545,0.39462 0.30867,1.68881 c 0.38782,2.12178 2.28089,5.42718 3.47397,6.06568 0.96706,0.51755 2.74504,-0.0937 2.74504,-0.94372 0,-0.24405 0.41392,-0.44372 0.91982,-0.44372 1.41326,0 1.14536,1.71982 -0.50855,3.2648 z m 12.72522,-4.35861 c -2.03576,4.67748 -7.37806,3.71226 -9.91686,-1.79173 -1.86378,-4.04064 -2.0072,-5.53795 -0.66875,-6.98216 0.59647,-0.64359 1.26683,-1.17018 1.4897,-1.17018 0.76091,0 0.98655,0.58 0.54592,1.4033 -0.30703,0.5737 -0.16679,1.70755 0.46367,3.74873 0.97553,3.15843 2.30401,4.96602 3.64974,4.96602 1.553,0 2.11611,-1.31483 1.98763,-4.64112 -0.12972,-3.35844 0.18002,-3.89516 1.98617,-3.44186 1.05478,0.26474 1.12252,0.47171 1.10563,3.37765 -0.0104,1.7026 -0.29918,3.74171 -0.64285,4.53135 z m 11.62399,-10.05293 c -0.3128,0.31281 -1.01266,0.56875 -1.55524,0.56875 -0.5426,0 -1.34796,0.39938 -1.78973,0.88753 -0.73966,0.81731 -0.75706,1.29167 -0.2199,5.99606 0.52749,4.61968 0.5107,5.18114 -0.17541,5.86725 -0.70499,0.705 -0.80395,0.64681 -1.39788,-0.82207 -1.11271,-2.75191 -2.36708,-10.55419 -1.83328,-11.40323 1.15475,-1.83674 5.41826,-3.21461 6.8063,-2.19966 0.58288,0.42622 0.61686,0.65366 0.16514,1.10537 z m 7.22984,2.40839 c -1.1169,0 -2.55559,1.48163 -2.55559,2.63184 0,0.90094 1.54744,0.69819 2.67275,-0.35021 1.34788,-1.25573 1.2952,-2.28163 -0.1172,-2.28163 z m 9.92986,9.54838 c -0.53694,0.8688 -5.58687,2.47572 -7.95857,2.53246 -2.72884,0.0653 -5.07979,-1.61483 -6.50906,-4.65171 -0.55397,-1.17708 -1.12581,-2.24363 -1.27074,-2.3701 -0.7018,-0.61246 -0.77076,-1.78557 -0.11967,-2.03542 0.38969,-0.14954 0.60579,-0.53968 0.48018,-0.86699 -0.45081,-1.17479 0.92943,-3.37302 2.62219,-4.1763 2.93408,-1.39231 5.20893,-1.18483 6.57935,0.60009 1.46667,1.9103 -0.47612,5.55413 -3.47131,6.51059 -2.55872,0.81708 -2.66534,1.15234 -0.92122,2.89645 1.55258,1.55257 1.6728,1.58905 4.55313,1.38134 1.62714,-0.11733 3.49782,-0.38954 4.15707,-0.60489 1.3756,-0.44936 2.36348,-0.0323 1.85862,0.78448 z m 42.85531,-24.2476 c -2.44622,2.14022 -5.49888,4.89367 -6.78368,6.11877 -5.11572,4.87802 -9.21065,7.51485 -15.67342,10.09247 -7.08689,2.82653 -11.6228,4.09545 -12.65847,3.54116 -2.03394,-1.08853 -0.67463,-2.1057 4.27246,-3.19708 1.20556,-0.26595 4.02686,-1.30978 6.26954,-2.31961 2.24269,-1.00982 4.30585,-1.83605 4.58484,-1.83605 0.70844,0 5.02602,-2.65748 6.95982,-4.28378 8.83468,-7.42985 13.99079,-12.59159 14.0552,-14.07057 0.064,-1.47005 1.30651,-1.8135 2.53582,-0.70099 1.67739,1.518 1.12014,2.55916 -3.56211,6.65568 z m 12.31382,5.49801 c -0.42064,1.5155 -1.66253,1.70167 -2.50473,0.37549 -0.37129,-0.58463 -0.9314,-3.3395 -1.24475,-6.12197 -0.59936,-5.32206 -1.2511,-7.25296 -2.71196,-8.0348 -1.09076,-0.58378 -4.01786,-0.62327 -4.36664,-0.0589 -0.54309,0.87872 -5.2912,3.72456 -6.21419,3.72456 -1.31,0 -1.81479,-1.40519 -0.73292,-2.04024 0.45845,-0.26909 1.42245,-0.96976 2.14225,-1.55703 0.71978,-0.58727 1.52504,-0.93406 1.78944,-0.77066 0.26438,0.16341 0.42383,0.0248 0.35433,-0.30798 -0.21286,-1.01918 3.75925,-2.72199 5.81266,-2.49184 3.85514,0.43208 5.38398,2.66484 6.64015,9.69727 0.49702,2.78247 1.00517,5.36946 1.12926,5.74889 0.12399,0.37942 0.0823,1.20618 -0.093,1.83723 z" />
  </g>
</svg>
