<?xml version="1.0" encoding="UTF-8" standalone="no"?>
<svg
   xmlns:dc="http://purl.org/dc/elements/1.1/"
   xmlns:cc="http://creativecommons.org/ns#"
   xmlns:rdf="http://www.w3.org/1999/02/22-rdf-syntax-ns#"
   xmlns:svg="http://www.w3.org/2000/svg"
   xmlns="http://www.w3.org/2000/svg"
   id="svg1210"
   version="1.1"
   viewBox="0 0 116.54923 114.13768"
   height="114.13768mm"
   width="116.54923mm">
  <defs
     id="defs1204" />
  <metadata
     id="metadata1207">
    <rdf:RDF>
      <cc:Work
         rdf:about="">
        <dc:format>image/svg+xml</dc:format>
        <dc:type
           rdf:resource="http://purl.org/dc/dcmitype/StillImage" />
        <dc:title></dc:title>
      </cc:Work>
    </rdf:RDF>
  </metadata>
  <g
     transform="translate(-52.906218,-29.39842)"
     id="layer1">
    <path
       d="m 67.535142,109.69292 c -0.218572,0.44193 -0.841819,1.01258 -1.384998,1.26811 -0.7475,0.35166 -0.921865,0.35166 -0.717185,0 0.148728,-0.25553 -0.07892,-0.15941 -0.505906,0.21363 -0.432711,0.37804 -1.263464,0.62476 -1.876913,0.55742 -0.605323,-0.0665 -1.100581,-0.0102 -1.100581,0.12525 1.1e-5,0.13533 -0.858717,0.20352 -1.908288,0.15152 -1.049576,-0.0521 -2.306123,-0.1 -2.792326,-0.10659 -0.486214,-0.007 -0.994047,-0.19005 -1.128515,-0.40763 -0.134469,-0.21758 -0.561309,-0.3956 -0.948527,-0.3956 -1.113421,0 -2.442196,-1.47294 -2.246323,-2.49004 0.191836,-0.99611 2.035772,-3.02508 2.409538,-2.65131 0.131781,0.13178 -0.112854,0.57416 -0.54376,0.98306 -1.874726,1.77921 0.978161,3.57504 5.452096,3.43196 2.677508,-0.0856 4.56594,-0.87144 5.272968,-2.19419 0.495447,-0.92693 0.460782,-1.18648 -0.329276,-2.46482 -0.906972,-1.46751 -3.018219,-3.16052 -5.848943,-4.69027 -2.580039,-1.394256 -5.074713,-3.612196 -5.672714,-5.043416 -0.9058,-2.16786 -0.708828,-4.31551 0.535708,-5.84139 1.99796,-2.449641 3.432674,-3.544557 4.707172,-3.592363 2.687682,-0.100785 4.680104,0.576762 3.92281,1.334061 -0.23292,0.232915 -0.641789,0.265093 -0.947069,0.07448 -0.788179,-0.492047 -1.65773,-0.560786 -2.130491,-0.168431 -0.22848,0.189623 -0.596201,0.405337 -0.817168,0.479372 -0.220962,0.07402 -0.343631,0.31539 -0.272617,0.536341 0.07106,0.22096 -0.08131,0.1952 -0.338467,-0.0573 -0.352231,-0.345734 -0.781949,-0.147463 -1.741579,0.8035 -1.874636,1.85776 -2.33582,3.11772 -1.635349,4.46788 0.312898,0.60312 0.468801,1.25855 0.346455,1.45651 -0.122352,0.19797 -0.02027,0.35992 0.226716,0.35992 0.247043,0 0.334661,0.18528 0.194713,0.41171 -0.139938,0.22644 -0.09965,0.36202 0.08962,0.30131 0.189227,-0.0607 0.880617,0.3128 1.536402,0.83003 0.655795,0.51721 2.909589,2.05391 5.008434,3.414836 2.098836,1.36093 4.186067,3.0338 4.638274,3.71748 0.900802,1.36188 1.170483,3.9224 0.546085,5.18489 z m 5.305758,30.42594 c -0.32322,0.89669 -3.126407,2.32908 -4.447755,2.27274 -0.561013,-0.0239 -2.142385,0.0823 -3.514162,0.23609 -2.148895,0.24087 -2.713176,0.15647 -4.076522,-0.60978 -2.337098,-1.31352 -3.171256,-3.73594 -1.870361,-5.43163 0.568452,-0.74096 0.594839,-0.71974 0.529173,0.4254 -0.08222,1.43305 0.605345,2.83714 1.667581,3.40563 1.582772,0.84708 8.795382,-0.0109 9.154757,-1.08908 0.08177,-0.24546 -1.172314,-1.20341 -2.786973,-2.12876 -7.043415,-4.03659 -8.756241,-5.63233 -8.759556,-8.16074 -0.0032,-2.75182 2.767407,-4.93687 6.022896,-4.74928 2.397834,0.13816 3.583693,0.93597 3.432918,2.30952 -0.107047,0.97515 -0.77733,1.75379 -1.522829,1.76901 -0.45035,0.009 -0.363619,-0.57433 0.163764,-1.10171 0.777577,-0.77759 -0.381152,-1.81772 -1.640503,-1.4726 -0.5688,0.15587 -1.450863,0.25909 -1.960159,0.22937 -0.610117,-0.0356 -0.827463,0.10534 -0.637153,0.41331 0.189997,0.30742 0.07288,0.38448 -0.342142,0.22521 -0.437875,-0.16804 -0.779679,0.11689 -1.11689,0.93099 -0.267268,0.64521 -0.638484,1.07882 -0.824939,0.96359 -0.186471,-0.11524 -0.158047,0.29382 0.06309,0.90903 0.394514,1.0973 2.732409,3.12779 4.890327,4.24733 0.600097,0.31134 0.958241,0.71284 0.795871,0.89222 -0.162386,0.17939 -0.08439,0.20548 0.173278,0.058 0.635955,-0.36403 5.198537,2.40134 6.117647,3.70789 0.417739,0.59384 0.630422,1.35482 0.488595,1.74827 z m 6.392202,-39.06348 c -0.218845,0.33144 -0.400671,1.27174 -0.40405,2.08957 -0.0091,2.15336 -1.565534,7.70763 -2.579896,9.20545 -0.319709,0.47208 -0.685324,0.55774 -1.342492,0.31455 -0.890833,-0.32964 -2.014337,-2.43463 -3.766347,-7.05659 -0.432785,-1.1417 -1.114075,-2.49759 -1.51398,-3.0131 -0.839004,-1.08149 -0.6931,-1.94163 0.329355,-1.94163 1.075113,0 1.908542,1.15401 3.61499,5.00554 1.089098,2.45816 1.62156,3.28953 1.773408,2.76896 0.783807,-2.687 1.087097,-4.35 1.128504,-6.18776 0.051,-2.265206 1.01527,-3.755556 2.274563,-3.515626 0.789013,0.15032 1.061783,1.458506 0.485945,2.330636 z m 4.71206,31.25681 c -0.276196,0.0299 -1.557209,0.26154 -2.846694,0.51457 -2.46879,0.48445 -3.301749,0.21084 -2.860301,-0.93954 0.134813,-0.35131 0.531802,-0.74875 0.882191,-0.88322 1.028163,-0.39453 5.326992,0.22677 5.326992,0.76991 0,0.26607 -0.225982,0.5083 -0.502188,0.53828 z m 0.841247,7.99374 c -0.294362,1.31264 -0.522441,1.63199 -1.027238,1.43828 -0.429401,-0.16478 -0.551584,-0.0916 -0.361233,0.21642 0.18794,0.30408 0.07152,0.38248 -0.335832,0.22616 -0.342918,-0.13159 -0.62349,-0.0329 -0.62349,0.21922 0,1.47263 -5.083605,-1.47728 -5.995745,-3.47921 -0.842082,-1.84817 -1.345448,-7.46073 -1.135098,-12.6565 0.113937,-2.81432 0.05956,-5.02569 -0.120931,-4.91417 -0.180443,0.11149 -0.312388,-0.34929 -0.293196,-1.02402 0.04123,-1.45145 0.418092,-1.7616 1.737845,-1.43035 l 0.976904,0.24519 -0.03733,7.52625 c -0.04577,9.21517 0.113767,10.15373 2.075421,12.2159 1.861326,1.95667 3.108925,1.97646 3.762736,0.0597 0.56748,-1.6637 0.99458,-2.05185 1.455594,-1.32287 0.205557,0.32504 0.357151,0.68136 0.336883,0.79184 -0.02027,0.11047 -0.207151,0.96015 -0.415257,1.88814 z m 1.00968,-40.10167 c -0.455081,-0.377666 -0.735817,-0.301076 -1.362697,0.37179 -0.434243,0.46611 -0.78954,1.11555 -0.78954,1.44318 0,0.32765 -0.180786,0.70744 -0.401747,0.84401 -0.508014,0.31397 -0.531027,2.61134 -0.02619,2.61134 1.09723,0 2.373174,-0.87967 2.923195,-2.01536 0.674654,-1.393 0.557154,-2.50784 -0.343066,-3.25496 z m 4.669561,10.79387 c -0.446254,0.38211 -1.033812,0.70523 -1.305679,0.71807 -0.271856,0.0129 -1.332339,0.16781 -2.356632,0.34442 -2.358891,0.40671 -3.261497,-0.0593 -4.793439,-2.47492 -1.433119,-2.2598 -1.580654,-5.20896 -0.424775,-8.4912 1.039676,-2.952236 1.730147,-3.654836 3.59176,-3.654836 4.225398,0 4.962973,6.490306 1.026325,9.031286 -3.073258,1.98368 -2.8846,1.67125 -1.672692,2.77019 1.052147,0.95407 1.149137,0.96762 2.980958,0.41632 2.219344,-0.66792 2.134472,-0.60416 2.35945,-1.77239 0.218735,-1.13582 0.431756,-1.35827 0.977633,-1.02089 0.772842,0.47764 0.50456,3.37409 -0.382909,4.13395 z m 5.788096,1.57992 c -1.407066,0.53994 -1.929871,-0.45065 -2.815435,-5.33458 -0.476884,-2.63009 -1.07724,-6.68023 -1.334113,-9.000316 -0.661307,-5.97289 -1.283652,-9.34525 -1.853477,-10.043661 -0.608707,-0.746059 -0.064,-2.410483 0.788786,-2.410483 0.78499,0 1.073715,0.52732 1.745998,3.188834 0.818804,3.24154 1.253849,5.85173 1.473538,8.84101 0.218334,2.970766 1.65037,11.444796 2.040836,12.076586 0.627349,1.01505 0.602952,2.43354 -0.04614,2.68261 z m -0.800205,20.35589 c -0.174846,-0.65168 -0.543384,-0.86452 -1.501066,-0.86691 -0.698137,-10e-4 -1.456956,-0.065 -1.686291,-0.14061 -0.800581,-0.2639 -2.674388,2.08484 -2.873478,3.60176 -0.16444,1.25292 -0.01161,1.65759 0.98317,2.60356 2.676316,2.54498 5.324829,1.40138 5.314888,-2.29489 -0.0032,-1.12153 -0.109781,-2.42784 -0.237223,-2.90291 z m 2.386029,3.67599 c -0.09987,0.44193 -0.290145,1.07467 -0.42277,1.40611 -0.132616,0.33144 -0.212436,0.73821 -0.177349,0.90393 0.03506,0.16572 -0.104882,0.30131 -0.310892,0.30131 -0.206069,0 -0.48463,0.34646 -0.619035,0.76992 -0.325565,1.02573 -2.362471,1.69156 -4.251036,1.38956 -2.607882,-0.41702 -4.788316,-3.3253 -4.796674,-6.39784 -0.0032,-1.16023 1.956691,-4.04665 3.101931,-4.56846 0.527636,-0.24041 1.363656,-0.33562 1.857821,-0.2116 0.596381,0.14969 1.139011,-0.0403 1.613816,-0.56492 0.679537,-0.75087 0.774472,-0.75704 1.897165,-0.12319 0.757103,0.42745 1.319335,1.17258 1.56444,2.07335 0.529637,1.94645 0.758651,4.06604 0.542583,5.02183 z m 8.20165,-33.74672 c -0.2762,0.0966 -1.4965,0.22652 -2.7118,0.28872 -2.16118,0.11057 -2.21231,0.14103 -2.33332,1.38973 -0.23605,2.43559 1.13397,5.75388 2.37557,5.75388 0.21263,0 0.75977,-0.63248 1.21588,-1.40551 0.4561,-0.77304 0.99236,-1.30472 1.1917,-1.18154 0.48029,0.29685 0.45325,2.62831 -0.0393,3.39054 -0.28299,0.4379 -0.39112,0.45886 -0.3956,0.0768 -0.003,-0.28924 -0.18988,-0.41233 -0.41445,-0.27354 -0.22456,0.13878 -0.31032,0.41086 -0.19059,0.6046 0.26697,0.43197 -2.46432,1.23184 -3.21834,0.94249 -0.73276,-0.2812 -2.248839,-3.54167 -2.682702,-5.76948 -0.384561,-1.97463 -1.534986,-15.312206 -1.534986,-17.796056 0,-1.364017 0.103514,-1.528716 0.889042,-1.415281 1.089246,0.157281 1.336543,1.191847 1.696243,7.096411 0.342923,5.629146 0.538763,6.550836 1.367863,6.437856 0.3668,-0.05 1.70645,0.13501 2.97697,0.41109 2.18808,0.47547 2.91838,1.06097 1.80785,1.44937 z m 3.34812,28.90492 c -0.20242,0.1251 -0.84694,0.0455 -1.43226,-0.17716 -1.58092,-0.60106 -3.02067,-0.50669 -3.02067,0.19801 0,0.33143 -0.17258,0.60261 -0.38354,0.60261 -0.72554,0 -0.86186,2.60189 -0.24206,4.62009 0.86838,2.82756 0.8117,3.41484 -0.32958,3.41484 -1.47406,0 -1.94047,-0.93268 -2.37957,-4.75842 -0.44529,-3.87969 -0.20151,-5.68698 0.7671,-5.68698 0.34705,0 0.93116,-0.36986 1.29802,-0.82193 0.63032,-0.7767 0.75938,-0.78927 2.34614,-0.22867 2.90966,1.02799 4.34824,2.23699 3.37642,2.83761 z m 7.01613,-29.49152 c -0.8474,-0.70328 -1.9017,-0.20799 -2.92351,1.37336 -0.96557,1.49432 -0.68874,2.05165 0.79867,1.60784 2.39774,-0.71543 3.31102,-1.99675 2.12484,-2.9812 z m 3.58965,12.26505 c -1.62278,0.30444 -4.41765,-0.3093 -6.69178,-1.46949 -1.8368,-0.93705 -3.14061,-2.86122 -3.14271,-4.63806 -10e-4,-0.93773 -0.21538,-1.31476 -0.83995,-1.47808 -1.06091,-0.27744 -0.88258,-1.62793 0.23992,-1.81687 0.5134,-0.0864 1.20893,-0.96817 1.94411,-2.46463 1.54127,-3.137196 3.34357,-3.938186 5.89389,-2.61937 0.64535,0.33372 1.35085,0.93839 1.56776,1.3437 0.51463,0.96159 0.31224,3.09879 -0.2818,2.97574 -0.25388,-0.0526 -0.37365,0.13358 -0.26616,0.41369 0.24545,0.63963 -3.70961,2.69502 -5.18588,2.69502 -1.16282,0 -1.33865,0.57829 -0.6355,2.09028 0.53968,1.1605 3.67527,2.55264 7.50532,3.33225 1.73626,0.35341 1.67411,1.30164 -0.10727,1.63582 z m -0.83969,16.07494 c -0.54027,-1.4079 -3.34701,-0.20199 -3.94972,1.69698 -0.15387,0.48482 -0.40319,0.88151 -0.55402,0.88151 -0.15083,0 -0.27424,0.42972 -0.27424,0.95492 0,0.94404 0.0206,0.94875 1.80786,0.4142 2.54151,-0.76016 3.63537,-2.21402 2.97012,-3.94761 z m 4.97217,11.27451 c -1.95166,1.23204 -4.4721,1.90079 -5.85535,1.55361 -0.52382,-0.13147 -1.43182,-0.68356 -2.01775,-1.22687 -0.58594,-0.54331 -1.20522,-0.98784 -1.37619,-0.98784 -0.17099,0 -0.78103,-1.02788 -1.35568,-2.28419 -0.57465,-1.25631 -1.29535,-2.53473 -1.60154,-2.84092 -0.72903,-0.72902 -0.70841,-1.5604 0.0459,-1.84986 0.33144,-0.12718 0.60261,-0.5153 0.60261,-0.86247 0,-0.9747 1.4051,-3.50174 2.62575,-4.72241 0.84708,-0.84706 1.48467,-1.09953 2.77687,-1.09953 2.68361,0 3.77963,1.47104 3.44225,4.6201 -0.22455,2.09584 -2.93051,4.62008 -4.9527,4.62008 -2.5967,0 -0.28497,3.67798 2.65885,4.23024 0.86409,0.1621 2.07932,-0.0451 3.5987,-0.61355 3.43357,-1.28467 4.31339,-0.3703 1.40829,1.46361 z m 44.94494,-95.6849 c -0.53719,0.734645 -0.61066,0.738276 -1.61585,0.07961 -0.57918,-0.3795 -1.05307,-0.856935 -1.05307,-1.06096 0,-0.817427 -2.85645,-5.157516 -4.68508,-7.118536 -2.34754,-2.51745 -5.88625,-4.94612 -7.20681,-4.94612 -1.09426,0 -1.24219,0.474223 -0.37295,1.195627 0.32507,0.269792 1.11107,1.512233 1.74665,2.760982 3.77683,7.420432 5.29704,10.548708 6.08178,12.514996 0.48502,1.215278 1.31481,3.152065 1.84401,4.303958 0.91513,1.991993 2.15083,8.298258 2.93526,14.979864 0.48211,4.106489 0.21176,11.415566 -0.51266,13.860249 -0.3274,1.104805 -0.97667,3.364633 -1.44286,5.021829 -0.46619,1.657205 -1.16838,3.560825 -1.56044,4.230275 -0.39206,0.66943 -0.8428,1.73501 -1.00166,2.36792 -0.49971,1.99102 -7.77933,9.024636 -8.73132,8.436266 -0.19335,-0.11949 -0.35155,-0.0303 -0.35155,0.19815 0,0.38426 -3.62239,2.26629 -3.97255,2.06397 -0.0857,-0.0495 -0.26657,0.0643 -0.40175,0.25313 -0.13518,0.18877 -1.51129,0.76051 -3.05801,1.27052 -1.54672,0.51002 -3.26419,1.16366 -3.81659,1.45256 -1.05047,0.54936 -3.59949,1.22798 -4.1179,1.0963 -0.16572,-0.0421 -0.30131,0.0837 -0.30131,0.2796 0,0.19588 -0.80557,0.47693 -1.79016,0.62458 -0.98459,0.14765 -2.33918,0.54234 -3.01022,0.8771 -1.52962,0.76307 -2.92729,0.39363 -2.7558,-0.72842 0.10284,-0.6728 0.90384,-1.01203 4.7192,-1.99867 2.52744,-0.65358 5.32963,-1.52024 6.22708,-1.92591 0.89744,-0.40567 2.26447,-0.92244 3.03784,-1.14838 1.97321,-0.57653 7.08788,-2.88676 9.24017,-4.17371 2.94914,-1.763406 6.13481,-5.391366 7.51224,-8.555186 1.27658,-2.9322 3.06743,-8.472292 3.95715,-12.241633 0.50353,-2.133284 0.51709,-9.961614 0.0195,-11.26054 -0.12696,-0.33144 -0.42013,-1.868122 -0.65149,-3.41484 -0.23135,-1.546728 -0.57784,-3.827568 -0.76995,-5.068543 -0.19213,-1.240973 -0.91987,-3.591191 -1.61721,-5.222703 -2.72521,-6.376009 -3.38529,-7.86516 -4.4313,-9.996954 -0.95136,-1.93892 -3.2825,-6.402824 -5.08761,-9.742347 -0.93388,-1.72773 -1.45783,-1.367094 -1.16733,0.803489 0.14047,1.049571 0.35709,5.340303 0.48135,9.534969 l 0.22595,7.626681 -1.08785,-1.087858 c -1.05661,-1.056618 -1.09285,-1.246848 -1.26141,-6.622318 -0.18577,-5.924973 -1.06488,-12.063712 -1.98142,-13.836106 -1.07194,-2.072892 0.0908,-2.924699 3.11083,-2.279029 5.59765,1.196725 6.9044,1.701744 9.49965,3.671301 2.70012,2.049139 5.31775,4.956405 7.57302,8.410936 2.22412,3.406815 2.2855,3.579707 1.60243,4.513859 z"
       style="fill:#333333;fill-opacity:1;stroke-width:0.40174639"
       id="path920" />
  </g>
</svg>
